<svg version="1.1" xmlns="http://www.w3.org/2000/svg" xmlns:xlink="http://www.w3.org/1999/xlink" width="32.96173" height="55.58696" viewBox="0,0,32.96173,55.58696"><g transform="translate(-223.49628,-153.84498)"><g data-paper-data="{&quot;isPaintingLayer&quot;:true}" fill="none" fill-rule="nonzero" stroke="#ffffff" stroke-width="8" stroke-linecap="round" stroke-linejoin="miter" stroke-miterlimit="10" stroke-dasharray="" stroke-dashoffset="0" style="mix-blend-mode: normal"><path d="M228.78792,157.84498c0,0 2.35241,-1.70276 5.63513,-2.64297c1.83151,-0.52457 3.84503,-0.86239 6.61224,-0.48719c3.27559,0.44412 7.58332,3.40508 8.81311,6.68147c1.16274,3.09776 1.70811,6.73782 -1.14104,11.36182c-1.26772,2.05743 -3.0259,3.65476 -5.34555,4.61576c-4.88284,2.02287 -10.94169,1.69087 -10.94169,1.69087"/><path d="M233.30864,179.06134c0,0 2.85518,-0.53029 6.22408,0.02709c1.87961,0.31097 4.87325,0.54096 7.21265,2.06589c1.16824,0.76152 3.11879,2.65448 4.07749,4.1874c1.31377,2.1007 1.8186,4.79347 1.6492,6.80956c-0.27705,3.29717 -1.66316,7.68478 -6.2191,10.64156c-2.02714,1.31561 -6.4031,2.76998 -8.91078,2.64413c-5.27863,-0.26493 -9.8459,-3.54386 -9.8459,-3.54386" data-paper-data="{&quot;index&quot;:null}"/></g></g></svg>