<svg version="1.1" xmlns="http://www.w3.org/2000/svg" xmlns:xlink="http://www.w3.org/1999/xlink" width="486.48649" height="367.86787" viewBox="0,0,486.48649,367.86787"><g transform="translate(2.49249,3.93394)"><g data-paper-data="{&quot;isPaintingLayer&quot;:true}" fill="#ececec" fill-rule="nonzero" stroke-linejoin="miter" stroke-miterlimit="10" stroke-dasharray="" stroke-dashoffset="0" style="mix-blend-mode: normal"><path d="M-2.49249,363.93393v-367.86787h486.48649v367.86787z" stroke="none" stroke-width="0" stroke-linecap="butt"/><g><path d="M232.63504,186.27387v-12.54774h14.72995v12.54774z" stroke="none" stroke-width="0" stroke-linecap="butt"/><g stroke="#000000" stroke-width="0.25" stroke-linecap="round"><path d="M239.5912,180.33263l-0.56552,-0.67861"/><path d="M240.07042,179.66807v0.67793"/><path d="M240.67302,180.346l0.30131,-0.60261"/></g></g><g><path d="M299.3846,175.83649v-12.54774h14.72995v12.54774z" stroke="none" stroke-width="0" stroke-linecap="butt"/><g stroke="#000000" stroke-width="0.25" stroke-linecap="round"><path d="M306.34077,169.89524l-0.56551,-0.67861"/><path d="M306.81998,169.23068v0.67794"/><path d="M307.7239,169.306l-0.30131,0.60261"/></g></g><g><path d="M240.91977,255.45054v-12.54774h14.72995v12.54774z" stroke="none" stroke-width="0" stroke-linecap="butt"/><g stroke="#000000" stroke-width="0.25" stroke-linecap="round"><path d="M247.87594,249.5093l-0.56552,-0.67861"/><path d="M248.35516,248.84474v0.67793"/><path d="M249.25907,248.92006l-0.30131,0.60261"/></g></g><g><path d="M294.80485,234.72157v-12.54774h14.72995v12.54774z" stroke="none" stroke-width="0" stroke-linecap="butt"/><g stroke="#000000" stroke-width="0.25" stroke-linecap="round"><path d="M301.1955,228.1017l0.56552,0.67861"/><path d="M302.24023,228.11575v0.67794"/><path d="M302.84283,228.79369l0.30131,-0.60261"/></g></g><g><path d="M292.08615,294.61006v-12.54774h14.72995v12.54774z" stroke="none" stroke-width="0" stroke-linecap="butt"/><g stroke="#000000" stroke-width="0.25" stroke-linecap="round"><path d="M299.04233,288.66882l-0.56552,-0.67861"/><path d="M299.52153,288.00426v0.67793"/><path d="M300.12413,288.68219l0.30131,-0.60261"/></g></g><g><path d="M367.41205,279.02687v-12.54774h14.72995v12.54774z" stroke="none" stroke-width="0" stroke-linecap="butt"/><g stroke="#000000" stroke-width="0.25" stroke-linecap="round"><path d="M374.36822,273.08563l-0.56551,-0.67861"/><path d="M374.84744,272.42107v0.67793"/><path d="M375.45004,273.099l0.30131,-0.60261"/></g></g><g><path d="M259.20451,338.91539v-12.54774h14.72995v12.54774z" stroke="none" stroke-width="0" stroke-linecap="butt"/><g stroke="#000000" stroke-width="0.25" stroke-linecap="round"><path d="M265.59515,332.29553l0.56552,0.67861"/><path d="M266.63989,332.98751v-0.67793"/><path d="M267.5438,332.38489l-0.30131,0.60261"/></g></g><g><path d="M353.39833,215.27045v-12.54774h14.72995v12.54774z" stroke="none" stroke-width="0" stroke-linecap="butt"/><g stroke="#000000" stroke-width="0.25" stroke-linecap="round"><path d="M359.78899,208.65058l0.56552,0.67861"/><path d="M360.83372,209.34256v-0.67793"/><path d="M361.73763,208.73997l-0.30131,0.6026"/></g></g><g><path d="M437.30056,249.42997v-12.54774h14.72995v12.54774z" stroke="none" stroke-width="0" stroke-linecap="butt"/><g stroke="#000000" stroke-width="0.25" stroke-linecap="round"><path d="M444.25673,243.48872l-0.56551,-0.67861"/><path d="M444.73595,242.82416v0.67794"/><path d="M445.33855,243.50209l0.30131,-0.60261"/></g></g><g><path d="M369.40176,341.90853v-12.54774h14.72995v12.54774z" stroke="none" stroke-width="0" stroke-linecap="butt"/><g stroke="#000000" stroke-width="0.25" stroke-linecap="round"><path d="M376.35794,335.96728l-0.56552,-0.67861"/><path d="M376.83715,335.98065v-0.67793"/><path d="M377.43975,335.98065l0.30131,-0.6026"/></g></g><g><path d="M409.56471,308.31505v-12.54774h14.72995v12.54774z" stroke="none" stroke-width="0" stroke-linecap="butt"/><g stroke="#000000" stroke-width="0.25" stroke-linecap="round"><path d="M416.52089,302.37379l-0.56552,-0.67861"/><path d="M417.0001,302.38717v-0.67793"/><path d="M417.6027,302.38717l0.30131,-0.6026"/></g></g><g><path d="M454.01583,353.6238v-12.54774h14.72995v12.54774z" stroke="none" stroke-width="0" stroke-linecap="butt"/><g stroke="#000000" stroke-width="0.25" stroke-linecap="round"><path d="M460.972,347.68255l-0.56552,-0.67861"/><path d="M461.4512,347.69591v-0.67793"/><path d="M462.05381,347.69592l0.30131,-0.6026"/></g></g><g><path d="M422.07222,173.67541v-12.54774h14.72995v12.54774z" stroke="none" stroke-width="0" stroke-linecap="butt"/><g stroke="#000000" stroke-width="0.25" stroke-linecap="round"><path d="M429.0284,167.73415l-0.56552,-0.67861"/><path d="M429.50761,167.74753v-0.67794"/><path d="M430.11021,167.74753l0.30131,-0.60261"/></g></g><g><path d="M466.52334,218.98416v-12.54774h14.72995v12.54774z" stroke="none" stroke-width="0" stroke-linecap="butt"/><g stroke="#000000" stroke-width="0.25" stroke-linecap="round"><path d="M473.47951,213.04291l-0.56552,-0.67861"/><path d="M473.95872,213.05627v-0.67793"/><path d="M474.56132,213.05628l0.30131,-0.6026"/></g></g><g><path d="M369.56471,167.972v-12.54774h14.72995v12.54774z" stroke="none" stroke-width="0" stroke-linecap="butt"/><g stroke="#000000" stroke-width="0.25" stroke-linecap="round"><path d="M375.95537,161.35213l0.56552,0.67861"/><path d="M377.0001,161.36618v0.67793"/><path d="M377.90401,161.44151l-0.30131,0.60261"/></g></g><g><path d="M27.42482,141.72433v-12.54774h14.72995v12.54774z" stroke="none" stroke-width="0" stroke-linecap="butt"/><g stroke="#000000" stroke-width="0.25" stroke-linecap="round"><path d="M33.81547,135.10447l0.56552,0.67861"/><path d="M34.8602,135.79645v-0.67793"/><path d="M35.4628,135.79645l0.30131,-0.6026"/></g></g><g><path d="M94.1744,131.28694v-12.54774h14.72995v12.54774z" stroke="none" stroke-width="0" stroke-linecap="butt"/><g stroke="#000000" stroke-width="0.25" stroke-linecap="round"><path d="M101.13057,125.34569l-0.56552,-0.67861"/><path d="M101.60977,124.68113v0.67793"/><path d="M102.21238,125.35906l0.30131,-0.6026"/></g></g><g><path d="M35.70955,210.901v-12.54774h14.72995v12.54774z" stroke="none" stroke-width="0" stroke-linecap="butt"/><g stroke="#000000" stroke-width="0.25" stroke-linecap="round"><path d="M42.10021,204.28114l0.56551,0.67861"/><path d="M43.14494,204.29519v0.67793"/><path d="M43.74754,204.97312l0.30131,-0.6026"/></g></g><g><path d="M89.59463,190.17202v-12.54774h14.72995v12.54774z" stroke="none" stroke-width="0" stroke-linecap="butt"/><g stroke="#000000" stroke-width="0.25" stroke-linecap="round"><path d="M96.5508,184.23077l-0.56551,-0.67861"/><path d="M97.03002,183.5662v0.67793"/><path d="M97.93392,183.64153l-0.30131,0.6026"/></g></g><g><path d="M86.87594,250.06052v-12.54774h14.72995v12.54774z" stroke="none" stroke-width="0" stroke-linecap="butt"/><g stroke="#000000" stroke-width="0.25" stroke-linecap="round"><path d="M93.26659,243.44066l0.56551,0.67861"/><path d="M94.31132,243.45471v0.67794"/><path d="M94.91393,244.13264l0.30131,-0.60261"/></g></g><g><path d="M162.20183,234.47733v-12.54774h14.72995v12.54774z" stroke="none" stroke-width="0" stroke-linecap="butt"/><g stroke="#000000" stroke-width="0.25" stroke-linecap="round"><path d="M168.59249,227.85747l0.56551,0.67861"/><path d="M169.63723,228.54945v-0.67793"/><path d="M170.54114,227.94684l-0.30131,0.60261"/></g></g><g><path d="M53.99429,294.36584v-12.54774h14.72995v12.54774z" stroke="none" stroke-width="0" stroke-linecap="butt"/><g stroke="#000000" stroke-width="0.25" stroke-linecap="round"><path d="M60.95046,288.42458l-0.56551,-0.67861"/><path d="M61.42968,288.43796v-0.67793"/><path d="M62.33358,287.83536l-0.30131,0.6026"/></g></g><g><path d="M148.18811,170.7209v-12.54774h14.72995v12.54774z" stroke="none" stroke-width="0" stroke-linecap="butt"/><g stroke="#000000" stroke-width="0.25" stroke-linecap="round"><path d="M154.57877,164.10104l0.56552,0.67861"/><path d="M155.62351,164.79302v-0.67794"/><path d="M156.22609,164.79302l0.30131,-0.60261"/></g></g><g><path d="M164.19155,297.35898v-12.54774h14.72995v12.54774z" stroke="none" stroke-width="0" stroke-linecap="butt"/><g stroke="#000000" stroke-width="0.25" stroke-linecap="round"><path d="M171.14772,291.41772l-0.56551,-0.67861"/><path d="M171.62693,291.43109v-0.67793"/><path d="M172.22954,291.43109l0.30131,-0.6026"/></g></g><g><path d="M204.3545,263.7655v-12.54774h14.72995v12.54774z" stroke="none" stroke-width="0" stroke-linecap="butt"/><g stroke="#000000" stroke-width="0.25" stroke-linecap="round"><path d="M210.74515,257.14563l0.56552,0.67861"/><path d="M211.78989,257.15968v0.67793"/><path d="M212.6938,257.23501l-0.30131,0.6026"/></g></g><g><path d="M248.80562,309.07424v-12.54774h14.72995v12.54774z" stroke="none" stroke-width="0" stroke-linecap="butt"/><g stroke="#000000" stroke-width="0.25" stroke-linecap="round"><path d="M255.76178,303.133l-0.56552,-0.67861"/><path d="M256.241,302.46842v0.67794"/><path d="M256.8436,303.14637l0.30131,-0.60261"/></g></g><g><path d="M216.86201,129.12586v-12.54774h14.72995v12.54774z" stroke="none" stroke-width="0" stroke-linecap="butt"/><g stroke="#000000" stroke-width="0.25" stroke-linecap="round"><path d="M223.81818,123.18461l-0.56552,-0.67861"/><path d="M224.2974,123.19799v-0.67794"/><path d="M225.20131,122.59537l-0.30131,0.6026"/></g></g><g><path d="M261.31313,174.4346v-12.54774h14.72995v12.54774z" stroke="none" stroke-width="0" stroke-linecap="butt"/><g stroke="#000000" stroke-width="0.25" stroke-linecap="round"><path d="M267.70378,167.81475l0.56552,0.67861"/><path d="M268.7485,168.50673v-0.67794"/><path d="M269.3511,168.50673l0.30131,-0.60261"/></g></g><g><path d="M164.35449,123.42244v-12.54774h14.72995v12.54774z" stroke="none" stroke-width="0" stroke-linecap="butt"/><g stroke="#000000" stroke-width="0.25" stroke-linecap="round"><path d="M170.74516,116.80259l0.56552,0.67861"/><path d="M171.78989,116.81662v0.67794"/><path d="M172.39249,117.49457l0.30131,-0.60261"/></g></g><g><path d="M253.42727,41.23133v-12.54774h14.72995v12.54774z" stroke="none" stroke-width="0" stroke-linecap="butt"/><g stroke="#000000" stroke-width="0.25" stroke-linecap="round"><path d="M259.81793,34.61147l0.56552,0.67861"/><path d="M260.86267,34.62551v0.67794"/><path d="M261.76658,34.70084l-0.30131,0.60261"/></g></g><g><path d="M307.31236,20.50234v-12.54774h14.72995v12.54774z" stroke="none" stroke-width="0" stroke-linecap="butt"/><g stroke="#000000" stroke-width="0.25" stroke-linecap="round"><path d="M313.703,13.88249l0.56552,0.67861"/><path d="M314.74774,13.89652v0.67793"/><path d="M315.35033,14.57447l0.30131,-0.60261"/></g></g><g><path d="M304.59366,80.39085v-12.54774h14.72995v12.54774z" stroke="none" stroke-width="0" stroke-linecap="butt"/><g stroke="#000000" stroke-width="0.25" stroke-linecap="round"><path d="M310.98432,73.77099l0.56552,0.67861"/><path d="M312.02905,74.46297v-0.67793"/><path d="M312.93296,73.86037l-0.30131,0.6026"/></g></g><g><path d="M379.91956,64.80766v-12.54774h14.72995v12.54774z" stroke="none" stroke-width="0" stroke-linecap="butt"/><g stroke="#000000" stroke-width="0.25" stroke-linecap="round"><path d="M386.31022,58.18779l0.56552,0.67861"/><path d="M387.35495,58.20184v0.67793"/><path d="M387.95755,58.87977l0.30131,-0.60261"/></g></g><g><path d="M271.712,124.69617v-12.54774h14.72995v12.54774z" stroke="none" stroke-width="0" stroke-linecap="butt"/><g stroke="#000000" stroke-width="0.25" stroke-linecap="round"><path d="M278.66819,118.75491l-0.56552,-0.67861"/><path d="M279.14739,118.09035v0.67794"/><path d="M280.05131,118.16568l-0.30131,0.60261"/></g></g><g><path d="M449.80807,35.21075v-12.54774h14.72995v12.54774z" stroke="none" stroke-width="0" stroke-linecap="butt"/><g stroke="#000000" stroke-width="0.25" stroke-linecap="round"><path d="M456.76424,29.2695l-0.56552,-0.67861"/><path d="M457.24346,28.60493v0.67793"/><path d="M457.84606,29.28287l0.30131,-0.60261"/></g></g><g><path d="M382.07366,127.52492v-12.54774h14.72995v12.54774z" stroke="none" stroke-width="0" stroke-linecap="butt"/><g stroke="#000000" stroke-width="0.25" stroke-linecap="round"><path d="M389.02984,121.58367l-0.56552,-0.67861"/><path d="M389.50905,121.59704v-0.67794"/><path d="M390.11165,121.59704l0.30131,-0.6026"/></g></g><g><path d="M422.07222,94.09583v-12.54774h14.72995v12.54774z" stroke="none" stroke-width="0" stroke-linecap="butt"/><g stroke="#000000" stroke-width="0.25" stroke-linecap="round"><path d="M428.46288,87.47597l0.56552,0.67861"/><path d="M429.50761,87.49002v0.67794"/><path d="M430.11021,88.16795l0.30131,-0.6026"/></g></g><g><path d="M466.52334,139.40458v-12.54774h14.72995v12.54774z" stroke="none" stroke-width="0" stroke-linecap="butt"/><g stroke="#000000" stroke-width="0.25" stroke-linecap="round"><path d="M472.91399,132.78472l0.56552,0.67861"/><path d="M473.95872,133.47669v-0.67793"/><path d="M474.56132,133.4767l0.30131,-0.60261"/></g></g><g><path d="M99.38345,35.8413v-12.54774h14.72995v12.54774z" stroke="none" stroke-width="0" stroke-linecap="butt"/><g stroke="#000000" stroke-width="0.25" stroke-linecap="round"><path d="M105.77411,29.22144l0.56551,0.67861"/><path d="M106.81884,29.23548v0.67793"/><path d="M107.42144,29.91342l0.30131,-0.60261"/></g></g><g><path d="M174.70935,20.25811v-12.54774h14.72995v12.54774z" stroke="none" stroke-width="0" stroke-linecap="butt"/><g stroke="#000000" stroke-width="0.25" stroke-linecap="round"><path d="M181.10001,13.63824l0.56552,0.67861"/><path d="M182.14474,14.33024v-0.67794"/><path d="M182.74734,14.33022l0.30131,-0.60261"/></g></g><g><path d="M66.5018,80.14662v-12.54774h14.72995v12.54774z" stroke="none" stroke-width="0" stroke-linecap="butt"/><g stroke="#000000" stroke-width="0.25" stroke-linecap="round"><path d="M72.89246,73.52676l0.56552,0.67861"/><path d="M73.93719,74.21874v-0.67793"/><path d="M74.84109,73.61613l-0.30131,0.6026"/></g></g><g><path d="M176.69906,83.13976v-12.54774h14.72995v12.54774z" stroke="none" stroke-width="0" stroke-linecap="butt"/><g stroke="#000000" stroke-width="0.25" stroke-linecap="round"><path d="M183.08972,76.5199l0.56552,0.67861"/><path d="M184.13445,77.21188v-0.67794"/><path d="M184.73705,77.21188l0.30131,-0.60261"/></g></g><g><path d="M216.86201,49.54628v-12.54774h14.72995v12.54774z" stroke="none" stroke-width="0" stroke-linecap="butt"/><g stroke="#000000" stroke-width="0.25" stroke-linecap="round"><path d="M223.25266,42.92642l0.56552,0.67861"/><path d="M224.2974,42.94047v0.67793"/><path d="M224.9,43.61839l0.30131,-0.6026"/></g></g><g><path d="M261.31313,94.85503v-12.54774h14.72995v12.54774z" stroke="none" stroke-width="0" stroke-linecap="butt"/><g stroke="#000000" stroke-width="0.25" stroke-linecap="round"><path d="M268.2693,88.91377l-0.56552,-0.67861"/><path d="M268.7485,88.24921v0.67794"/><path d="M269.3511,88.92715l0.30131,-0.60261"/></g></g></g></g></svg>