<svg version="1.1" xmlns="http://www.w3.org/2000/svg" xmlns:xlink="http://www.w3.org/1999/xlink" width="82.72527" height="30.14228" viewBox="0,0,82.72527,30.14228"><g transform="translate(-198.65025,-164.89424)"><g data-paper-data="{&quot;isPaintingLayer&quot;:true}" fill-rule="nonzero" stroke="#ffffff" stroke-width="1" stroke-linejoin="miter" stroke-miterlimit="10" stroke-dasharray="" stroke-dashoffset="0" style="mix-blend-mode: normal"><path d="M280.84976,169.17914l-0.08927,1.74066l-16.29081,-0.04463l-0.31242,0.93728h-4.06154l-0.08927,4.77566h-4.86492l0.08927,-5.26662l-2.22046,-0.04463l-11.55978,4.99883l-3.035,0.04463l-0.08926,-1.16044l-6.44938,-0.08927l-0.04463,0.71411l-2.72257,1.42824l-2.18698,2.94574h-4.37398l-19.20307,8.99342l-1.56213,-0.58022l-0.62485,-1.16045l-0.1339,-3.43669l-1.87456,-5.98073v-1.02654l0.62486,-1.11581l0.75875,-0.66949l19.32581,-2.67794l4.46324,1.20507l6.43821,-2.75605l0.08927,-4.73103l0.80338,-0.08927v-0.58022l0.66949,-0.08926l0.04463,1.82993l30.94137,0.56906l0.04463,-0.98192l0.71412,-0.08926l0.04463,0.93728l0.26779,0.62485l0.04463,0.49096z" data-paper-data="{&quot;index&quot;:null}" fill="#545454" stroke-linecap="round"/><path d="M238.27603,176.27948l-0.05579,1.58993l-0.80891,0.61365l-3.79353,0.0279l-0.75312,-0.66944l0.05578,-2.62199h1.311l0.02789,2.51042l0.30683,0.0279l0.25105,0.02789l0.36262,-2.5662l2.81725,0.0279z" data-paper-data="{&quot;index&quot;:null}" fill="none" stroke-linecap="round"/><path d="M259.32993,176.4234l-0.08584,18.11311h-3.17624v-18.11311z" data-paper-data="{&quot;index&quot;:null}" fill="#929292" stroke-linecap="round"/><path d="M205.35427,181.33194c1.10324,0 1.99759,0.87019 1.99759,1.94361c0,1.07343 -0.89435,1.94361 -1.99759,1.94361c-1.10324,0 -1.99759,-0.87019 -1.99759,-1.94361c0,-1.07342 0.89435,-1.94361 1.99759,-1.94361z" data-paper-data="{&quot;index&quot;:null}" fill="#545454" stroke-linecap="butt"/></g></g></svg>