<svg version="1.1" xmlns="http://www.w3.org/2000/svg" xmlns:xlink="http://www.w3.org/1999/xlink" width="481.64565" height="414.82288" viewBox="0,0,481.64565,414.82288"><g transform="translate(0.82282,10.91819)"><g data-paper-data="{&quot;isPaintingLayer&quot;:true}" fill-rule="nonzero" stroke-linejoin="miter" stroke-miterlimit="10" stroke-dasharray="" stroke-dashoffset="0" style="mix-blend-mode: normal"><path d="M-0.82282,361.22223v-360.44444h481.64565v360.44444z" fill="#7381b3" stroke="none" stroke-width="0" stroke-linecap="butt"/><path d="M-0.03604,359.39693v-361.13348c0,0 255.32353,-20.65869 414.04265,0c207.68723,27.03232 -220.47951,215.82396 0,361.13348c151.94712,100.14247 -414.04265,0 -414.04265,0z" fill="#8a8858" stroke="none" stroke-width="NaN" stroke-linecap="butt"/><g fill="#8a8858"><path d="M214.61702,201.2889v-12.54774h14.72995v12.54774z" stroke="none" stroke-width="0" stroke-linecap="butt"/><g stroke="#000000" stroke-width="0.25" stroke-linecap="round"><path d="M221.00767,194.66904l0.56552,0.67861"/><path d="M222.0524,195.36102v-0.67793"/><path d="M222.655,195.36102l0.30131,-0.60261"/></g></g><g fill="#8a8858"><path d="M9.40681,156.73935v-12.54774h14.72995v12.54774z" stroke="none" stroke-width="0" stroke-linecap="butt"/><g stroke="#000000" stroke-width="0.25" stroke-linecap="round"><path d="M15.79746,150.11949l0.56552,0.67861"/><path d="M16.84219,150.81147v-0.67793"/><path d="M17.7461,150.20887l-0.30131,0.6026"/></g></g><g fill="#8a8858"><path d="M76.15638,146.30196v-12.54774h14.72995v12.54774z" stroke="none" stroke-width="0" stroke-linecap="butt"/><g stroke="#000000" stroke-width="0.25" stroke-linecap="round"><path d="M82.54703,139.6821l0.56552,0.67861"/><path d="M83.59176,140.37408v-0.67793"/><path d="M84.19436,140.37408l0.30131,-0.6026"/></g></g><g fill="#8a8858"><path d="M17.69154,225.91602v-12.54774h14.72995v12.54774z" stroke="none" stroke-width="0" stroke-linecap="butt"/><g stroke="#000000" stroke-width="0.25" stroke-linecap="round"><path d="M24.64771,219.97477l-0.56551,-0.67861"/><path d="M25.12693,219.98814v-0.67793"/><path d="M26.03084,219.38554l-0.30131,0.6026"/></g></g><g fill="#8a8858"><path d="M71.57662,205.18703v-12.54774h14.72995v12.54774z" stroke="none" stroke-width="0" stroke-linecap="butt"/><g stroke="#000000" stroke-width="0.25" stroke-linecap="round"><path d="M78.53278,199.24579l-0.56551,-0.67861"/><path d="M79.012,199.25915v-0.67793"/><path d="M79.91591,198.65656l-0.30131,0.6026"/></g></g><g fill="#8a8858"><path d="M68.85792,265.07554v-12.54774h14.72995v12.54774z" stroke="none" stroke-width="0" stroke-linecap="butt"/><g stroke="#000000" stroke-width="0.25" stroke-linecap="round"><path d="M75.24858,258.45568l0.56551,0.67861"/><path d="M76.29331,258.46973v0.67794"/><path d="M76.89591,259.14766l0.30131,-0.60261"/></g></g><g fill="#8a8858"><path d="M144.18382,249.49235v-12.54774h14.72995v12.54774z" stroke="none" stroke-width="0" stroke-linecap="butt"/><g stroke="#000000" stroke-width="0.25" stroke-linecap="round"><path d="M150.57448,242.87249l0.56551,0.67861"/><path d="M151.61921,243.56447v-0.67793"/><path d="M152.22181,243.56447l0.30131,-0.60261"/></g></g><g fill="#8a8858"><path d="M35.97628,309.38086v-12.54774h14.72995v12.54774z" stroke="none" stroke-width="0" stroke-linecap="butt"/><g stroke="#000000" stroke-width="0.25" stroke-linecap="round"><path d="M42.93244,303.4396l-0.56551,-0.67861"/><path d="M43.41166,302.77504v0.67793"/><path d="M44.31557,302.85038l-0.30131,0.6026"/></g></g><g fill="#8a8858"><path d="M130.1701,185.73591v-12.54774h14.72995v12.54774z" stroke="none" stroke-width="0" stroke-linecap="butt"/><g stroke="#000000" stroke-width="0.25" stroke-linecap="round"><path d="M136.56076,179.11606l0.56552,0.67861"/><path d="M137.60549,179.80804v-0.67794"/><path d="M138.50939,179.20543l-0.30131,0.60261"/></g></g><g fill="#8a8858"><path d="M146.17353,312.37399v-12.54774h14.72995v12.54774z" stroke="none" stroke-width="0" stroke-linecap="butt"/><g stroke="#000000" stroke-width="0.25" stroke-linecap="round"><path d="M153.1297,306.43275l-0.56551,-0.67861"/><path d="M153.60892,305.76818v0.67793"/><path d="M154.21152,306.44611l0.30131,-0.6026"/></g></g><g fill="#8a8858"><path d="M198.84399,144.14088v-12.54774h14.72995v12.54774z" stroke="none" stroke-width="0" stroke-linecap="butt"/><g stroke="#000000" stroke-width="0.25" stroke-linecap="round"><path d="M205.80017,138.19963l-0.56552,-0.67861"/><path d="M206.27938,137.53506v0.67794"/><path d="M207.18329,137.61039l-0.30131,0.6026"/></g></g><g fill="#8a8858"><path d="M146.33648,138.43746v-12.54774h14.72995v12.54774z" stroke="none" stroke-width="0" stroke-linecap="butt"/><g stroke="#000000" stroke-width="0.25" stroke-linecap="round"><path d="M152.72714,131.81761l0.56552,0.67861"/><path d="M153.77187,132.50959v-0.67794"/><path d="M154.37447,132.50959l0.30131,-0.60261"/></g></g><g fill="#8a8858"><path d="M81.36543,50.85631v-12.54774h14.72995v12.54774z" stroke="none" stroke-width="0" stroke-linecap="butt"/><g stroke="#000000" stroke-width="0.25" stroke-linecap="round"><path d="M88.3216,44.91507l-0.56551,-0.67861"/><path d="M88.80082,44.25051v0.67793"/><path d="M89.70473,44.32583l-0.30131,0.60261"/></g></g><g fill="#8a8858"><path d="M156.69133,35.27312v-12.54774h14.72995v12.54774z" stroke="none" stroke-width="0" stroke-linecap="butt"/><g stroke="#000000" stroke-width="0.25" stroke-linecap="round"><path d="M163.64751,29.33187l-0.56552,-0.67861"/><path d="M164.12672,28.66732v0.67794"/><path d="M164.72932,29.34525l0.30131,-0.60261"/></g></g><g fill="#8a8858"><path d="M48.48379,95.16163v-12.54774h14.72995v12.54774z" stroke="none" stroke-width="0" stroke-linecap="butt"/><g stroke="#000000" stroke-width="0.25" stroke-linecap="round"><path d="M54.87444,88.54178l0.56552,0.67861"/><path d="M55.91917,89.23376v-0.67793"/><path d="M56.52177,89.23376l0.30131,-0.6026"/></g></g><g fill="#8a8858"><path d="M158.68104,98.15478v-12.54774h14.72995v12.54774z" stroke="none" stroke-width="0" stroke-linecap="butt"/><g stroke="#000000" stroke-width="0.25" stroke-linecap="round"><path d="M165.63722,92.21353l-0.56552,-0.67861"/><path d="M166.11643,92.2269v-0.67794"/><path d="M167.02034,91.62428l-0.30131,0.60261"/></g></g><g fill="#8a8858"><path d="M198.84399,64.5613v-12.54774h14.72995v12.54774z" stroke="none" stroke-width="0" stroke-linecap="butt"/><g stroke="#000000" stroke-width="0.25" stroke-linecap="round"><path d="M205.23465,57.94144l0.56552,0.67861"/><path d="M206.27938,58.63342v-0.67793"/><path d="M206.88198,58.63342l0.30131,-0.6026"/></g></g></g></g></svg>