<svg version="1.1" xmlns="http://www.w3.org/2000/svg" xmlns:xlink="http://www.w3.org/1999/xlink" width="126.28114" height="82.29119" viewBox="0,0,126.28114,82.29119"><g transform="translate(-176.8246,-139.03109)"><g data-paper-data="{&quot;isPaintingLayer&quot;:true}" fill="#545454" fill-rule="nonzero" stroke="#ffffff" stroke-width="1" stroke-linecap="round" stroke-linejoin="miter" stroke-miterlimit="10" stroke-dasharray="" stroke-dashoffset="0" style="mix-blend-mode: normal"><g><path d="M236.38499,166.37744l0.62347,2.04853l3.11732,1.0688l1.51413,-2.22666l8.61717,4.29745l3.56266,-0.71253l8.90664,4.80958l-0.08907,1.69226l-1.42506,1.60319l7.12531,3.56265v2.49386l34.11243,21.01967l-7.30345,14.25062l-5.34399,-9.08477l-1.42506,3.02826l-4.54239,-8.63944l-4.45332,-2.49386l0.08907,-2.31572l-4.27519,-3.11732l-0.5344,-2.58293l-8.57264,-3.00599l-5.25492,-0.8016l0.17813,17.90235l-8.99571,-0.62347l-0.2672,-16.12102l-16.98941,-7.74878l2.40479,-6.85811l-0.62346,-2.40479l-3.38452,-1.51413l-0.89067,0.5344l-23.42446,-11.04424l-0.75465,-2.20758l-5.16895,-2.62423l0.79522,-2.62423l-17.33584,-8.82696l-0.55665,0.23857l-8.27031,-4.2942l2.22662,-3.33993l7.39557,4.69181v0.87474l17.25632,8.98601l5.32799,-9.38362l3.18089,9.54267z"/><path d="M209.83602,156.17623l-3.02184,-1.59044l2.46519,-4.93038z"/><path d="M246.03833,187.13158l3.41946,-2.62423l1.66997,0.79522l-2.62423,2.06758l2.62423,0.7157l2.46519,-1.35188l0.87474,0.31809l-2.46519,3.41945l-5.80512,-2.22662z"/><path d="M243.46594,188.81127l-10.09932,15.10922l-8.42935,-8.11127l9.62219,-11.13311z"/><path d="M251.2772,169.40322l0.63618,-6.91843l5.16895,3.18089l0.7157,1.59044l2.94232,1.82901l1.98806,-0.7157l1.19283,0.87474l0.07952,1.74949l5.48703,3.26041l-0.23857,2.06758l-1.51092,0.79522l-3.5785,-1.74949l-1.19283,0.15905l-8.98601,-4.85086z"/></g></g></g></svg>