<svg version="1.1" xmlns="http://www.w3.org/2000/svg" xmlns:xlink="http://www.w3.org/1999/xlink" width="70.0276" height="68.41174" viewBox="0,0,70.0276,68.41174"><g transform="translate(-204.9862,-145.79413)"><g data-paper-data="{&quot;isPaintingLayer&quot;:true}" fill-rule="nonzero" stroke-linejoin="miter" stroke-miterlimit="10" stroke-dasharray="" stroke-dashoffset="0" style="mix-blend-mode: normal"><path d="M240,150.68065c19.06145,0 34.5138,14.10868 34.5138,31.51261c0,17.40393 -15.45235,31.51261 -34.5138,31.51261c-19.06144,0 -34.5138,-14.10868 -34.5138,-31.51261c0,-17.40393 15.45235,-31.51261 34.5138,-31.51261z" data-paper-data="{&quot;index&quot;:null}" fill="#fff8c9" stroke="#000000" stroke-width="1" stroke-linecap="butt"/><path d="M207.34874,191.96634c-12.17974,-9.61526 64.98286,1.41078 64.98286,1.41078c0,0 -4.53253,8.72522 -12.51347,14.58839c-5.28174,3.8802 -12.22708,5.74036 -19.81812,5.74036c-10.39435,0 -22.47391,-7.34236 -22.47391,-7.34236c0,0 -2.81053,-1.69931 -4.39281,-4.48057c-0.98394,-1.72954 -2.58139,-2.51434 -3.48052,-4.40754c-0.36307,-0.76449 -1.54595,-2.09446 -1.77114,-3.13533c-0.11233,-0.5192 -0.1918,-2.10447 -0.53289,-2.37374z" data-paper-data="{&quot;index&quot;:null}" fill="#4d5d29" stroke="#000000" stroke-width="1" stroke-linecap="butt"/><path d="M272.66755,166.05296c0,0 -19.74978,-2.53493 -28.43001,-2.35315c-10.91348,0.22856 -34.10947,2.35315 -34.10947,2.35315l-1.57928,-1.57928c0,0 2.80333,-6.6443 9.68072,-11.83354c4.79485,-3.61789 13.19325,-6.36618 17.16794,-6.3459c4.65082,0.02373 16.51063,0.91117 23.12359,4.79954c8.78592,5.16605 14.14652,14.95918 14.14652,14.95918z" data-paper-data="{&quot;index&quot;:null}" fill="#4d5d29" stroke="#000000" stroke-width="1" stroke-linecap="round"/><path d="M243.86375,204.83027l3.26115,-14.60997" data-paper-data="{&quot;index&quot;:null}" fill="none" stroke="#000000" stroke-width="1" stroke-linecap="round"/><path d="M248.42936,197.48171c-0.55228,0 -1,-0.44772 -1,-1c0,-0.55228 0.44772,-1 1,-1c0.55228,0 1,0.44772 1,1c0,0.55228 -0.44772,1 -1,1z" data-paper-data="{&quot;index&quot;:null}" fill="#93b04d" stroke="none" stroke-width="0.5" stroke-linecap="butt"/><path d="M247.3858,201.91688c-0.55228,0 -1,-0.44772 -1,-1c0,-0.55228 0.44772,-1 1,-1c0.55228,0 1,0.44772 1,1c0,0.55228 -0.44772,1 -1,1z" data-paper-data="{&quot;index&quot;:null}" fill="#93b04d" stroke="none" stroke-width="0.5" stroke-linecap="butt"/><path d="M243.21152,198.00349c-0.55228,0 -1,-0.44772 -1,-1c0,-0.55228 0.44772,-1 1,-1c0.55228,0 1,0.44772 1,1c0,0.55228 -0.44772,1 -1,1z" data-paper-data="{&quot;index&quot;:null}" fill="#93b04d" stroke="none" stroke-width="0.5" stroke-linecap="butt"/><path d="M241.64617,203.22134c-0.55228,0 -1,-0.44772 -1,-1c0,-0.55228 0.44772,-1 1,-1c0.55228,0 1,0.44772 1,1c0,0.55228 -0.44772,1 -1,1z" data-paper-data="{&quot;index&quot;:null}" fill="#93b04d" stroke="none" stroke-width="0.5" stroke-linecap="butt"/><path d="M260.01615,176.308c0,0 1.42751,-0.65223 2.08714,-0.65223c0.59458,0 1.6958,0.65223 1.6958,0.65223" data-paper-data="{&quot;index&quot;:null}" fill="none" stroke="#000000" stroke-width="1" stroke-linecap="round"/><path d="M238.30745,174.41223c0,0 2.14126,-0.97834 3.13071,-0.97834c0.89188,0 2.5437,0.97834 2.5437,0.97834" data-paper-data="{&quot;index&quot;:null}" fill="none" stroke="#000000" stroke-width="1" stroke-linecap="round"/></g></g></svg>