<svg version="1.1" xmlns="http://www.w3.org/2000/svg" xmlns:xlink="http://www.w3.org/1999/xlink" width="117.93116" height="22.89307" viewBox="0,0,117.93116,22.89307"><g transform="translate(-181.03422,-168.63046)"><g data-paper-data="{&quot;isPaintingLayer&quot;:true}" fill-rule="nonzero" stroke-width="1" stroke-linecap="round" stroke-linejoin="miter" stroke-miterlimit="10" stroke-dasharray="" stroke-dashoffset="0" style="mix-blend-mode: normal"><path d="M260.01615,176.30801c0,0 1.42751,-0.65223 2.08714,-0.65223c0.59458,0 1.6958,0.65223 1.6958,0.65223" data-paper-data="{&quot;index&quot;:null}" fill="none" stroke="#000000"/><path d="M238.30745,174.41224c0,0 2.14126,-0.97834 3.13071,-0.97834c0.89188,0 2.5437,0.97834 2.5437,0.97834" data-paper-data="{&quot;index&quot;:null}" fill="none" stroke="#000000"/><g data-paper-data="{&quot;index&quot;:null}" stroke="#ffffff"><path d="M298.44245,172.23005l-0.07453,1.30431h-13.51825l-0.14906,2.16143h-2.34776l-34.65741,2.04032l-18.69823,0.14906l0.01863,0.81985l-8.57119,0.07453l-0.14906,0.52172l-1.26705,0.78259l0.03727,-0.96892l-3.40984,0.26086l-4.99365,3.80114l-2.53409,0.14906l-2.29186,-0.55899l-23.57077,8.06809l-0.70805,-14.64555l24.86576,-1.44406l3.76387,1.30431l4.54646,-1.93783l4.35081,-0.47514l4.58372,-3.6148l22.13602,0.14906l0.07453,-0.93165l1.11798,-0.07453v0.89438h0.70805v0.96892l47.50487,0.88507l0.03727,-2.53409l2.0869,-0.03726l-0.03727,2.60862z" fill="#545454"/><path d="M240.01863,177.5684l0.48446,3.98747l-10.03388,1.41611l-0.89438,-5.10545z" fill="#929292"/><path d="M220.0813,179.17085l0.78259,2.53409l0.59626,-0.07453l-0.40993,-2.60862l3.91293,-0.03727l-0.33539,2.49682l-1.63971,1.04345l-2.98128,0.07453l-1.7515,-1.49064l-0.14906,-1.78877l1.00618,-0.2236z" fill="none"/><path d="M240.64924,174.77274l-13.05941,0.13043" fill="none"/><path d="M292.42224,174.80534l-7.63022,0.03261" fill="none"/></g></g></g></svg>