<svg version="1.1" xmlns="http://www.w3.org/2000/svg" xmlns:xlink="http://www.w3.org/1999/xlink" width="441.49396" height="63.27896" viewBox="0,0,441.49396,63.27896"><g transform="translate(-14.53961,-147.04108)"><g data-paper-data="{&quot;isPaintingLayer&quot;:true}" fill-rule="nonzero" stroke="#ffffff" stroke-width="3" stroke-linecap="round" stroke-linejoin="miter" stroke-miterlimit="10" stroke-dasharray="" stroke-dashoffset="0" style="mix-blend-mode: normal"><g><path d="M114.70965,193.05773l-63.39085,15.75394l-8.25206,-0.3751l-2.62566,-3.37584l-24.006,-16.12904l-0.37509,-15.00375l24.00601,-15.75394l2.62566,-5.25131l12.75319,-2.25056l60.015,18.37959l70.18414,0.04828l1.12528,24.006z" fill="#929292"/><path d="M114.03253,164.41134l57.38935,-15.75394l7.50188,4.50113l73.14328,6.37659l0.37509,8.25207l201.29731,-1.7817l0.75018,25.88147l-338.98818,1.21905l-1.12529,-24.006z" fill="#545454"/><path d="M200.48259,164.83807c0,0 -10.59034,3.26907 -16.01954,3.7845c-6.87038,0.65225 -21.90653,-0.18392 -21.90653,-0.18392c0,0 6.13293,-1.59112 7.59496,-3.82264c1.57066,-2.39733 1.5265,-10.09959 1.5265,-10.09959z" fill="#929292"/><path d="M114.62731,169.94768l138.34491,-0.94756" fill="none"/></g></g></g></svg>