<svg version="1.1" xmlns="http://www.w3.org/2000/svg" xmlns:xlink="http://www.w3.org/1999/xlink" width="131.95524" height="157.10655" viewBox="0,0,131.95524,157.10655"><g transform="translate(-174.59012,-57.09932)"><g data-paper-data="{&quot;isPaintingLayer&quot;:true}" fill-rule="nonzero" stroke-linejoin="miter" stroke-miterlimit="10" stroke-dasharray="" stroke-dashoffset="0" style="mix-blend-mode: normal"><g><path d="M306.04536,95.91593c0,17.40393 -15.45236,31.51261 -34.5138,31.51261c-19.06145,0 -34.5138,-14.10868 -34.5138,-31.51261c0,-17.40393 15.45235,-31.51261 34.5138,-31.51261c19.06145,0 34.5138,14.10868 34.5138,31.51261z" fill="#fff8c9" stroke="#000000" stroke-width="1" stroke-linecap="butt"/><path d="M304.18281,105.689c-0.34109,0.26927 -0.42056,1.85454 -0.53289,2.37374c-0.22519,1.04087 -1.40807,2.37084 -1.77114,3.13533c-0.89913,1.8932 -2.49658,2.678 -3.48052,4.40754c-1.58228,2.78126 -4.39281,4.48057 -4.39281,4.48057c0,0 -12.07956,7.34236 -22.47391,7.34236c-7.59104,0 -14.53638,-1.86016 -19.81812,-5.74036c-7.98094,-5.86317 -12.51347,-14.58839 -12.51347,-14.58839c0,0 77.1626,-11.02604 64.98286,-1.41078z" fill="#2f5023" stroke="#000000" stroke-width="1" stroke-linecap="butt"/><path d="M264.40666,103.94297l3.26115,14.60997" fill="none" stroke="#000000" stroke-width="1" stroke-linecap="round"/><path d="M262.1022,110.20438c0,-0.55228 0.44772,-1 1,-1c0.55228,0 1,0.44772 1,1c0,0.55228 -0.44772,1 -1,1c-0.55228,0 -1,-0.44772 -1,-1z" fill="#93b04d" stroke="none" stroke-width="0.5" stroke-linecap="butt"/><path d="M263.14576,114.63955c0,-0.55228 0.44772,-1 1,-1c0.55228,0 1,0.44772 1,1c0,0.55228 -0.44772,1 -1,1c-0.55228,0 -1,-0.44772 -1,-1z" fill="#93b04d" stroke="none" stroke-width="0.5" stroke-linecap="butt"/><path d="M267.32004,110.72616c0,-0.55228 0.44772,-1 1,-1c0.55228,0 1,0.44772 1,1c0,0.55228 -0.44772,1 -1,1c-0.55228,0 -1,-0.44772 -1,-1z" fill="#93b04d" stroke="none" stroke-width="0.5" stroke-linecap="butt"/><path d="M268.88539,115.94401c0,-0.55228 0.44772,-1 1,-1c0.55228,0 1,0.44772 1,1c0,0.55228 -0.44772,1 -1,1c-0.55228,0 -1,-0.44772 -1,-1z" fill="#93b04d" stroke="none" stroke-width="0.5" stroke-linecap="butt"/><path d="M247.73247,90.03067c0,0 1.10122,-0.65223 1.6958,-0.65223c0.65963,0 2.08714,0.65223 2.08714,0.65223" fill="none" stroke="#000000" stroke-width="1" stroke-linecap="round"/><path d="M267.5497,88.1349c0,0 1.65182,-0.97834 2.5437,-0.97834c0.98945,0 3.13071,0.97834 3.13071,0.97834" fill="none" stroke="#000000" stroke-width="1" stroke-linecap="round"/><path d="M244.87356,77.56711c0,0 5.82228,-13.02489 14.6082,-18.19094c6.61296,-3.88837 20.3535,-0.18274 20.3535,-0.18274c0,0 7.42772,5.54012 10.23803,8.27881c1.32205,1.28836 4.1775,3.16263 5.45338,4.79904c1.46723,1.88183 1.26773,3.44911 1.26773,3.44911c0,0 -17.65583,-1.66291 -28.56931,-1.89147c-10.91348,-0.22856 -23.35154,3.73819 -23.35154,3.73819z" fill="#2f5023" stroke="#000000" stroke-width="1" stroke-linecap="round"/><path d="M267.6092,70.24369l-7.85512,-5.23674l9.3825,0.1091l-8.50971,4.90945l3.81846,-7.74602z" fill="#ff0000" stroke="#ff0000" stroke-width="1" stroke-linecap="round"/></g><g><path d="M274.5138,182.19326c0,17.40393 -15.45236,31.51261 -34.5138,31.51261c-19.06145,0 -34.5138,-14.10868 -34.5138,-31.51261c0,-17.40393 15.45235,-31.51261 34.5138,-31.51261c19.06145,0 34.5138,14.10868 34.5138,31.51261z" fill="#fff8c9" stroke="#000000" stroke-width="1" stroke-linecap="butt"/><path d="M272.65126,191.96633c-0.34109,0.26927 -0.42056,1.85454 -0.53289,2.37374c-0.22519,1.04087 -1.40807,2.37084 -1.77114,3.13533c-0.89913,1.8932 -2.49658,2.678 -3.48052,4.40754c-1.58228,2.78126 -4.39281,4.48057 -4.39281,4.48057c0,0 -12.07956,7.34236 -22.47391,7.34236c-7.59104,0 -14.53638,-1.86016 -19.81812,-5.74036c-7.98094,-5.86317 -12.51347,-14.58839 -12.51347,-14.58839c0,0 77.1626,-11.02604 64.98286,-1.41078z" fill="#ffffff" stroke="#000000" stroke-width="1" stroke-linecap="butt"/><path d="M207.33244,166.05296c0,0 5.3606,-9.79313 14.14652,-14.95918c6.61296,-3.88837 18.47277,-4.77581 23.12359,-4.79954c3.97469,-0.02028 12.37309,2.72801 17.16794,6.3459c6.87739,5.18924 9.68072,11.83354 9.68072,11.83354l-1.57928,1.57928c0,0 -23.19599,-2.12459 -34.10947,-2.35315c-8.68023,-0.18178 -28.43001,2.35315 -28.43001,2.35315z" fill="#0055a2" stroke="#000000" stroke-width="1" stroke-linecap="round"/><path d="M236.13625,204.83027l-3.26115,-14.60997" fill="none" stroke="#000000" stroke-width="1" stroke-linecap="round"/><path d="M230.57064,196.48171c0,-0.55228 0.44772,-1 1,-1c0.55228,0 1,0.44772 1,1c0,0.55228 -0.44772,1 -1,1c-0.55228,0 -1,-0.44772 -1,-1z" fill="#0055a2" stroke="none" stroke-width="0.5" stroke-linecap="butt"/><path d="M231.6142,200.91688c0,-0.55228 0.44772,-1 1,-1c0.55228,0 1,0.44772 1,1c0,0.55228 -0.44772,1 -1,1c-0.55228,0 -1,-0.44772 -1,-1z" fill="#0055a2" stroke="none" stroke-width="0.5" stroke-linecap="butt"/><path d="M235.78848,197.00349c0,-0.55228 0.44772,-1 1,-1c0.55228,0 1,0.44772 1,1c0,0.55228 -0.44772,1 -1,1c-0.55228,0 -1,-0.44772 -1,-1z" fill="#0055a2" stroke="none" stroke-width="0.5" stroke-linecap="butt"/><path d="M237.35383,202.22134c0,-0.55228 0.44772,-1 1,-1c0.55228,0 1,0.44772 1,1c0,0.55228 -0.44772,1 -1,1c-0.55228,0 -1,-0.44772 -1,-1z" fill="#0055a2" stroke="none" stroke-width="0.5" stroke-linecap="butt"/><path d="M216.20091,176.308c0,0 1.10122,-0.65223 1.6958,-0.65223c0.65963,0 2.08714,0.65223 2.08714,0.65223" fill="none" stroke="#000000" stroke-width="1" stroke-linecap="round"/><path d="M236.01814,174.41223c0,0 1.65182,-0.97834 2.5437,-0.97834c0.98945,0 3.13071,0.97834 3.13071,0.97834" fill="none" stroke="#000000" stroke-width="1" stroke-linecap="round"/><path d="M239.84875,160.482l-7.85511,-5.23674l9.3825,0.1091l-8.50971,4.90945l3.81846,-7.74602z" fill="#ff0000" stroke="#ff0000" stroke-width="1" stroke-linecap="round"/></g><g stroke="#ffffff" stroke-width="1"><path d="M177.69887,187.32561l12.65951,0.12114" fill="none" stroke-linecap="round"/><path d="M180.98514,185.17853l0.09795,-2.25274l1.71404,0.14692l0.04897,2.39966l4.97061,-0.04897l0.48973,-0.93048l0.34281,-0.04897l0.73459,-0.73459l14.88768,-0.19589l0.5387,-0.44075l23.83743,0.04897l0.19589,-0.48973l0.5387,-0.24486l0.48973,0.04897l0.34281,0.19589l5.43596,-0.09795l0.09795,0.29384l0.48972,-0.04897l0.04897,0.39178l8.71713,-0.04897l0.19589,-0.29384h1.27329l0.58767,0.34281l13.83477,-0.14692l0.19589,0.78356l1.51815,0.24486l-0.04897,1.46918l-1.12637,0.44075l7.59076,2.73023l2.35069,-1.12637l17.72809,0.5387l0.73459,0.34281l0.04897,10.48014l-0.63664,0.44076l-11.30044,-3.47706l-2.54658,-0.19589l-2.69349,-1.0774l-4.60343,-0.34281l-4.24837,-3.42808l-4.99521,-0.68562l-0.04897,-0.88151l-0.68562,-0.09795l-0.63665,0.83253l-18.0709,-0.09795l-0.09795,0.39178l-1.37124,-0.04897l-1.46918,-0.39178l-10.82295,-1.61609l-13.01448,-0.22038l-8.71713,-0.14692l-0.41627,-0.93048h-12.78186l-0.83253,-0.34281l-5.63185,0.09794l-0.19589,1.27329h-1.42021l-0.04897,-1.32226l-7.44384,0.04897l-0.04897,-1.32226z" fill="#545454" stroke-linecap="round"/><path d="M209.11992,184.44394h-1.71404" fill="none" stroke-linecap="round"/><path d="M210.88834,184.40037h1.71404" fill="none" stroke-linecap="round"/><path d="M215.83998,184.40578h-1.71404" fill="none" stroke-linecap="round"/><path d="M219.02861,184.41118h-1.71404" fill="none" stroke-linecap="round"/><path d="M191.58909,184.59086c0,-0.14124 0.1145,-0.25574 0.25574,-0.25574c0.14124,0 0.25574,0.1145 0.25574,0.25574c0,0.14124 -0.1145,0.25574 -0.25574,0.25574c-0.14124,0 -0.25574,-0.1145 -0.25574,-0.25574z" fill="#ffffff" stroke-linecap="butt"/><path d="M193.15621,184.54189c0,-0.14124 0.1145,-0.25574 0.25574,-0.25574c0.14124,0 0.25574,0.1145 0.25574,0.25574c0,0.14124 -0.1145,0.25574 -0.25574,0.25574c-0.14124,0 -0.25574,-0.1145 -0.25574,-0.25574z" fill="#ffffff" stroke-linecap="butt"/><path d="M194.72333,184.54189c0,-0.14124 0.1145,-0.25574 0.25574,-0.25574c0.14124,0 0.25574,0.1145 0.25574,0.25574c0,0.14124 -0.1145,0.25574 -0.25574,0.25574c-0.14124,0 -0.25574,-0.1145 -0.25574,-0.25574z" fill="#ffffff" stroke-linecap="butt"/><path d="M196.09457,184.49291c0,-0.14124 0.1145,-0.25574 0.25574,-0.25574c0.14124,0 0.25574,0.1145 0.25574,0.25574c0,0.14124 -0.1145,0.25574 -0.25574,0.25574c-0.14124,0 -0.25574,-0.1145 -0.25574,-0.25574z" fill="#ffffff" stroke-linecap="butt"/><path d="M197.71067,184.49291c0,-0.14124 0.1145,-0.25574 0.25574,-0.25574c0.14124,0 0.25574,0.1145 0.25574,0.25574c0,0.14124 -0.1145,0.25574 -0.25574,0.25574c-0.14124,0 -0.25574,-0.1145 -0.25574,-0.25574z" fill="#ffffff" stroke-linecap="butt"/><path d="M199.03293,184.44394c0,-0.14124 0.1145,-0.25574 0.25574,-0.25574c0.14124,0 0.25574,0.1145 0.25574,0.25574c0,0.14124 -0.1145,0.25574 -0.25574,0.25574c-0.14124,0 -0.25574,-0.1145 -0.25574,-0.25574z" fill="#ffffff" stroke-linecap="butt"/><path d="M200.40416,184.44394c0,-0.14124 0.1145,-0.25574 0.25574,-0.25574c0.14124,0 0.25574,0.1145 0.25574,0.25574c0,0.14124 -0.1145,0.25574 -0.25574,0.25574c-0.14124,0 -0.25574,-0.1145 -0.25574,-0.25574z" fill="#ffffff" stroke-linecap="butt"/><path d="M247.47761,189.94534l0.06057,3.69488l-0.48457,3.45259l-7.57148,-1.27201l0.06057,-5.87547z" fill="#929292" stroke-linecap="round"/><path d="M255.95767,190.00592l0.66629,1.9383l0.78743,-0.18172l-0.54515,-1.75658h0.60572l0.60572,-0.84801l0.60572,0.12114l0.18172,1.15087l0.84801,1.39315l-0.66629,1.5143l-3.57374,-0.18172l-1.09029,-0.48457l-0.54515,-2.60459z" fill="none" stroke-linecap="round"/></g></g></g></svg>