<svg version="1.1" xmlns="http://www.w3.org/2000/svg" xmlns:xlink="http://www.w3.org/1999/xlink" width="98.7866" height="28.70459" viewBox="0,0,98.7866,28.70459"><g transform="translate(-190.56732,-165.73801)"><g data-paper-data="{&quot;isPaintingLayer&quot;:true}" fill-rule="nonzero" stroke-width="1" stroke-linejoin="miter" stroke-miterlimit="10" stroke-dasharray="" stroke-dashoffset="0" style="mix-blend-mode: normal"><path d="M259.28595,178.13771l-3.81517,0.18168l-0.68129,0.86295l-1.4534,0.09084l-0.81754,-0.63586l-0.18167,-1.4534l0.36335,-0.86296v-2.77054l-21.25598,-0.04542l-0.49961,0.86295l0.13625,0.90837l0.68128,1.54424l-0.04542,0.77212l-0.81754,0.18168l-0.99922,3.04305l-0.40877,2.72513l-0.95379,0.7267l-3.31557,-0.77212l-0.68128,-1.49882l1.36256,-4.26936l0.81754,-1.58966l-0.27251,-1.81675l-0.18167,-1.13547l-3.67892,1.04464l-0.45418,-0.27251l-25.29826,6.5403l-1.35121,4.63271l-0.90837,-0.18167l-0.59044,-4.13311l-2.81597,-7.7666l0.7267,-0.49961l3.54266,5.90444l26.39967,-6.85823l-0.36335,-1.04463l1.27173,-1.40798v-0.99921l20.17729,0.27251l0.36335,-1.13547l0.95379,-0.09083l0.77212,-0.9538h0.63586l0.7267,0.86295h0.9538l0.36335,1.04463l36.17605,0.52232l0.45419,-0.81754l0.86295,-0.68128l1.90759,-0.04541l0.95379,0.49961l-0.13626,0.86296l0.91973,0.15896l-0.13626,2.54346h-13.53479l-0.04541,2.86138l-15.57864,0.18167l0.06524,3.22064z" data-paper-data="{&quot;index&quot;:null}" fill="#545454" stroke="#ffffff" stroke-linecap="round"/><path d="M254.75541,178.52628l4.81246,-0.53757l0.57749,1.61821l-0.07411,0.59288l0.44466,2.89031l1.33398,3.48318l2.37153,5.0395l-3.85373,2.1492l-1.48221,-2.66797l-2.1492,-4.59484l-0.88932,-3.11264l-0.66699,-4.2984z" data-paper-data="{&quot;index&quot;:null}" fill="#929292" stroke="#ffffff" stroke-linecap="round"/><path d="M238.96966,173.47829l0.2166,2.51799l-1.05593,0.73102l-6.41681,0.1083l-0.78518,-2.24724l0.48735,-1.16423l2.65336,0.05415l0.18953,2.30139l0.8664,0.08123l-0.05415,-2.27431z" data-paper-data="{&quot;index&quot;:null}" fill="none" stroke="#ffffff" stroke-linecap="round"/><path d="M285.68976,169.27719c0.34653,0 0.62744,0.28776 0.62744,0.64274c0,0.35498 -0.28091,0.64275 -0.62744,0.64275c-0.34653,0 -0.62745,-0.28777 -0.62745,-0.64275c0,-0.35498 0.28092,-0.64274 0.62745,-0.64274z" data-paper-data="{&quot;index&quot;:null}" fill="#ffffff" stroke="none" stroke-linecap="butt"/><path d="M282.86381,169.31789c0.34653,0 0.62745,0.28776 0.62745,0.64274c0,0.35498 -0.28092,0.64275 -0.62745,0.64275c-0.34653,0 -0.62744,-0.28777 -0.62744,-0.64275c0,-0.35498 0.28091,-0.64274 0.62744,-0.64274z" data-paper-data="{&quot;index&quot;:null}" fill="#ffffff" stroke="none" stroke-linecap="butt"/><path d="M280.00726,169.23616c0.34653,0 0.62744,0.28777 0.62744,0.64275c0,0.35497 -0.28091,0.64274 -0.62744,0.64274c-0.34653,0 -0.62745,-0.28776 -0.62745,-0.64274c0,-0.35498 0.28092,-0.64275 0.62745,-0.64275z" data-paper-data="{&quot;index&quot;:null}" fill="#ffffff" stroke="none" stroke-linecap="butt"/><path d="M277.1507,169.21565c0.34653,0 0.62745,0.28777 0.62745,0.64275c0,0.35498 -0.28092,0.64275 -0.62745,0.64275c-0.34653,0 -0.62744,-0.28777 -0.62744,-0.64275c0,-0.35498 0.28091,-0.64275 0.62744,-0.64275z" data-paper-data="{&quot;index&quot;:null}" fill="#ffffff" stroke="none" stroke-linecap="butt"/><path d="M271.32528,169.13395c0.34653,0 0.62744,0.28776 0.62744,0.64274c0,0.35497 -0.28091,0.64274 -0.62744,0.64274c-0.34653,0 -0.62745,-0.28776 -0.62745,-0.64274c0,-0.35498 0.28092,-0.64274 0.62745,-0.64274z" data-paper-data="{&quot;index&quot;:null}" fill="#ffffff" stroke="none" stroke-linecap="butt"/><path d="M268.34629,169.20525c0.34653,0 0.62744,0.28777 0.62744,0.64275c0,0.35497 -0.28091,0.64274 -0.62744,0.64274c-0.34653,0 -0.62744,-0.28776 -0.62744,-0.64274c0,-0.35498 0.28091,-0.64275 0.62744,-0.64275z" data-paper-data="{&quot;index&quot;:null}" fill="#ffffff" stroke="none" stroke-linecap="butt"/></g></g></svg>