<svg version="1.1" xmlns="http://www.w3.org/2000/svg" xmlns:xlink="http://www.w3.org/1999/xlink" width="74.97006" height="72.91274" viewBox="0,0,74.97006,72.91274"><g transform="translate(-203.09612,-143.54364)"><g data-paper-data="{&quot;isPaintingLayer&quot;:true}" fill-rule="nonzero" stroke-linejoin="miter" stroke-miterlimit="10" stroke-dasharray="" stroke-dashoffset="0" style="mix-blend-mode: normal"><path d="M238.10992,152.93116c19.06145,0 34.5138,14.10868 34.5138,31.51261c0,17.40393 -15.45235,31.51261 -34.5138,31.51261c-19.06144,0 -34.5138,-14.10868 -34.5138,-31.51261c0,-17.40393 15.45235,-31.51261 34.5138,-31.51261z" data-paper-data="{&quot;index&quot;:null}" fill="#fff8c9" stroke="#000000" stroke-width="1" stroke-linecap="butt"/><path d="M205.45868,194.21685c-12.17974,-9.61526 64.98286,1.41078 64.98286,1.41078c0,0 -4.53253,8.72522 -12.51347,14.58839c-5.28174,3.8802 -12.22708,5.74036 -19.81812,5.74036c-10.39435,0 -22.47391,-7.34236 -22.47391,-7.34236c0,0 -2.81053,-1.69931 -4.39281,-4.48057c-0.98394,-1.72954 -2.58139,-2.51434 -3.48052,-4.40754c-0.36307,-0.76449 -1.54595,-2.09446 -1.77114,-3.13533c-0.11233,-0.5192 -0.1918,-2.10447 -0.53289,-2.37374z" data-paper-data="{&quot;index&quot;:null}" fill="#4d5d29" stroke="#000000" stroke-width="1" stroke-linecap="butt"/><path d="M208.90928,163.80236c0,0 5.3606,-9.79313 14.14652,-14.95918c6.61296,-3.88837 18.47277,-4.77581 23.12359,-4.79954c3.97469,-0.02028 14.16719,11.22212 14.16719,11.22212l16.05731,6.20713l-7.95587,1.95437c0,0 -20.19524,-1.7495 -31.10872,-1.97806c-8.68023,-0.18178 -28.43001,2.35315 -28.43001,2.35315z" data-paper-data="{&quot;index&quot;:null}" fill="#4d5d29" stroke="#000000" stroke-width="1" stroke-linecap="round"/><path d="M241.97367,207.08078l3.26115,-14.60997" data-paper-data="{&quot;index&quot;:null}" fill="none" stroke="#000000" stroke-width="1" stroke-linecap="round"/><path d="M246.53928,199.73222c-0.55228,0 -1,-0.44772 -1,-1c0,-0.55228 0.44772,-1 1,-1c0.55228,0 1,0.44772 1,1c0,0.55228 -0.44772,1 -1,1z" data-paper-data="{&quot;index&quot;:null}" fill="#93b04d" stroke="none" stroke-width="0.5" stroke-linecap="butt"/><path d="M245.49572,204.16739c-0.55228,0 -1,-0.44772 -1,-1c0,-0.55228 0.44772,-1 1,-1c0.55228,0 1,0.44772 1,1c0,0.55228 -0.44772,1 -1,1z" data-paper-data="{&quot;index&quot;:null}" fill="#93b04d" stroke="none" stroke-width="0.5" stroke-linecap="butt"/><path d="M241.32144,200.254c-0.55228,0 -1,-0.44772 -1,-1c0,-0.55228 0.44772,-1 1,-1c0.55228,0 1,0.44772 1,1c0,0.55228 -0.44772,1 -1,1z" data-paper-data="{&quot;index&quot;:null}" fill="#93b04d" stroke="none" stroke-width="0.5" stroke-linecap="butt"/><path d="M239.75609,205.47185c-0.55228,0 -1,-0.44772 -1,-1c0,-0.55228 0.44772,-1 1,-1c0.55228,0 1,0.44772 1,1c0,0.55228 -0.44772,1 -1,1z" data-paper-data="{&quot;index&quot;:null}" fill="#93b04d" stroke="none" stroke-width="0.5" stroke-linecap="butt"/><path d="M258.12607,178.55851c0,0 1.42751,-0.65223 2.08714,-0.65223c0.59458,0 1.6958,0.65223 1.6958,0.65223" data-paper-data="{&quot;index&quot;:null}" fill="none" stroke="#000000" stroke-width="1" stroke-linecap="round"/><path d="M236.41737,176.66274c0,0 2.14126,-0.97834 3.13071,-0.97834c0.89188,0 2.5437,0.97834 2.5437,0.97834" data-paper-data="{&quot;index&quot;:null}" fill="none" stroke="#000000" stroke-width="1" stroke-linecap="round"/></g></g></svg>