<svg version="1.1" xmlns="http://www.w3.org/2000/svg" xmlns:xlink="http://www.w3.org/1999/xlink" width="201.98203" height="141.418" viewBox="0,0,201.98203,141.418"><g transform="translate(-73.0318,-73.54305)"><g data-paper-data="{&quot;isPaintingLayer&quot;:true}" fill-rule="nonzero" stroke-linejoin="miter" stroke-miterlimit="10" stroke-dasharray="" stroke-dashoffset="0" style="mix-blend-mode: normal"><path d="M274.51383,180c0,17.40393 -15.45236,31.51261 -34.5138,31.51261c-19.06145,0 -34.5138,-14.10868 -34.5138,-31.51261c0,-17.40393 15.45235,-31.51261 34.5138,-31.51261c19.06145,0 34.5138,14.10868 34.5138,31.51261z" fill="#fff8c9" stroke="#000000" stroke-width="1" stroke-linecap="butt"/><path d="M272.65128,189.77307c-0.34109,0.26927 -0.42056,1.85454 -0.53289,2.37374c-0.22519,1.04087 -1.40807,2.37084 -1.77114,3.13533c-0.89913,1.8932 -2.49658,2.678 -3.48052,4.40754c-1.58228,2.78126 -4.39281,4.48057 -4.39281,4.48057c0,0 -12.07956,7.34236 -22.47391,7.34236c-7.59104,0 -14.53638,-1.86016 -19.81812,-5.74036c-7.98094,-5.86317 -12.51347,-14.58839 -12.51347,-14.58839c0,0 77.1626,-11.02604 64.98286,-1.41078z" fill="#4d5d29" stroke="#000000" stroke-width="1" stroke-linecap="butt"/><path d="M269.20066,159.35858c0,0 -19.74978,-2.53493 -28.43001,-2.35315c-10.91348,0.22856 -31.10872,1.97806 -31.10872,1.97806l-7.95587,-1.95437l16.05731,-6.20713c0,0 10.1925,-11.2424 14.16719,-11.22212c4.65082,0.02373 16.51063,0.91117 23.12359,4.79954c8.78592,5.16605 14.14652,14.95918 14.14652,14.95918z" data-paper-data="{&quot;index&quot;:null}" fill="#4d5d29" stroke="#000000" stroke-width="1" stroke-linecap="round"/><path d="M232.87513,188.02704l3.26115,14.60997" fill="none" stroke="#000000" stroke-width="1" stroke-linecap="round"/><path d="M230.57067,194.28845c0,-0.55228 0.44772,-1 1,-1c0.55228,0 1,0.44772 1,1c0,0.55228 -0.44772,1 -1,1c-0.55228,0 -1,-0.44772 -1,-1z" fill="#93b04d" stroke="none" stroke-width="0.5" stroke-linecap="butt"/><path d="M231.61423,198.72362c0,-0.55228 0.44772,-1 1,-1c0.55228,0 1,0.44772 1,1c0,0.55228 -0.44772,1 -1,1c-0.55228,0 -1,-0.44772 -1,-1z" fill="#93b04d" stroke="none" stroke-width="0.5" stroke-linecap="butt"/><path d="M235.78851,194.81023c0,-0.55228 0.44772,-1 1,-1c0.55228,0 1,0.44772 1,1c0,0.55228 -0.44772,1 -1,1c-0.55228,0 -1,-0.44772 -1,-1z" fill="#93b04d" stroke="none" stroke-width="0.5" stroke-linecap="butt"/><path d="M237.35386,200.02808c0,-0.55228 0.44772,-1 1,-1c0.55228,0 1,0.44772 1,1c0,0.55228 -0.44772,1 -1,1c-0.55228,0 -1,-0.44772 -1,-1z" fill="#93b04d" stroke="none" stroke-width="0.5" stroke-linecap="butt"/><path d="M216.20094,174.11474c0,0 1.10122,-0.65223 1.6958,-0.65223c0.65963,0 2.08714,0.65223 2.08714,0.65223" fill="none" stroke="#000000" stroke-width="1" stroke-linecap="round"/><path d="M236.01817,172.21897c0,0 1.65182,-0.97834 2.5437,-0.97834c0.98945,0 3.13071,0.97834 3.13071,0.97834" fill="none" stroke="#000000" stroke-width="1" stroke-linecap="round"/><path d="M142.5594,182.94845c0,17.40393 -15.45236,31.51261 -34.5138,31.51261c-19.06145,0 -34.5138,-14.10868 -34.5138,-31.51261c0,-17.40393 15.45235,-31.51261 34.5138,-31.51261c19.06145,0 34.5138,14.10868 34.5138,31.51261z" fill="#fff8c9" stroke="#000000" stroke-width="1" stroke-linecap="butt"/><path d="M140.69686,192.72152c-0.34109,0.26927 -0.42056,1.85454 -0.53289,2.37374c-0.22519,1.04087 -1.40807,2.37084 -1.77114,3.13533c-0.89913,1.8932 -2.49658,2.678 -3.48052,4.40754c-1.58228,2.78126 -4.39281,4.48057 -4.39281,4.48057c0,0 -12.07956,7.34236 -22.47391,7.34236c-7.59104,0 -14.53638,-1.86016 -19.81812,-5.74036c-7.98094,-5.86317 -12.51347,-14.58839 -12.51347,-14.58839c0,0 77.1626,-11.02604 64.98286,-1.41078z" fill="#4d5d29" stroke="#000000" stroke-width="1" stroke-linecap="butt"/><path d="M75.37804,166.80815c0,0 5.3606,-9.79313 14.14652,-14.95918c6.61296,-3.88837 18.47277,-4.77581 23.12359,-4.79954c3.97469,-0.02028 12.37309,2.72801 17.16794,6.3459c6.87739,5.18924 9.68072,11.83354 9.68072,11.83354l-1.57928,1.57928c0,0 -23.19599,-2.12459 -34.10947,-2.35315c-8.68023,-0.18178 -28.43001,2.35315 -28.43001,2.35315z" fill="#4d5d29" stroke="#000000" stroke-width="1" stroke-linecap="round"/><path d="M100.9207,190.97549l3.26115,14.60997" fill="none" stroke="#000000" stroke-width="1" stroke-linecap="round"/><path d="M98.61624,197.2369c0,-0.55228 0.44772,-1 1,-1c0.55228,0 1,0.44772 1,1c0,0.55228 -0.44772,1 -1,1c-0.55228,0 -1,-0.44772 -1,-1z" fill="#93b04d" stroke="none" stroke-width="0.5" stroke-linecap="butt"/><path d="M99.6598,201.67207c0,-0.55228 0.44772,-1 1,-1c0.55228,0 1,0.44772 1,1c0,0.55228 -0.44772,1 -1,1c-0.55228,0 -1,-0.44772 -1,-1z" fill="#93b04d" stroke="none" stroke-width="0.5" stroke-linecap="butt"/><path d="M103.83408,197.75868c0,-0.55228 0.44772,-1 1,-1c0.55228,0 1,0.44772 1,1c0,0.55228 -0.44772,1 -1,1c-0.55228,0 -1,-0.44772 -1,-1z" fill="#93b04d" stroke="none" stroke-width="0.5" stroke-linecap="butt"/><path d="M105.39943,202.97653c0,-0.55228 0.44772,-1 1,-1c0.55228,0 1,0.44772 1,1c0,0.55228 -0.44772,1 -1,1c-0.55228,0 -1,-0.44772 -1,-1z" fill="#93b04d" stroke="none" stroke-width="0.5" stroke-linecap="butt"/><path d="M84.24651,177.06319c0,0 1.10122,-0.65223 1.6958,-0.65223c0.65963,0 2.08714,0.65223 2.08714,0.65223" fill="none" stroke="#000000" stroke-width="1" stroke-linecap="round"/><path d="M104.06374,175.16742c0,0 1.65182,-0.97834 2.5437,-0.97834c0.98945,0 3.13071,0.97834 3.13071,0.97834" fill="none" stroke="#000000" stroke-width="1" stroke-linecap="round"/><g fill="#545454" stroke="#ffffff" stroke-width="0.75" stroke-linecap="round"><path d="M204.2347,92.03838l1.22394,0.43101l1.64089,-1.13824l-0.54354,-1.53857l5.19155,-2.66431l0.93108,-1.99514l5.54549,-2.62178l0.79421,0.65098l0.27113,1.27126l4.29724,-2.19974l1.21755,0.89527l22.5081,-9.10843l4.33554,8.68146l-6.35377,-0.6523l0.96687,1.78285l-5.84858,-0.88379l-2.81624,1.27892l-1.09859,-0.8748l-3.05667,0.96813l-1.45287,-0.66634l-4.54505,3.10619l-2.27781,2.27777l8.80416,6.33977l-3.53374,4.16803l-7.96647,-5.6568l-9.88208,5.51279l-2.48495,-3.63603l-1.39787,-0.55891l-1.95423,1.10883l-0.05884,0.62668l-13.80108,7.47145l-1.34869,-0.42406l-3.13678,1.58149l-0.99572,-1.33031l-10.53283,5.29487l-0.08336,0.35741l-5.06544,2.49613l-0.83128,-2.28607l4.94554,-1.92633l0.42706,0.31402l10.58193,-5.19895l-2.66855,-5.96982l5.80079,1.87274z"/><path d="M189.72354,101.33791l-1.86129,0.90437l-1.52211,-2.9735z"/><path d="M217.83265,94.77596l-0.05365,-2.6115l0.98774,-0.52983l0.06735,2.02343l1.29149,-1.02426l0.22496,-1.68886l0.46932,-0.31287l0.78446,2.43109l-3.17104,2.03482z"/><path d="M217.72924,96.63483l3.75103,10.35468l-6.98609,1.2035l-1.98112,-8.69436z"/><path d="M211.05807,85.85399l-3.14931,-2.79423l3.40856,-1.38166l1.0334,0.22154l1.94922,-0.7799l0.36427,-1.22753l0.85528,-0.26834l0.88268,0.58922l3.56156,-1.50841l0.92379,0.85871l-0.15416,1.02313l-2.13877,1.11903l-0.35056,0.63945l-5.59414,2.64571z"/></g></g></g></svg>