<svg version="1.1" xmlns="http://www.w3.org/2000/svg" xmlns:xlink="http://www.w3.org/1999/xlink" width="600" height="420" viewBox="0,0,600,420"><g transform="translate(60,30)"><g data-paper-data="{&quot;isPaintingLayer&quot;:true}" fill-rule="nonzero" stroke-linejoin="miter" stroke-miterlimit="10" stroke-dasharray="" stroke-dashoffset="0" style="mix-blend-mode: normal"><path d="M-51,390v-420h582v420z" fill="#ededed" stroke="none" stroke-width="NaN" stroke-linecap="butt"/><g fill="#ededed" stroke-width="1"><path d="M191.79782,299.79767v-50.19096h58.9198v50.19096z" stroke="none" stroke-linecap="butt"/><g stroke="#000000" stroke-linecap="round"><path d="M219.6225,276.03267l-2.26208,-2.71444"/><path d="M221.53938,276.08615v-2.71172"/><path d="M225.15502,273.67571l-1.20524,2.41044"/></g></g><g fill="#ededed" stroke-width="1"><path d="M354.45548,208.70157v-50.19096h58.9198v50.19096z" stroke="none" stroke-linecap="butt"/><g stroke="#000000" stroke-linecap="round"><path d="M382.28016,184.93657l-2.26208,-2.71444"/><path d="M384.19704,182.27833v2.71172"/><path d="M387.81268,182.57961l-1.20524,2.41044"/></g></g><g fill="#ededed" stroke-width="1"><path d="M69.66569,294.78265v-50.19096h58.9198v50.19096z" stroke="none" stroke-linecap="butt"/><g stroke="#000000" stroke-linecap="round"><path d="M95.22829,268.30321l2.26208,2.71444"/><path d="M99.40725,271.07113v-2.71172"/><path d="M103.02289,268.66069l-1.20524,2.41044"/></g></g><g fill="#ededed" stroke-width="1"><path d="M296.88791,290.77365v-50.19096h58.9198v50.19096z" stroke="none" stroke-linecap="butt"/><g stroke="#000000" stroke-linecap="round"><path d="M324.71259,267.00865l-2.26208,-2.71444"/><path d="M326.62947,264.35041v2.71172"/><path d="M330.24511,264.65169l-1.20524,2.41044"/></g></g><g fill="#ededed" stroke-width="1"><path d="M277.86389,133.61148v-50.19096h58.9198v50.19096z" stroke="none" stroke-linecap="butt"/><g stroke="#000000" stroke-linecap="round"><path d="M305.68857,109.84648l-2.26208,-2.71444"/><path d="M307.60545,107.18824v2.71172"/><path d="M311.22109,107.48952l-1.20524,2.41044"/></g></g><g fill="#ededed" stroke-width="1"><path d="M159.48905,223.1135v-50.19096h58.9198v50.19096z" stroke="none" stroke-linecap="butt"/><g stroke="#000000" stroke-linecap="round"><path d="M185.05165,196.63406l2.26208,2.71444"/><path d="M189.23061,196.69026v2.71172"/><path d="M191.64101,199.40198l1.20524,-2.41044"/></g></g><g fill="#ededed" stroke-width="1"><path d="M334.41043,73.04091v-50.19096h58.9198v50.19096z" stroke="none" stroke-linecap="butt"/><g stroke="#000000" stroke-linecap="round"><path d="M362.23511,49.27591l-2.26208,-2.71444"/><path d="M364.15199,46.61767v2.71172"/><path d="M367.76763,46.91895l-1.20524,2.41044"/></g></g><g fill="#ededed" stroke-width="1"><path d="M247.81884,219.18205v-50.19096h58.9198v50.19096z" stroke="none" stroke-linecap="butt"/><g stroke="#000000" stroke-linecap="round"><path d="M273.38144,192.70261l2.26208,2.71444"/><path d="M277.5604,195.47053v-2.71172"/><path d="M279.9708,195.47053l1.20524,-2.41044"/></g></g><g fill="#ededed" stroke-width="1"><path d="M141.70773,135.59347v-50.19096h58.9198v50.19096z" stroke="none" stroke-linecap="butt"/><g stroke="#000000" stroke-linecap="round"><path d="M169.53241,111.82847l-2.26208,-2.71444"/><path d="M171.44929,109.17023v2.71172"/><path d="M175.06493,109.47151l-1.20524,2.41044"/></g></g><g><path d="M281.14679,168.61145c0,17.40393 -15.45236,31.51261 -34.5138,31.51261c-19.06145,0 -34.5138,-14.10868 -34.5138,-31.51261c0,-17.40393 15.45235,-31.51261 34.5138,-31.51261c19.06145,0 34.5138,14.10868 34.5138,31.51261z" fill="#fff8c9" stroke="#000000" stroke-width="1" stroke-linecap="butt"/><path d="M279.28425,178.38452c-0.34109,0.26927 -0.42056,1.85454 -0.53289,2.37374c-0.22519,1.04087 -1.40807,2.37084 -1.77114,3.13533c-0.89913,1.8932 -2.49658,2.678 -3.48052,4.40754c-1.58228,2.78126 -4.39281,4.48057 -4.39281,4.48057c0,0 -12.07956,7.34236 -22.47391,7.34236c-7.59104,0 -14.53638,-1.86016 -19.81812,-5.74036c-7.98094,-5.86317 -12.51347,-14.58839 -12.51347,-14.58839c0,0 77.1626,-11.02604 64.98286,-1.41078z" fill="#5c5c5c" stroke="#000000" stroke-width="1" stroke-linecap="butt"/><path d="M239.50809,176.63849l3.26115,14.60997" fill="none" stroke="#515151" stroke-width="1" stroke-linecap="round"/><path d="M237.20363,182.8999c0,-0.55228 0.44772,-1 1,-1c0.55228,0 1,0.44772 1,1c0,0.55228 -0.44772,1 -1,1c-0.55228,0 -1,-0.44772 -1,-1z" fill="#515151" stroke="none" stroke-width="0.5" stroke-linecap="butt"/><path d="M238.24719,187.33507c0,-0.55228 0.44772,-1 1,-1c0.55228,0 1,0.44772 1,1c0,0.55228 -0.44772,1 -1,1c-0.55228,0 -1,-0.44772 -1,-1z" fill="#515151" stroke="none" stroke-width="0.5" stroke-linecap="butt"/><path d="M242.42147,183.42168c0,-0.55228 0.44772,-1 1,-1c0.55228,0 1,0.44772 1,1c0,0.55228 -0.44772,1 -1,1c-0.55228,0 -1,-0.44772 -1,-1z" fill="#515151" stroke="none" stroke-width="0.5" stroke-linecap="butt"/><path d="M243.98682,188.63953c0,-0.55228 0.44772,-1 1,-1c0.55228,0 1,0.44772 1,1c0,0.55228 -0.44772,1 -1,1c-0.55228,0 -1,-0.44772 -1,-1z" fill="#515151" stroke="none" stroke-width="0.5" stroke-linecap="butt"/><path d="M222.8339,162.72619c0,0 1.10122,-0.65223 1.6958,-0.65223c0.65963,0 2.08714,0.65223 2.08714,0.65223" fill="none" stroke="#000000" stroke-width="1" stroke-linecap="round"/><path d="M242.65113,160.83042c0,0 1.65182,-0.97834 2.5437,-0.97834c0.98945,0 3.13071,0.97834 3.13071,0.97834" fill="none" stroke="#000000" stroke-width="1" stroke-linecap="round"/><path d="M277.72371,150.22054c0,0 -19.74978,-2.53493 -28.43001,-2.35315c-10.91348,0.22856 -31.10872,1.97806 -31.10872,1.97806l-7.95587,-1.95437l16.05731,-6.20713c0,0 10.1925,-11.2424 14.16719,-11.22212c4.65082,0.02373 16.51063,0.91117 23.12359,4.79954c8.78592,5.16605 14.14652,14.95918 14.14652,14.95918z" data-paper-data="{&quot;index&quot;:null}" fill="#5c5c5c" stroke="#000000" stroke-width="1" stroke-linecap="round"/><text transform="translate(246.42217,143.09788) scale(0.24398,0.24398)" font-size="40" xml:space="preserve" fill="#ffffff" fill-rule="nonzero" stroke="none" stroke-width="1" stroke-linecap="butt" stroke-linejoin="miter" stroke-miterlimit="10" stroke-dasharray="" stroke-dashoffset="0" font-family="Sans Serif" font-weight="normal" text-anchor="start" style="mix-blend-mode: normal"><tspan x="0" dy="0">卍</tspan></text></g><path d="M215.57495,168.84439l0.04463,-0.49096l0.26779,-0.62485l0.04463,-0.93728l0.71412,0.08926l0.04463,0.98192l30.94137,-0.56906l0.04463,-1.82993l0.66949,0.08926v0.58022l0.80338,0.08927l0.08927,4.73103l6.43821,2.75605l4.46324,-1.20507l19.32581,2.67794l0.75875,0.66949l0.62486,1.11581v1.02654l-1.87456,5.98073l-0.1339,3.43669l-0.62485,1.16045l-1.56213,0.58022l-19.20307,-8.99342h-4.37398l-2.18698,-2.94574l-2.72257,-1.42824l-0.04463,-0.71411l-6.44938,0.08927l-0.08926,1.16044l-3.035,-0.04463l-11.55978,-4.99883l-2.22046,0.04463l0.08927,5.26662h-4.86492l-0.08927,-4.77566h-4.06154l-0.31242,-0.93728l-16.29081,0.04463l-0.08927,-1.74066z" fill="#545454" stroke="#ffffff" stroke-width="1" stroke-linecap="round"/><path d="M242.00291,175.24744l2.81725,-0.0279l0.36262,2.5662l0.25105,-0.02789l0.30683,-0.0279l0.02789,-2.51042h1.311l0.05578,2.62199l-0.75312,0.66944l-3.79353,-0.0279l-0.80891,-0.61365l-0.05579,-1.58993z" fill="none" stroke="#ffffff" stroke-width="1" stroke-linecap="round"/><path d="M223.93216,176.4234v18.11311h-3.17624l-0.08584,-18.11311z" fill="#929292" stroke="#ffffff" stroke-width="1" stroke-linecap="round"/><path d="M276.64333,183.27555c0,1.07342 -0.89435,1.94361 -1.99759,1.94361c-1.10324,0 -1.99759,-0.87018 -1.99759,-1.94361c0,-1.07342 0.89435,-1.94361 1.99759,-1.94361c1.10324,0 1.99759,0.87019 1.99759,1.94361z" fill="#545454" stroke="#ffffff" stroke-width="1" stroke-linecap="butt"/><g data-paper-data="{&quot;index&quot;:null}"><g><path d="M342.19137,157.40867c19.06145,0 34.5138,14.10868 34.5138,31.51261c0,17.40393 -15.45235,31.51261 -34.5138,31.51261c-19.06144,0 -34.5138,-14.10868 -34.5138,-31.51261c0,-17.40393 15.45235,-31.51261 34.5138,-31.51261z" fill="#fff8c9" stroke="#000000" stroke-width="1" stroke-linecap="butt"/><path d="M309.54011,198.69436c-12.17974,-9.61526 64.98286,1.41078 64.98286,1.41078c0,0 -4.53253,8.72522 -12.51347,14.58839c-5.28174,3.8802 -12.22708,5.74036 -19.81812,5.74036c-10.39435,0 -22.47391,-7.34236 -22.47391,-7.34236c0,0 -2.81053,-1.69931 -4.39281,-4.48057c-0.98394,-1.72954 -2.58139,-2.51434 -3.48052,-4.40754c-0.36307,-0.76449 -1.54595,-2.09446 -1.77114,-3.13533c-0.11233,-0.5192 -0.1918,-2.10447 -0.53289,-2.37374z" fill="#5c5c5c" stroke="#000000" stroke-width="1" stroke-linecap="butt"/><path d="M346.05512,211.55829l3.26115,-14.60997" fill="none" stroke="#515151" stroke-width="1" stroke-linecap="round"/><path d="M350.62073,204.20973c-0.55228,0 -1,-0.44772 -1,-1c0,-0.55228 0.44772,-1 1,-1c0.55228,0 1,0.44772 1,1c0,0.55228 -0.44772,1 -1,1z" fill="#515151" stroke="none" stroke-width="0.5" stroke-linecap="butt"/><path d="M349.57717,208.6449c-0.55228,0 -1,-0.44772 -1,-1c0,-0.55228 0.44772,-1 1,-1c0.55228,0 1,0.44772 1,1c0,0.55228 -0.44772,1 -1,1z" fill="#515151" stroke="none" stroke-width="0.5" stroke-linecap="butt"/><path d="M345.40289,204.73151c-0.55228,0 -1,-0.44772 -1,-1c0,-0.55228 0.44772,-1 1,-1c0.55228,0 1,0.44772 1,1c0,0.55228 -0.44772,1 -1,1z" fill="#515151" stroke="none" stroke-width="0.5" stroke-linecap="butt"/><path d="M343.83754,209.94936c-0.55228,0 -1,-0.44772 -1,-1c0,-0.55228 0.44772,-1 1,-1c0.55228,0 1,0.44772 1,1c0,0.55228 -0.44772,1 -1,1z" fill="#515151" stroke="none" stroke-width="0.5" stroke-linecap="butt"/><path d="M362.20752,183.03602c0,0 1.42751,-0.65223 2.08714,-0.65223c0.59458,0 1.6958,0.65223 1.6958,0.65223" fill="none" stroke="#000000" stroke-width="1" stroke-linecap="round"/><path d="M340.49882,181.14025c0,0 2.14126,-0.97834 3.13071,-0.97834c0.89188,0 2.5437,0.97834 2.5437,0.97834" fill="none" stroke="#000000" stroke-width="1" stroke-linecap="round"/><path d="M311.10064,170.53038c0,0 5.3606,-9.79313 14.14652,-14.95918c6.61296,-3.88837 18.47277,-4.77581 23.12359,-4.79954c3.97469,-0.02028 14.16719,11.22212 14.16719,11.22212l16.05731,6.20713l-7.95587,1.95437c0,0 -20.19524,-1.7495 -31.10872,-1.97806c-8.68023,-0.18178 -28.43001,2.35315 -28.43001,2.35315z" data-paper-data="{&quot;index&quot;:null}" fill="#5c5c5c" stroke="#000000" stroke-width="1" stroke-linecap="round"/></g><g stroke="#ffffff" stroke-width="1" stroke-linecap="round"><path d="M402.94222,198.81033l-0.07453,1.30431h-13.51825l-0.14906,2.16143h-2.34776l-34.65741,2.04032l-18.69823,0.14906l0.01863,0.81985l-8.57119,0.07453l-0.14906,0.52172l-1.26705,0.78259l0.03727,-0.96892l-3.40984,0.26086l-4.99365,3.80114l-2.53409,0.14906l-2.29186,-0.55899l-23.57077,8.06809l-0.70805,-14.64555l24.86576,-1.44406l3.76387,1.30431l4.54646,-1.93783l4.35081,-0.47514l4.58372,-3.6148l22.13602,0.14906l0.07453,-0.93165l1.11798,-0.07453v0.89438h0.70805v0.96892l47.50487,0.88507l0.03727,-2.53409l2.0869,-0.03726l-0.03727,2.60862z" fill="#545454"/><path d="M344.5184,204.14868l0.48446,3.98747l-10.03388,1.41611l-0.89438,-5.10545z" fill="#929292"/><path d="M324.58107,205.75113l0.78259,2.53409l0.59626,-0.07453l-0.40993,-2.60862l3.91293,-0.03727l-0.33539,2.49682l-1.63971,1.04345l-2.98128,0.07453l-1.7515,-1.49064l-0.14906,-1.78877l1.00618,-0.2236z" fill="none"/><path d="M345.14901,201.35302l-13.05941,0.13043" fill="none"/><path d="M389.29179,201.41823l7.63022,-0.03261" fill="none"/></g></g><g data-paper-data="{&quot;index&quot;:null}"><g><path d="M428.66649,110.09306c19.06145,0 34.5138,14.10868 34.5138,31.51261c0,17.40393 -15.45235,31.51261 -34.5138,31.51261c-19.06144,0 -34.5138,-14.10868 -34.5138,-31.51261c0,-17.40393 15.45235,-31.51261 34.5138,-31.51261z" fill="#fff8c9" stroke="#000000" stroke-width="1" stroke-linecap="butt"/><path d="M396.01523,151.37875c-12.17974,-9.61526 64.98286,1.41078 64.98286,1.41078c0,0 -4.53253,8.72522 -12.51347,14.58839c-5.28174,3.8802 -12.22708,5.74036 -19.81812,5.74036c-10.39435,0 -22.47391,-7.34236 -22.47391,-7.34236c0,0 -2.81053,-1.69931 -4.39281,-4.48057c-0.98394,-1.72954 -2.58139,-2.51434 -3.48052,-4.40754c-0.36307,-0.76449 -1.54595,-2.09446 -1.77114,-3.13533c-0.11233,-0.5192 -0.1918,-2.10447 -0.53289,-2.37374z" fill="#5c5c5c" stroke="#000000" stroke-width="1" stroke-linecap="butt"/><path d="M435.79139,149.63271l-3.26115,14.60997" fill="none" stroke="#515151" stroke-width="1" stroke-linecap="round"/><path d="M437.09585,156.89412c-0.55228,0 -1,-0.44772 -1,-1c0,-0.55228 0.44772,-1 1,-1c0.55228,0 1,0.44772 1,1c0,0.55228 -0.44772,1 -1,1z" fill="#515151" stroke="none" stroke-width="0.5" stroke-linecap="butt"/><path d="M436.05229,161.32929c-0.55228,0 -1,-0.44772 -1,-1c0,-0.55228 0.44772,-1 1,-1c0.55228,0 1,0.44772 1,1c0,0.55228 -0.44772,1 -1,1z" fill="#515151" stroke="none" stroke-width="0.5" stroke-linecap="butt"/><path d="M431.87801,157.4159c-0.55228,0 -1,-0.44772 -1,-1c0,-0.55228 0.44772,-1 1,-1c0.55228,0 1,0.44772 1,1c0,0.55228 -0.44772,1 -1,1z" fill="#515151" stroke="none" stroke-width="0.5" stroke-linecap="butt"/><path d="M430.31266,162.63375c-0.55228,0 -1,-0.44772 -1,-1c0,-0.55228 0.44772,-1 1,-1c0.55228,0 1,0.44772 1,1c0,0.55228 -0.44772,1 -1,1z" fill="#515151" stroke="none" stroke-width="0.5" stroke-linecap="butt"/><path d="M448.68264,135.72041c0,0 1.42751,-0.65223 2.08714,-0.65223c0.59458,0 1.6958,0.65223 1.6958,0.65223" fill="none" stroke="#000000" stroke-width="1" stroke-linecap="round"/><path d="M426.97394,133.82464c0,0 2.14126,-0.97834 3.13071,-0.97834c0.89188,0 2.5437,0.97834 2.5437,0.97834" fill="none" stroke="#000000" stroke-width="1" stroke-linecap="round"/><path d="M397.57576,123.21477c0,0 5.3606,-9.79313 14.14652,-14.95918c6.61296,-3.88837 18.47277,-4.77581 23.12359,-4.79954c3.97469,-0.02028 14.16719,11.22212 14.16719,11.22212l16.05731,6.20713l-7.95587,1.95437c0,0 -20.19524,-1.7495 -31.10872,-1.97806c-8.68023,-0.18178 -28.43001,2.35315 -28.43001,2.35315z" data-paper-data="{&quot;index&quot;:null}" fill="#5c5c5c" stroke="#000000" stroke-width="1" stroke-linecap="round"/></g><g stroke="#ffffff" stroke-width="1" stroke-linecap="round"><path d="M489.41734,151.49472l-0.07453,1.30431h-13.51825l-0.14906,2.16143h-2.34776l-34.65741,2.04032l-18.69823,0.14906l0.01863,0.81985l-8.57119,0.07453l-0.14906,0.52172l-1.26705,0.78259l0.03727,-0.96892l-3.40984,0.26086l-4.99365,3.80114l-2.53409,0.14906l-2.29186,-0.55899l-23.57077,8.06809l-0.70805,-14.64555l24.86576,-1.44406l3.76387,1.30431l4.54646,-1.93783l4.35081,-0.47514l4.58372,-3.6148l22.13602,0.14906l0.07453,-0.93165l1.11798,-0.07453v0.89438h0.70805v0.96892l47.50487,0.88507l0.03727,-2.53409l2.0869,-0.03726l-0.03727,2.60862z" fill="#545454"/><path d="M430.99352,156.83307l0.48446,3.98747l-10.03388,1.41611l-0.89438,-5.10545z" fill="#929292"/><path d="M411.05619,158.43552l0.78259,2.53409l0.59626,-0.07453l-0.40993,-2.60862l3.91293,-0.03727l-0.33539,2.49682l-1.63971,1.04345l-2.98128,0.07453l-1.7515,-1.49064l-0.14906,-1.78877l1.00618,-0.2236z" fill="none"/><path d="M431.62413,154.03741l-13.05941,0.13043" fill="none"/><path d="M483.39713,154.07001l-7.63022,0.03261" fill="none"/></g></g><g data-paper-data="{&quot;index&quot;:null}"><g><path d="M341.89977,212.00558c19.06145,0 34.5138,14.10868 34.5138,31.51261c0,17.40393 -15.45235,31.51261 -34.5138,31.51261c-19.06144,0 -34.5138,-14.10868 -34.5138,-31.51261c0,-17.40393 15.45235,-31.51261 34.5138,-31.51261z" fill="#fff8c9" stroke="#000000" stroke-width="1" stroke-linecap="butt"/><path d="M309.24851,253.29127c-12.17974,-9.61526 64.98286,1.41078 64.98286,1.41078c0,0 -4.53253,8.72522 -12.51347,14.58839c-5.28174,3.8802 -12.22708,5.74036 -19.81812,5.74036c-10.39435,0 -22.47391,-7.34236 -22.47391,-7.34236c0,0 -2.81053,-1.69931 -4.39281,-4.48057c-0.98394,-1.72954 -2.58139,-2.51434 -3.48052,-4.40754c-0.36307,-0.76449 -1.54595,-2.09446 -1.77114,-3.13533c-0.11233,-0.5192 -0.1918,-2.10447 -0.53289,-2.37374z" fill="#5c5c5c" stroke="#000000" stroke-width="1" stroke-linecap="butt"/><path d="M349.02467,251.54523l-3.26115,14.60997" fill="none" stroke="#515151" stroke-width="1" stroke-linecap="round"/><path d="M350.32913,258.80664c-0.55228,0 -1,-0.44772 -1,-1c0,-0.55228 0.44772,-1 1,-1c0.55228,0 1,0.44772 1,1c0,0.55228 -0.44772,1 -1,1z" fill="#515151" stroke="none" stroke-width="0.5" stroke-linecap="butt"/><path d="M349.28557,263.24181c-0.55228,0 -1,-0.44772 -1,-1c0,-0.55228 0.44772,-1 1,-1c0.55228,0 1,0.44772 1,1c0,0.55228 -0.44772,1 -1,1z" fill="#515151" stroke="none" stroke-width="0.5" stroke-linecap="butt"/><path d="M345.11129,259.32842c-0.55228,0 -1,-0.44772 -1,-1c0,-0.55228 0.44772,-1 1,-1c0.55228,0 1,0.44772 1,1c0,0.55228 -0.44772,1 -1,1z" fill="#515151" stroke="none" stroke-width="0.5" stroke-linecap="butt"/><path d="M343.54594,264.54627c-0.55228,0 -1,-0.44772 -1,-1c0,-0.55228 0.44772,-1 1,-1c0.55228,0 1,0.44772 1,1c0,0.55228 -0.44772,1 -1,1z" fill="#515151" stroke="none" stroke-width="0.5" stroke-linecap="butt"/><path d="M361.91592,237.63293c0,0 1.42751,-0.65223 2.08714,-0.65223c0.59458,0 1.6958,0.65223 1.6958,0.65223" fill="none" stroke="#000000" stroke-width="1" stroke-linecap="round"/><path d="M340.20722,235.73716c0,0 2.14126,-0.97834 3.13071,-0.97834c0.89188,0 2.5437,0.97834 2.5437,0.97834" fill="none" stroke="#000000" stroke-width="1" stroke-linecap="round"/><path d="M310.80904,225.12729c0,0 5.3606,-9.79313 14.14652,-14.95918c6.61296,-3.88837 18.47277,-4.77581 23.12359,-4.79954c3.97469,-0.02028 14.16719,11.22212 14.16719,11.22212l16.05731,6.20713l-7.95587,1.95437c0,0 -20.19524,-1.7495 -31.10872,-1.97806c-8.68023,-0.18178 -28.43001,2.35315 -28.43001,2.35315z" data-paper-data="{&quot;index&quot;:null}" fill="#5c5c5c" stroke="#000000" stroke-width="1" stroke-linecap="round"/></g><g stroke="#ffffff" stroke-width="1" stroke-linecap="round"><path d="M402.65062,253.40724l-0.07453,1.30431h-13.51825l-0.14906,2.16143h-2.34776l-34.65741,2.04032l-18.69823,0.14906l0.01863,0.81985l-8.57119,0.07453l-0.14906,0.52172l-1.26705,0.78259l0.03727,-0.96892l-3.40984,0.26086l-4.99365,3.80114l-2.53409,0.14906l-2.29186,-0.55899l-23.57077,8.06809l-0.70805,-14.64555l24.86576,-1.44406l3.76387,1.30431l4.54646,-1.93783l4.35081,-0.47514l4.58372,-3.6148l22.13602,0.14906l0.07453,-0.93165l1.11798,-0.07453v0.89438h0.70805v0.96892l47.50487,0.88507l0.03727,-2.53409l2.0869,-0.03726l-0.03727,2.60862z" fill="#545454"/><path d="M344.2268,258.74559l0.48446,3.98747l-10.03388,1.41611l-0.89438,-5.10545z" fill="#929292"/><path d="M324.28947,260.34804l0.78259,2.53409l0.59626,-0.07453l-0.40993,-2.60862l3.91293,-0.03727l-0.33539,2.49682l-1.63971,1.04345l-2.98128,0.07453l-1.7515,-1.49064l-0.14906,-1.78877l1.00618,-0.2236z" fill="none"/><path d="M331.798,256.08036l13.05941,-0.13043" fill="none"/><path d="M396.63041,255.98253l-7.63022,0.03261" fill="none"/></g></g><g><g><path d="M380.88457,303.4067c0,17.40393 -15.45236,31.51261 -34.5138,31.51261c-19.06145,0 -34.5138,-14.10868 -34.5138,-31.51261c0,-17.40393 15.45235,-31.51261 34.5138,-31.51261c19.06145,0 34.5138,14.10868 34.5138,31.51261z" fill="#fff8c9" stroke="#000000" stroke-width="1" stroke-linecap="butt"/><path d="M379.02203,313.17977c-0.34109,0.26927 -0.42056,1.85454 -0.53289,2.37374c-0.22519,1.04087 -1.40807,2.37084 -1.77114,3.13533c-0.89913,1.8932 -2.49658,2.678 -3.48052,4.40754c-1.58228,2.78126 -4.39281,4.48057 -4.39281,4.48057c0,0 -12.07956,7.34236 -22.47391,7.34236c-7.59104,0 -14.53638,-1.86016 -19.81812,-5.74036c-7.98094,-5.86317 -12.51347,-14.58839 -12.51347,-14.58839c0,0 77.1626,-11.02604 64.98286,-1.41078z" fill="#5c5c5c" stroke="#000000" stroke-width="1" stroke-linecap="butt"/><path d="M339.24587,311.43374l3.26115,14.60997" fill="none" stroke="#515151" stroke-width="1" stroke-linecap="round"/><path d="M336.94141,317.69515c0,-0.55228 0.44772,-1 1,-1c0.55228,0 1,0.44772 1,1c0,0.55228 -0.44772,1 -1,1c-0.55228,0 -1,-0.44772 -1,-1z" fill="#515151" stroke="none" stroke-width="0.5" stroke-linecap="butt"/><path d="M337.98497,322.13032c0,-0.55228 0.44772,-1 1,-1c0.55228,0 1,0.44772 1,1c0,0.55228 -0.44772,1 -1,1c-0.55228,0 -1,-0.44772 -1,-1z" fill="#515151" stroke="none" stroke-width="0.5" stroke-linecap="butt"/><path d="M342.15925,318.21693c0,-0.55228 0.44772,-1 1,-1c0.55228,0 1,0.44772 1,1c0,0.55228 -0.44772,1 -1,1c-0.55228,0 -1,-0.44772 -1,-1z" fill="#515151" stroke="none" stroke-width="0.5" stroke-linecap="butt"/><path d="M343.7246,323.43478c0,-0.55228 0.44772,-1 1,-1c0.55228,0 1,0.44772 1,1c0,0.55228 -0.44772,1 -1,1c-0.55228,0 -1,-0.44772 -1,-1z" fill="#515151" stroke="none" stroke-width="0.5" stroke-linecap="butt"/><path d="M322.57168,297.52144c0,0 1.10122,-0.65223 1.6958,-0.65223c0.65963,0 2.08714,0.65223 2.08714,0.65223" fill="none" stroke="#000000" stroke-width="1" stroke-linecap="round"/><path d="M342.38891,295.62567c0,0 1.65182,-0.97834 2.5437,-0.97834c0.98945,0 3.13071,0.97834 3.13071,0.97834" fill="none" stroke="#000000" stroke-width="1" stroke-linecap="round"/><path d="M377.46149,285.01579c0,0 -19.74978,-2.53493 -28.43001,-2.35315c-10.91348,0.22856 -31.10872,1.97806 -31.10872,1.97806l-7.95587,-1.95437l16.05731,-6.20713c0,0 10.1925,-11.2424 14.16719,-11.22212c4.65082,0.02373 16.51063,0.91117 23.12359,4.79954c8.78592,5.16605 14.14652,14.95918 14.14652,14.95918z" data-paper-data="{&quot;index&quot;:null}" fill="#5c5c5c" stroke="#000000" stroke-width="1" stroke-linecap="round"/></g><g stroke="#ffffff" stroke-width="1" stroke-linecap="round"><path d="M286.76585,313.01625l-0.03727,-2.60862l2.0869,0.03726l0.03727,2.53409l47.50487,-0.88507v-0.96892h0.70805v-0.89438l1.11798,0.07453l0.07453,0.93165l22.13602,-0.14906l4.58372,3.6148l4.35081,0.47514l4.54646,1.93783l3.76387,-1.30431l24.86576,1.44406l-0.70805,14.64555l-23.57077,-8.06809l-2.29186,0.55899l-2.53409,-0.14906l-4.99365,-3.80114l-3.40984,-0.26086l0.03727,0.96892l-1.26705,-0.78259l-0.14906,-0.52172l-8.57119,-0.07453l0.01863,-0.81985l-18.69823,-0.14906l-34.65741,-2.04032h-2.34776l-0.14906,-2.16143h-13.51825l-0.07453,-1.30431z" fill="#545454"/><path d="M354.48754,318.93223l-0.89438,5.10545l-10.03388,-1.41611l0.48446,-3.98747z" fill="#929292"/><path d="M364.94998,320.16201l1.00618,0.2236l-0.14906,1.78877l-1.7515,1.49064l-2.98128,-0.07453l-1.63971,-1.04345l-0.33539,-2.49682l3.91293,0.03727l-0.40993,2.60862l0.59626,0.07453l0.78259,-2.53409z" fill="none"/><path d="M356.47254,315.96887l-13.05941,-0.13043" fill="none"/><path d="M299.27035,315.90365l-7.63022,-0.03261" fill="none"/></g></g><g><g><path d="M366.15901,109.43586c0,17.40393 -15.45236,31.51261 -34.5138,31.51261c-19.06145,0 -34.5138,-14.10868 -34.5138,-31.51261c0,-17.40393 15.45235,-31.51261 34.5138,-31.51261c19.06145,0 34.5138,14.10868 34.5138,31.51261z" fill="#fff8c9" stroke="#000000" stroke-width="1" stroke-linecap="butt"/><path d="M364.29647,119.20893c-0.34109,0.26927 -0.42056,1.85454 -0.53289,2.37374c-0.22519,1.04087 -1.40807,2.37084 -1.77114,3.13533c-0.89913,1.8932 -2.49658,2.678 -3.48052,4.40754c-1.58228,2.78126 -4.39281,4.48057 -4.39281,4.48057c0,0 -12.07956,7.34236 -22.47391,7.34236c-7.59104,0 -14.53638,-1.86016 -19.81812,-5.74036c-7.98094,-5.86317 -12.51347,-14.58839 -12.51347,-14.58839c0,0 77.1626,-11.02604 64.98286,-1.41078z" fill="#5c5c5c" stroke="#000000" stroke-width="1" stroke-linecap="butt"/><path d="M324.52031,117.4629l3.26115,14.60997" fill="none" stroke="#515151" stroke-width="1" stroke-linecap="round"/><path d="M322.21585,123.72431c0,-0.55228 0.44772,-1 1,-1c0.55228,0 1,0.44772 1,1c0,0.55228 -0.44772,1 -1,1c-0.55228,0 -1,-0.44772 -1,-1z" fill="#515151" stroke="none" stroke-width="0.5" stroke-linecap="butt"/><path d="M323.25941,128.15948c0,-0.55228 0.44772,-1 1,-1c0.55228,0 1,0.44772 1,1c0,0.55228 -0.44772,1 -1,1c-0.55228,0 -1,-0.44772 -1,-1z" fill="#515151" stroke="none" stroke-width="0.5" stroke-linecap="butt"/><path d="M327.43369,124.24609c0,-0.55228 0.44772,-1 1,-1c0.55228,0 1,0.44772 1,1c0,0.55228 -0.44772,1 -1,1c-0.55228,0 -1,-0.44772 -1,-1z" fill="#515151" stroke="none" stroke-width="0.5" stroke-linecap="butt"/><path d="M328.99904,129.46394c0,-0.55228 0.44772,-1 1,-1c0.55228,0 1,0.44772 1,1c0,0.55228 -0.44772,1 -1,1c-0.55228,0 -1,-0.44772 -1,-1z" fill="#515151" stroke="none" stroke-width="0.5" stroke-linecap="butt"/><path d="M307.84612,103.5506c0,0 1.10122,-0.65223 1.6958,-0.65223c0.65963,0 2.08714,0.65223 2.08714,0.65223" fill="none" stroke="#000000" stroke-width="1" stroke-linecap="round"/><path d="M327.66335,101.65483c0,0 1.65182,-0.97834 2.5437,-0.97834c0.98945,0 3.13071,0.97834 3.13071,0.97834" fill="none" stroke="#000000" stroke-width="1" stroke-linecap="round"/><path d="M362.73593,91.04495c0,0 -19.74978,-2.53493 -28.43001,-2.35315c-10.91348,0.22856 -31.10872,1.97806 -31.10872,1.97806l-7.95587,-1.95437l16.05731,-6.20713c0,0 10.1925,-11.2424 14.16719,-11.22212c4.65082,0.02373 16.51063,0.91117 23.12359,4.79954c8.78592,5.16605 14.14652,14.95918 14.14652,14.95918z" data-paper-data="{&quot;index&quot;:null}" fill="#5c5c5c" stroke="#000000" stroke-width="1" stroke-linecap="round"/></g><g stroke="#ffffff" stroke-width="1" stroke-linecap="round"><path d="M272.04029,119.04541l-0.03727,-2.60862l2.0869,0.03726l0.03727,2.53409l47.50487,-0.88507v-0.96892h0.70805v-0.89438l1.11798,0.07453l0.07453,0.93165l22.13602,-0.14906l4.58372,3.6148l4.35081,0.47514l4.54646,1.93783l3.76387,-1.30431l24.86576,1.44406l-0.70805,14.64555l-23.57077,-8.06809l-2.29186,0.55899l-2.53409,-0.14906l-4.99365,-3.80114l-3.40984,-0.26086l0.03727,0.96892l-1.26705,-0.78259l-0.14906,-0.52172l-8.57119,-0.07453l0.01863,-0.81985l-18.69823,-0.14906l-34.65741,-2.04032h-2.34776l-0.14906,-2.16143h-13.51825l-0.07453,-1.30431z" fill="#545454"/><path d="M339.76198,124.96139l-0.89438,5.10545l-10.03388,-1.41611l0.48446,-3.98747z" fill="#929292"/><path d="M350.22442,126.19117l1.00618,0.2236l-0.14906,1.78877l-1.7515,1.49064l-2.98128,-0.07453l-1.63971,-1.04345l-0.33539,-2.49682l3.91293,0.03727l-0.40993,2.60862l0.59626,0.07453l0.78259,-2.53409z" fill="none"/><path d="M341.74698,121.99803l-13.05941,-0.13043" fill="none"/><path d="M276.91457,121.9002l7.63022,0.03261" fill="none"/></g></g><g><g><path d="M270.81596,254.23003c0,17.40393 -15.45236,31.51261 -34.5138,31.51261c-19.06145,0 -34.5138,-14.10868 -34.5138,-31.51261c0,-17.40393 15.45235,-31.51261 34.5138,-31.51261c19.06145,0 34.5138,14.10868 34.5138,31.51261z" fill="#fff8c9" stroke="#000000" stroke-width="1" stroke-linecap="butt"/><path d="M268.95342,264.0031c-0.34109,0.26927 -0.42056,1.85454 -0.53289,2.37374c-0.22519,1.04087 -1.40807,2.37084 -1.77114,3.13533c-0.89913,1.8932 -2.49658,2.678 -3.48052,4.40754c-1.58228,2.78126 -4.39281,4.48057 -4.39281,4.48057c0,0 -12.07956,7.34236 -22.47391,7.34236c-7.59104,0 -14.53638,-1.86016 -19.81812,-5.74036c-7.98094,-5.86317 -12.51347,-14.58839 -12.51347,-14.58839c0,0 77.1626,-11.02604 64.98286,-1.41078z" fill="#5c5c5c" stroke="#000000" stroke-width="1" stroke-linecap="butt"/><path d="M229.17726,262.25707l3.26115,14.60997" fill="none" stroke="#515151" stroke-width="1" stroke-linecap="round"/><path d="M226.8728,268.51848c0,-0.55228 0.44772,-1 1,-1c0.55228,0 1,0.44772 1,1c0,0.55228 -0.44772,1 -1,1c-0.55228,0 -1,-0.44772 -1,-1z" fill="#515151" stroke="none" stroke-width="0.5" stroke-linecap="butt"/><path d="M227.91636,272.95365c0,-0.55228 0.44772,-1 1,-1c0.55228,0 1,0.44772 1,1c0,0.55228 -0.44772,1 -1,1c-0.55228,0 -1,-0.44772 -1,-1z" fill="#515151" stroke="none" stroke-width="0.5" stroke-linecap="butt"/><path d="M232.09064,269.04026c0,-0.55228 0.44772,-1 1,-1c0.55228,0 1,0.44772 1,1c0,0.55228 -0.44772,1 -1,1c-0.55228,0 -1,-0.44772 -1,-1z" fill="#515151" stroke="none" stroke-width="0.5" stroke-linecap="butt"/><path d="M233.65599,274.25811c0,-0.55228 0.44772,-1 1,-1c0.55228,0 1,0.44772 1,1c0,0.55228 -0.44772,1 -1,1c-0.55228,0 -1,-0.44772 -1,-1z" fill="#515151" stroke="none" stroke-width="0.5" stroke-linecap="butt"/><path d="M212.50307,248.34477c0,0 1.10122,-0.65223 1.6958,-0.65223c0.65963,0 2.08714,0.65223 2.08714,0.65223" fill="none" stroke="#000000" stroke-width="1" stroke-linecap="round"/><path d="M232.3203,246.449c0,0 1.65182,-0.97834 2.5437,-0.97834c0.98945,0 3.13071,0.97834 3.13071,0.97834" fill="none" stroke="#000000" stroke-width="1" stroke-linecap="round"/><path d="M267.39288,235.83912c0,0 -19.74978,-2.53493 -28.43001,-2.35315c-10.91348,0.22856 -31.10872,1.97806 -31.10872,1.97806l-7.95587,-1.95437l16.05731,-6.20713c0,0 10.1925,-11.2424 14.16719,-11.22212c4.65082,0.02373 16.51063,0.91117 23.12359,4.79954c8.78592,5.16605 14.14652,14.95918 14.14652,14.95918z" data-paper-data="{&quot;index&quot;:null}" fill="#5c5c5c" stroke="#000000" stroke-width="1" stroke-linecap="round"/></g><g stroke="#ffffff" stroke-width="1" stroke-linecap="round"><path d="M176.69724,263.83957l-0.03727,-2.60862l2.0869,0.03726l0.03727,2.53409l47.50487,-0.88507v-0.96892h0.70805v-0.89438l1.11798,0.07453l0.07453,0.93165l22.13602,-0.14906l4.58372,3.6148l4.35081,0.47514l4.54646,1.93783l3.76387,-1.30431l24.86576,1.44406l-0.70805,14.64555l-23.57077,-8.06809l-2.29186,0.55899l-2.53409,-0.14906l-4.99365,-3.80114l-3.40984,-0.26086l0.03727,0.96892l-1.26705,-0.78259l-0.14906,-0.52172l-8.57119,-0.07453l0.01863,-0.81985l-18.69823,-0.14906l-34.65741,-2.04032h-2.34776l-0.14906,-2.16143h-13.51825l-0.07453,-1.30431z" fill="#545454"/><path d="M244.41893,269.75555l-0.89438,5.10545l-10.03388,-1.41611l0.48446,-3.98747z" fill="#929292"/><path d="M254.88137,270.98533l1.00618,0.2236l-0.14906,1.78877l-1.7515,1.49064l-2.98128,-0.07453l-1.63971,-1.04345l-0.33539,-2.49682l3.91293,0.03727l-0.40993,2.60862l0.59626,0.07453l0.78259,-2.53409z" fill="none"/><path d="M246.40393,266.79219l-13.05941,-0.13043" fill="none"/><path d="M189.20174,266.72697l-7.63022,-0.03261" fill="none"/></g></g><path d="M-59,383v-406h598v406z" fill-opacity="0.78431" fill="#000000" stroke="#000000" stroke-width="2" stroke-linecap="butt"/></g></g></svg>