<svg version="1.1" xmlns="http://www.w3.org/2000/svg" xmlns:xlink="http://www.w3.org/1999/xlink" width="115.79904" height="18.04147" viewBox="0,0,115.79904,18.04147"><g transform="translate(-182.10896,-170.99845)"><g data-paper-data="{&quot;isPaintingLayer&quot;:true}" fill-rule="nonzero" stroke="#ffffff" stroke-width="1" stroke-linejoin="miter" stroke-miterlimit="10" stroke-dasharray="" stroke-dashoffset="0" style="mix-blend-mode: normal"><path d="M294.79925,176.44788l-12.65951,0.12114" data-paper-data="{&quot;index&quot;:null}" fill="none" stroke-linecap="round"/><path d="M297.38981,174.50892l-0.04897,1.32226l-7.44384,-0.04897l-0.04897,1.32226h-1.42021l-0.19589,-1.27329l-5.63185,-0.09794l-0.83253,0.34281h-12.78186l-0.41627,0.93048l-8.71713,0.14692l-13.01448,0.22038l-10.82295,1.61609l-1.46918,0.39178l-1.37124,0.04897l-0.09795,-0.39178l-18.0709,0.09795l-0.63665,-0.83253l-0.68562,0.09795l-0.04897,0.88151l-4.99521,0.68562l-4.24837,3.42808l-4.60343,0.34281l-2.69349,1.0774l-2.54658,0.19589l-11.30044,3.47706l-0.63664,-0.44076l0.04897,-10.48014l0.73459,-0.34281l17.72809,-0.5387l2.35069,1.12637l7.59076,-2.73023l-1.12637,-0.44075l-0.04897,-1.46918l1.51815,-0.24486l0.19589,-0.78356l13.83477,0.14692l0.58767,-0.34281h1.27329l0.19589,0.29384l8.71713,0.04897l0.04897,-0.39178l0.48972,0.04897l0.09795,-0.29384l5.43596,0.09795l0.34281,-0.19589l0.48973,-0.04897l0.5387,0.24486l0.19589,0.48973l23.83743,-0.04897l0.5387,0.44075l14.88768,0.19589l0.73459,0.73459l0.34281,0.04897l0.48973,0.93048l4.97061,0.04897l0.04897,-2.39966l1.71404,-0.14692l0.09795,2.25274z" data-paper-data="{&quot;index&quot;:null}" fill="#545454" stroke-linecap="round"/><path d="M263.3782,173.56621h1.71404" data-paper-data="{&quot;index&quot;:null}" fill="none" stroke-linecap="round"/><path d="M261.60978,173.52264h-1.71404" data-paper-data="{&quot;index&quot;:null}" fill="none" stroke-linecap="round"/><path d="M256.65814,173.52805h1.71404" data-paper-data="{&quot;index&quot;:null}" fill="none" stroke-linecap="round"/><path d="M253.46951,173.53345h1.71404" data-paper-data="{&quot;index&quot;:null}" fill="none" stroke-linecap="round"/><path d="M280.65329,173.96887c-0.14124,0 -0.25574,-0.1145 -0.25574,-0.25574c0,-0.14124 0.1145,-0.25574 0.25574,-0.25574c0.14124,0 0.25574,0.1145 0.25574,0.25574c0,0.14124 -0.1145,0.25574 -0.25574,0.25574z" data-paper-data="{&quot;index&quot;:null}" fill="#ffffff" stroke-linecap="butt"/><path d="M279.08617,173.9199c-0.14124,0 -0.25574,-0.1145 -0.25574,-0.25574c0,-0.14124 0.1145,-0.25574 0.25574,-0.25574c0.14124,0 0.25574,0.1145 0.25574,0.25574c0,0.14124 -0.1145,0.25574 -0.25574,0.25574z" data-paper-data="{&quot;index&quot;:null}" fill="#ffffff" stroke-linecap="butt"/><path d="M277.51905,173.9199c-0.14124,0 -0.25574,-0.1145 -0.25574,-0.25574c0,-0.14124 0.1145,-0.25574 0.25574,-0.25574c0.14124,0 0.25574,0.1145 0.25574,0.25574c0,0.14124 -0.1145,0.25574 -0.25574,0.25574z" data-paper-data="{&quot;index&quot;:null}" fill="#ffffff" stroke-linecap="butt"/><path d="M276.14781,173.87092c-0.14124,0 -0.25574,-0.1145 -0.25574,-0.25574c0,-0.14124 0.1145,-0.25574 0.25574,-0.25574c0.14124,0 0.25574,0.1145 0.25574,0.25574c0,0.14124 -0.1145,0.25574 -0.25574,0.25574z" data-paper-data="{&quot;index&quot;:null}" fill="#ffffff" stroke-linecap="butt"/><path d="M274.53171,173.87092c-0.14124,0 -0.25574,-0.1145 -0.25574,-0.25574c0,-0.14124 0.1145,-0.25574 0.25574,-0.25574c0.14124,0 0.25574,0.1145 0.25574,0.25574c0,0.14124 -0.1145,0.25574 -0.25574,0.25574z" data-paper-data="{&quot;index&quot;:null}" fill="#ffffff" stroke-linecap="butt"/><path d="M273.20945,173.82195c-0.14124,0 -0.25574,-0.1145 -0.25574,-0.25574c0,-0.14124 0.1145,-0.25574 0.25574,-0.25574c0.14124,0 0.25574,0.1145 0.25574,0.25574c0,0.14124 -0.1145,0.25574 -0.25574,0.25574z" data-paper-data="{&quot;index&quot;:null}" fill="#ffffff" stroke-linecap="butt"/><path d="M271.83822,173.82195c-0.14124,0 -0.25574,-0.1145 -0.25574,-0.25574c0,-0.14124 0.1145,-0.25574 0.25574,-0.25574c0.14124,0 0.25574,0.1145 0.25574,0.25574c0,0.14124 -0.1145,0.25574 -0.25574,0.25574z" data-paper-data="{&quot;index&quot;:null}" fill="#ffffff" stroke-linecap="butt"/><path d="M232.95542,179.0676l0.06057,5.87547l-7.57148,1.27201l-0.48457,-3.45259l0.06057,-3.69488z" data-paper-data="{&quot;index&quot;:null}" fill="#929292" stroke-linecap="round"/><path d="M218.66046,179.18876l-0.54515,2.60459l-1.09029,0.48457l-3.57374,0.18172l-0.66629,-1.5143l0.84801,-1.39315l0.18172,-1.15087l0.60572,-0.12114l0.60572,0.84801h0.60572l-0.54515,1.75658l0.78743,0.18172l0.66629,-1.9383z" data-paper-data="{&quot;index&quot;:null}" fill="none" stroke-linecap="round"/></g></g></svg>