<svg version="1.1" xmlns="http://www.w3.org/2000/svg" xmlns:xlink="http://www.w3.org/1999/xlink" width="70.0276" height="70.82922" viewBox="0,0,70.0276,70.82922"><g transform="translate(-204.9862,-144.58539)"><g data-paper-data="{&quot;isPaintingLayer&quot;:true}" fill-rule="nonzero" stroke-linejoin="miter" stroke-miterlimit="10" stroke-dasharray="" stroke-dashoffset="0" style="mix-blend-mode: normal"><path d="M240,151.88939c19.06145,0 34.5138,14.10868 34.5138,31.51261c0,17.40393 -15.45235,31.51261 -34.5138,31.51261c-19.06144,0 -34.5138,-14.10868 -34.5138,-31.51261c0,-17.40393 15.45235,-31.51261 34.5138,-31.51261z" data-paper-data="{&quot;index&quot;:null}" fill="#fff8c9" stroke="#000000" stroke-width="1" stroke-linecap="butt"/><path d="M207.34875,193.17508c-12.17974,-9.61526 64.98286,1.41078 64.98286,1.41078c0,0 -4.53253,8.72522 -12.51347,14.58839c-5.28174,3.8802 -12.22708,5.74036 -19.81812,5.74036c-10.39435,0 -22.47391,-7.34236 -22.47391,-7.34236c0,0 -2.81053,-1.69931 -4.39281,-4.48057c-0.98394,-1.72954 -2.58139,-2.51434 -3.48052,-4.40754c-0.36307,-0.76449 -1.54595,-2.09446 -1.77114,-3.13533c-0.11233,-0.5192 -0.1918,-2.10447 -0.53289,-2.37374z" data-paper-data="{&quot;index&quot;:null}" fill="#2f5023" stroke="#000000" stroke-width="1" stroke-linecap="butt"/><path d="M243.86375,206.03901l3.26115,-14.60997" data-paper-data="{&quot;index&quot;:null}" fill="none" stroke="#000000" stroke-width="1" stroke-linecap="round"/><path d="M248.42936,198.69045c-0.55228,0 -1,-0.44772 -1,-1c0,-0.55228 0.44772,-1 1,-1c0.55228,0 1,0.44772 1,1c0,0.55228 -0.44772,1 -1,1z" data-paper-data="{&quot;index&quot;:null}" fill="#93b04d" stroke="none" stroke-width="0.5" stroke-linecap="butt"/><path d="M247.3858,203.12562c-0.55228,0 -1,-0.44772 -1,-1c0,-0.55228 0.44772,-1 1,-1c0.55228,0 1,0.44772 1,1c0,0.55228 -0.44772,1 -1,1z" data-paper-data="{&quot;index&quot;:null}" fill="#93b04d" stroke="none" stroke-width="0.5" stroke-linecap="butt"/><path d="M243.21152,199.21223c-0.55228,0 -1,-0.44772 -1,-1c0,-0.55228 0.44772,-1 1,-1c0.55228,0 1,0.44772 1,1c0,0.55228 -0.44772,1 -1,1z" data-paper-data="{&quot;index&quot;:null}" fill="#93b04d" stroke="none" stroke-width="0.5" stroke-linecap="butt"/><path d="M241.64617,204.43008c-0.55228,0 -1,-0.44772 -1,-1c0,-0.55228 0.44772,-1 1,-1c0.55228,0 1,0.44772 1,1c0,0.55228 -0.44772,1 -1,1z" data-paper-data="{&quot;index&quot;:null}" fill="#93b04d" stroke="none" stroke-width="0.5" stroke-linecap="butt"/><path d="M260.01615,177.51674c0,0 1.42751,-0.65223 2.08714,-0.65223c0.59458,0 1.6958,0.65223 1.6958,0.65223" data-paper-data="{&quot;index&quot;:null}" fill="none" stroke="#000000" stroke-width="1" stroke-linecap="round"/><path d="M238.30745,175.62097c0,0 2.14126,-0.97834 3.13071,-0.97834c0.89188,0 2.5437,0.97834 2.5437,0.97834" data-paper-data="{&quot;index&quot;:null}" fill="none" stroke="#000000" stroke-width="1" stroke-linecap="round"/><path d="M266.65801,165.05318c0,0 -12.43806,-3.96675 -23.35154,-3.73819c-10.91348,0.22856 -28.56931,1.89147 -28.56931,1.89147c0,0 -0.1995,-1.56728 1.26773,-3.44911c1.27588,-1.63641 4.13133,-3.51068 5.45338,-4.79904c2.81031,-2.73869 10.23803,-8.27881 10.23803,-8.27881c0,0 13.74054,-3.70563 20.3535,0.18274c8.78592,5.16605 14.6082,18.19094 14.6082,18.19094z" data-paper-data="{&quot;index&quot;:null}" fill="#2f5023" stroke="#000000" stroke-width="1" stroke-linecap="round"/><path d="M247.08623,149.76555l3.81846,7.74602l-8.50971,-4.90945l9.3825,-0.1091l-7.85512,5.23674z" data-paper-data="{&quot;index&quot;:null}" fill="#ff0000" stroke="#ff0000" stroke-width="1" stroke-linecap="round"/></g></g></svg>