<svg version="1.1" xmlns="http://www.w3.org/2000/svg" xmlns:xlink="http://www.w3.org/1999/xlink" width="582" height="420" viewBox="0,0,582,420"><g transform="translate(51,30)"><g data-paper-data="{&quot;isPaintingLayer&quot;:true}" fill-rule="nonzero" stroke-linejoin="miter" stroke-miterlimit="10" stroke-dasharray="" stroke-dashoffset="0" style="mix-blend-mode: normal"><path d="M-51,390v-420h582v420z" fill="#ededed" stroke="none" stroke-width="NaN" stroke-linecap="butt"/><g fill="#ededed" stroke-width="1"><path d="M191.79782,299.79767v-50.19096h58.9198v50.19096z" stroke="none" stroke-linecap="butt"/><g stroke="#000000" stroke-linecap="round"><path d="M219.6225,276.03267l-2.26208,-2.71444"/><path d="M221.53938,276.08615v-2.71172"/><path d="M225.15502,273.67571l-1.20524,2.41044"/></g></g><g fill="#ededed" stroke-width="1"><path d="M354.45548,208.70157v-50.19096h58.9198v50.19096z" stroke="none" stroke-linecap="butt"/><g stroke="#000000" stroke-linecap="round"><path d="M382.28016,184.93657l-2.26208,-2.71444"/><path d="M384.19704,182.27833v2.71172"/><path d="M387.81268,182.57961l-1.20524,2.41044"/></g></g><g fill="#ededed" stroke-width="1"><path d="M69.66569,294.78265v-50.19096h58.9198v50.19096z" stroke="none" stroke-linecap="butt"/><g stroke="#000000" stroke-linecap="round"><path d="M97.49037,271.01765l-2.26208,-2.71444"/><path d="M99.40725,271.07113v-2.71172"/><path d="M103.02289,268.66069l-1.20524,2.41044"/></g></g><g fill="#ededed" stroke-width="1"><path d="M296.88791,290.77365v-50.19096h58.9198v50.19096z" stroke="none" stroke-linecap="butt"/><g stroke="#000000" stroke-linecap="round"><path d="M324.71259,267.00865l-2.26208,-2.71444"/><path d="M326.62947,264.35041v2.71172"/><path d="M330.24511,264.65169l-1.20524,2.41044"/></g></g><g fill="#ededed" stroke-width="1"><path d="M277.86389,133.61148v-50.19096h58.9198v50.19096z" stroke="none" stroke-linecap="butt"/><g stroke="#000000" stroke-linecap="round"><path d="M305.68857,109.84648l-2.26208,-2.71444"/><path d="M307.60545,107.18824v2.71172"/><path d="M311.22109,107.48952l-1.20524,2.41044"/></g></g><g fill="#ededed" stroke-width="1"><path d="M159.48905,223.1135v-50.19096h58.9198v50.19096z" stroke="none" stroke-linecap="butt"/><g stroke="#000000" stroke-linecap="round"><path d="M187.31373,199.3485l-2.26208,-2.71444"/><path d="M189.23061,196.69026v2.71172"/><path d="M191.64101,199.40198l1.20524,-2.41044"/></g></g><g fill="#ededed" stroke-width="1"><path d="M334.41043,73.04091v-50.19096h58.9198v50.19096z" stroke="none" stroke-linecap="butt"/><g stroke="#000000" stroke-linecap="round"><path d="M362.23511,49.27591l-2.26208,-2.71444"/><path d="M364.15199,46.61767v2.71172"/><path d="M367.76763,46.91895l-1.20524,2.41044"/></g></g><g fill="#ededed" stroke-width="1"><path d="M247.81884,219.18205v-50.19096h58.9198v50.19096z" stroke="none" stroke-linecap="butt"/><g stroke="#000000" stroke-linecap="round"><path d="M273.38144,192.70261l2.26208,2.71444"/><path d="M277.5604,195.47053v-2.71172"/><path d="M279.9708,195.47053l1.20524,-2.41044"/></g></g><g fill="#ededed" stroke-width="1"><path d="M141.70773,135.59347v-50.19096h58.9198v50.19096z" stroke="none" stroke-linecap="butt"/><g stroke="#000000" stroke-linecap="round"><path d="M169.53241,111.82847l-2.26208,-2.71444"/><path d="M171.44929,109.17023v2.71172"/><path d="M175.06493,109.47151l-1.20524,2.41044"/></g></g><path d="M141.86311,198.04031c19.06145,0 34.5138,14.10868 34.5138,31.51261c0,17.40393 -15.45235,31.51261 -34.5138,31.51261c-19.06144,0 -34.5138,-14.10868 -34.5138,-31.51261c0,-17.40393 15.45235,-31.51261 34.5138,-31.51261z" fill="#fff8c9" stroke="#000000" stroke-width="1" stroke-linecap="butt"/><path d="M109.21185,239.326c-12.17974,-9.61526 64.98286,1.41078 64.98286,1.41078c0,0 -4.53253,8.72522 -12.51347,14.58839c-5.28174,3.8802 -12.22708,5.74036 -19.81812,5.74036c-10.39435,0 -22.47391,-7.34236 -22.47391,-7.34236c0,0 -2.81053,-1.69931 -4.39281,-4.48057c-0.98394,-1.72954 -2.58139,-2.51434 -3.48052,-4.40754c-0.36307,-0.76449 -1.54595,-2.09446 -1.77114,-3.13533c-0.11233,-0.5192 -0.1918,-2.10447 -0.53289,-2.37374z" fill="#4d5d29" stroke="#000000" stroke-width="1" stroke-linecap="butt"/><path d="M174.53066,213.41262c0,0 -19.74978,-2.53493 -28.43001,-2.35315c-10.91348,0.22856 -34.10947,2.35315 -34.10947,2.35315l-1.57928,-1.57928c0,0 2.80333,-6.6443 9.68072,-11.83354c4.79485,-3.61789 13.19325,-6.36618 17.16794,-6.3459c4.65082,0.02373 16.51063,0.91117 23.12359,4.79954c8.78592,5.16605 14.14652,14.95918 14.14652,14.95918z" fill="#4d5d29" stroke="#000000" stroke-width="1" stroke-linecap="round"/><path d="M148.98801,237.57996l-3.26115,14.60997" fill="none" stroke="#000000" stroke-width="1" stroke-linecap="round"/><path d="M150.29247,244.84137c-0.55228,0 -1,-0.44772 -1,-1c0,-0.55228 0.44772,-1 1,-1c0.55228,0 1,0.44772 1,1c0,0.55228 -0.44772,1 -1,1z" fill="#93b04d" stroke="none" stroke-width="0.5" stroke-linecap="butt"/><path d="M149.24891,249.27654c-0.55228,0 -1,-0.44772 -1,-1c0,-0.55228 0.44772,-1 1,-1c0.55228,0 1,0.44772 1,1c0,0.55228 -0.44772,1 -1,1z" fill="#93b04d" stroke="none" stroke-width="0.5" stroke-linecap="butt"/><path d="M145.07463,245.36315c-0.55228,0 -1,-0.44772 -1,-1c0,-0.55228 0.44772,-1 1,-1c0.55228,0 1,0.44772 1,1c0,0.55228 -0.44772,1 -1,1z" fill="#93b04d" stroke="none" stroke-width="0.5" stroke-linecap="butt"/><path d="M143.50928,250.581c-0.55228,0 -1,-0.44772 -1,-1c0,-0.55228 0.44772,-1 1,-1c0.55228,0 1,0.44772 1,1c0,0.55228 -0.44772,1 -1,1z" fill="#93b04d" stroke="none" stroke-width="0.5" stroke-linecap="butt"/><path d="M161.87926,223.66766c0,0 1.42751,-0.65223 2.08714,-0.65223c0.59458,0 1.6958,0.65223 1.6958,0.65223" fill="none" stroke="#000000" stroke-width="1" stroke-linecap="round"/><path d="M140.17056,221.77189c0,0 2.14126,-0.97834 3.13071,-0.97834c0.89188,0 2.5437,0.97834 2.5437,0.97834" fill="none" stroke="#000000" stroke-width="1" stroke-linecap="round"/><g><g><path d="M410.0198,186.48142c0,17.40393 -15.45236,31.51261 -34.5138,31.51261c-19.06145,0 -34.5138,-14.10868 -34.5138,-31.51261c0,-17.40393 15.45235,-31.51261 34.5138,-31.51261c19.06145,0 34.5138,14.10868 34.5138,31.51261z" fill="#fff8c9" stroke="#000000" stroke-width="1" stroke-linecap="butt"/><path d="M408.15726,196.25449c-0.34109,0.26927 -0.42056,1.85454 -0.53289,2.37374c-0.22519,1.04087 -1.40807,2.37084 -1.77114,3.13533c-0.89913,1.8932 -2.49658,2.678 -3.48052,4.40754c-1.58228,2.78126 -4.39281,4.48057 -4.39281,4.48057c0,0 -12.07956,7.34236 -22.47391,7.34236c-7.59104,0 -14.53638,-1.86016 -19.81812,-5.74036c-7.98094,-5.86317 -12.51347,-14.58839 -12.51347,-14.58839c0,0 77.1626,-11.02604 64.98286,-1.41078z" fill="#ffffff" stroke="#000000" stroke-width="1" stroke-linecap="butt"/><path d="M342.83844,170.34112c0,0 5.3606,-9.79313 14.14652,-14.95918c6.61296,-3.88837 18.47277,-4.77581 23.12359,-4.79954c3.97469,-0.02028 12.37309,2.72801 17.16794,6.3459c6.87739,5.18924 9.68072,11.83354 9.68072,11.83354l-1.57928,1.57928c0,0 -23.19599,-2.12459 -34.10947,-2.35315c-8.68023,-0.18178 -28.43001,2.35315 -28.43001,2.35315z" fill="#0055a2" stroke="#000000" stroke-width="1" stroke-linecap="round"/><path d="M368.3811,194.50846l3.26115,14.60997" fill="none" stroke="#000000" stroke-width="1" stroke-linecap="round"/><path d="M366.07664,200.76987c0,-0.55228 0.44772,-1 1,-1c0.55228,0 1,0.44772 1,1c0,0.55228 -0.44772,1 -1,1c-0.55228,0 -1,-0.44772 -1,-1z" fill="#0055a2" stroke="none" stroke-width="0.5" stroke-linecap="butt"/><path d="M367.1202,205.20504c0,-0.55228 0.44772,-1 1,-1c0.55228,0 1,0.44772 1,1c0,0.55228 -0.44772,1 -1,1c-0.55228,0 -1,-0.44772 -1,-1z" fill="#0055a2" stroke="none" stroke-width="0.5" stroke-linecap="butt"/><path d="M371.29448,201.29165c0,-0.55228 0.44772,-1 1,-1c0.55228,0 1,0.44772 1,1c0,0.55228 -0.44772,1 -1,1c-0.55228,0 -1,-0.44772 -1,-1z" fill="#0055a2" stroke="none" stroke-width="0.5" stroke-linecap="butt"/><path d="M372.85983,206.5095c0,-0.55228 0.44772,-1 1,-1c0.55228,0 1,0.44772 1,1c0,0.55228 -0.44772,1 -1,1c-0.55228,0 -1,-0.44772 -1,-1z" fill="#0055a2" stroke="none" stroke-width="0.5" stroke-linecap="butt"/><path d="M351.70691,180.59616c0,0 1.10122,-0.65223 1.6958,-0.65223c0.65963,0 2.08714,0.65223 2.08714,0.65223" fill="none" stroke="#000000" stroke-width="1" stroke-linecap="round"/><path d="M371.52414,178.70039c0,0 1.65182,-0.97834 2.5437,-0.97834c0.98945,0 3.13071,0.97834 3.13071,0.97834" fill="none" stroke="#000000" stroke-width="1" stroke-linecap="round"/><path d="M375.35475,164.77016l-7.85511,-5.23674l9.3825,0.1091l-8.50971,4.90945l3.81846,-7.74602z" fill="#ff0000" stroke="#ff0000" stroke-width="1" stroke-linecap="round"/></g><g stroke="#ffffff" stroke-width="1"><path d="M325.86439,191.73492l-12.65951,-0.12114" fill="none" stroke-linecap="round"/><path d="M316.49114,189.4667l0.09795,-2.25274l1.71404,0.14692l0.04897,2.39966l4.97061,-0.04898l0.48973,-0.93048l0.34281,-0.04898l0.73459,-0.73459l14.88768,-0.19589l0.5387,-0.44075l23.83743,0.04897l0.19589,-0.48972l0.53869,-0.24487l0.48973,0.04898l0.3428,0.19589l5.43596,-0.09795l0.09794,0.29384l0.48973,-0.04897l0.04897,0.39178l8.71713,-0.04897l0.19589,-0.29384h1.27329l0.58767,0.34281l13.83477,-0.14692l0.19589,0.78356l1.51815,0.24486l-0.04897,1.46918l-1.12637,0.44075l7.59075,2.73023l2.35069,-1.12637l17.72809,0.5387l0.73459,0.3428l0.04897,10.48014l-0.63664,0.44075l-11.30044,-3.47705l-2.54658,-0.1959l-2.69349,-1.07739l-4.60343,-0.34281l-4.24838,-3.42808l-4.99521,-0.68562l-0.04897,-0.88151l-0.68562,-0.09795l-0.63665,0.83254l-18.0709,-0.09794l-0.09794,0.39178l-1.37124,-0.04897l-1.46918,-0.39178l-10.82295,-1.6161l-13.01448,-0.22038l-8.71713,-0.14692l-0.41626,-0.93048h-12.78186l-0.83254,-0.3428l-5.63185,0.09794l-0.19589,1.27329h-1.42021l-0.04897,-1.32226l-7.44384,0.04897l-0.04897,-1.32226z" fill="#545454" stroke-linecap="round"/><path d="M342.91188,188.7321h1.71404" fill="none" stroke-linecap="round"/><path d="M346.39435,188.68853h1.71404" fill="none" stroke-linecap="round"/><path d="M349.63194,188.69394h1.71404" fill="none" stroke-linecap="round"/><path d="M354.53461,188.69934h-1.71404" fill="none" stroke-linecap="round"/><path d="M327.09509,188.87902c0,-0.14124 0.11449,-0.25574 0.25573,-0.25574c0.14124,0 0.25574,0.1145 0.25574,0.25574c0,0.14124 -0.1145,0.25574 -0.25574,0.25574c-0.14124,0 -0.25573,-0.1145 -0.25573,-0.25574z" fill="#ffffff" stroke-linecap="butt"/><path d="M328.66221,188.83005c0,-0.14124 0.1145,-0.25574 0.25574,-0.25574c0.14124,0 0.25574,0.1145 0.25574,0.25574c0,0.14124 -0.1145,0.25574 -0.25574,0.25574c-0.14124,0 -0.25574,-0.1145 -0.25574,-0.25574z" fill="#ffffff" stroke-linecap="butt"/><path d="M330.22934,188.83005c0,-0.14124 0.1145,-0.25574 0.25574,-0.25574c0.14124,0 0.25574,0.1145 0.25574,0.25574c0,0.14124 -0.1145,0.25574 -0.25574,0.25574c-0.14124,0 -0.25574,-0.1145 -0.25574,-0.25574z" fill="#ffffff" stroke-linecap="butt"/><path d="M331.60057,188.78107c0,-0.14124 0.1145,-0.25574 0.25574,-0.25574c0.14124,0 0.25573,0.1145 0.25573,0.25574c0,0.14124 -0.11449,0.25574 -0.25573,0.25574c-0.14124,0 -0.25574,-0.1145 -0.25574,-0.25574z" fill="#ffffff" stroke-linecap="butt"/><path d="M333.21667,188.78107c0,-0.14124 0.1145,-0.25574 0.25574,-0.25574c0.14124,0 0.25574,0.1145 0.25574,0.25574c0,0.14124 -0.1145,0.25574 -0.25574,0.25574c-0.14124,0 -0.25574,-0.1145 -0.25574,-0.25574z" fill="#ffffff" stroke-linecap="butt"/><path d="M334.53893,188.7321c0,-0.14124 0.11449,-0.25574 0.25574,-0.25574c0.14124,0 0.25574,0.1145 0.25574,0.25574c0,0.14124 -0.1145,0.25574 -0.25574,0.25574c-0.14124,0 -0.25574,-0.1145 -0.25574,-0.25574z" fill="#ffffff" stroke-linecap="butt"/><path d="M335.91016,188.7321c0,-0.14124 0.1145,-0.25574 0.25574,-0.25574c0.14124,0 0.25574,0.1145 0.25574,0.25574c0,0.14124 -0.1145,0.25574 -0.25574,0.25574c-0.14124,0 -0.25574,-0.1145 -0.25574,-0.25574z" fill="#ffffff" stroke-linecap="butt"/><path d="M382.98361,194.23351l0.06057,3.69488l-0.48457,3.4526l-7.57148,-1.27201l0.06057,-5.87546z" fill="#929292" stroke-linecap="round"/><path d="M391.46367,194.29408l0.66629,1.9383l0.78744,-0.18172l-0.54515,-1.75659h0.60572l0.60571,-0.84801l0.60572,0.12115l0.18172,1.15087l0.848,1.39315l-0.66629,1.5143l-3.57373,-0.18171l-1.0903,-0.48458l-0.54514,-2.60459z" fill="none" stroke-linecap="round"/></g></g><g><path d="M279.59616,226.30153c0,17.40393 -15.45236,31.51261 -34.5138,31.51261c-19.06145,0 -34.5138,-14.10868 -34.5138,-31.51261c0,-17.40393 15.45235,-31.51261 34.5138,-31.51261c19.06145,0 34.5138,14.10868 34.5138,31.51261z" fill="#fff8c9" stroke="#000000" stroke-width="1" stroke-linecap="butt"/><path d="M277.73362,236.0746c-0.34109,0.26927 -0.42056,1.85454 -0.53289,2.37374c-0.22519,1.04087 -1.40807,2.37084 -1.77114,3.13533c-0.89913,1.8932 -2.49658,2.678 -3.48052,4.40754c-1.58228,2.78126 -4.39281,4.48057 -4.39281,4.48057c0,0 -12.07956,7.34236 -22.47391,7.34236c-7.59104,0 -14.53638,-1.86016 -19.81812,-5.74036c-7.98094,-5.86317 -12.51347,-14.58839 -12.51347,-14.58839c0,0 77.1626,-11.02604 64.98286,-1.41078z" fill="#ffffff" stroke="#000000" stroke-width="1" stroke-linecap="butt"/><path d="M212.4148,210.16123c0,0 5.3606,-9.79313 14.14652,-14.95918c6.61296,-3.88837 18.47277,-4.77581 23.12359,-4.79954c3.97469,-0.02028 12.37309,2.72801 17.16794,6.3459c6.87739,5.18924 9.68072,11.83354 9.68072,11.83354l-1.57928,1.57928c0,0 -23.19599,-2.12459 -34.10947,-2.35315c-8.68023,-0.18178 -28.43001,2.35315 -28.43001,2.35315z" fill="#0055a2" stroke="#000000" stroke-width="1" stroke-linecap="round"/><path d="M237.95746,234.32857l3.26115,14.60997" fill="none" stroke="#000000" stroke-width="1" stroke-linecap="round"/><path d="M235.653,240.58998c0,-0.55228 0.44772,-1 1,-1c0.55228,0 1,0.44772 1,1c0,0.55228 -0.44772,1 -1,1c-0.55228,0 -1,-0.44772 -1,-1z" fill="#0055a2" stroke="none" stroke-width="0.5" stroke-linecap="butt"/><path d="M236.69656,245.02515c0,-0.55228 0.44772,-1 1,-1c0.55228,0 1,0.44772 1,1c0,0.55228 -0.44772,1 -1,1c-0.55228,0 -1,-0.44772 -1,-1z" fill="#0055a2" stroke="none" stroke-width="0.5" stroke-linecap="butt"/><path d="M240.87084,241.11176c0,-0.55228 0.44772,-1 1,-1c0.55228,0 1,0.44772 1,1c0,0.55228 -0.44772,1 -1,1c-0.55228,0 -1,-0.44772 -1,-1z" fill="#0055a2" stroke="none" stroke-width="0.5" stroke-linecap="butt"/><path d="M242.43619,246.32961c0,-0.55228 0.44772,-1 1,-1c0.55228,0 1,0.44772 1,1c0,0.55228 -0.44772,1 -1,1c-0.55228,0 -1,-0.44772 -1,-1z" fill="#0055a2" stroke="none" stroke-width="0.5" stroke-linecap="butt"/><path d="M221.28327,220.41627c0,0 1.10122,-0.65223 1.6958,-0.65223c0.65963,0 2.08714,0.65223 2.08714,0.65223" fill="none" stroke="#000000" stroke-width="1" stroke-linecap="round"/><path d="M241.1005,218.5205c0,0 1.65182,-0.97834 2.5437,-0.97834c0.98945,0 3.13071,0.97834 3.13071,0.97834" fill="none" stroke="#000000" stroke-width="1" stroke-linecap="round"/><path d="M244.93111,204.59027l-7.85511,-5.23674l9.3825,0.1091l-8.50971,4.90945l3.81846,-7.74602z" fill="#ff0000" stroke="#ff0000" stroke-width="1" stroke-linecap="round"/></g><g><g><path d="M412.30111,222.21041c0,17.40393 -15.45236,31.51261 -34.5138,31.51261c-19.06145,0 -34.5138,-14.10868 -34.5138,-31.51261c0,-17.40393 15.45235,-31.51261 34.5138,-31.51261c19.06145,0 34.5138,14.10868 34.5138,31.51261z" fill="#fff8c9" stroke="#000000" stroke-width="1" stroke-linecap="butt"/><path d="M410.43857,231.98348c-0.34109,0.26927 -0.42056,1.85454 -0.53289,2.37374c-0.22519,1.04087 -1.40807,2.37084 -1.77114,3.13533c-0.89913,1.8932 -2.49658,2.678 -3.48052,4.40754c-1.58228,2.78126 -4.39281,4.48057 -4.39281,4.48057c0,0 -12.07956,7.34236 -22.47391,7.34236c-7.59104,0 -14.53638,-1.86016 -19.81812,-5.74036c-7.98094,-5.86317 -12.51347,-14.58839 -12.51347,-14.58839c0,0 77.1626,-11.02604 64.98286,-1.41078z" fill="#ffffff" stroke="#000000" stroke-width="1" stroke-linecap="butt"/><path d="M345.11975,206.07011c0,0 5.3606,-9.79313 14.14652,-14.95918c6.61296,-3.88837 18.47277,-4.77581 23.12359,-4.79954c3.97469,-0.02028 12.37309,2.72801 17.16794,6.3459c6.87739,5.18924 9.68072,11.83354 9.68072,11.83354l-1.57928,1.57928c0,0 -23.19599,-2.12459 -34.10947,-2.35315c-8.68023,-0.18178 -28.43001,2.35315 -28.43001,2.35315z" fill="#0055a2" stroke="#000000" stroke-width="1" stroke-linecap="round"/><path d="M373.92356,244.84742l-3.26115,-14.60997" fill="none" stroke="#000000" stroke-width="1" stroke-linecap="round"/><path d="M368.35795,236.49886c0,-0.55228 0.44772,-1 1,-1c0.55228,0 1,0.44772 1,1c0,0.55228 -0.44772,1 -1,1c-0.55228,0 -1,-0.44772 -1,-1z" fill="#0055a2" stroke="none" stroke-width="0.5" stroke-linecap="butt"/><path d="M369.40151,240.93403c0,-0.55228 0.44772,-1 1,-1c0.55228,0 1,0.44772 1,1c0,0.55228 -0.44772,1 -1,1c-0.55228,0 -1,-0.44772 -1,-1z" fill="#0055a2" stroke="none" stroke-width="0.5" stroke-linecap="butt"/><path d="M373.57579,237.02064c0,-0.55228 0.44772,-1 1,-1c0.55228,0 1,0.44772 1,1c0,0.55228 -0.44772,1 -1,1c-0.55228,0 -1,-0.44772 -1,-1z" fill="#0055a2" stroke="none" stroke-width="0.5" stroke-linecap="butt"/><path d="M375.14114,242.23849c0,-0.55228 0.44772,-1 1,-1c0.55228,0 1,0.44772 1,1c0,0.55228 -0.44772,1 -1,1c-0.55228,0 -1,-0.44772 -1,-1z" fill="#0055a2" stroke="none" stroke-width="0.5" stroke-linecap="butt"/><path d="M353.98822,216.32515c0,0 1.10122,-0.65223 1.6958,-0.65223c0.65963,0 2.08714,0.65223 2.08714,0.65223" fill="none" stroke="#000000" stroke-width="1" stroke-linecap="round"/><path d="M373.80545,214.42938c0,0 1.65182,-0.97834 2.5437,-0.97834c0.98945,0 3.13071,0.97834 3.13071,0.97834" fill="none" stroke="#000000" stroke-width="1" stroke-linecap="round"/><path d="M377.63606,200.49915l-7.85511,-5.23674l9.3825,0.1091l-8.50971,4.90945l3.81846,-7.74602z" fill="#ff0000" stroke="#ff0000" stroke-width="1" stroke-linecap="round"/></g><g stroke="#ffffff" stroke-width="1"><path d="M328.14569,227.46391l-12.65951,-0.12114" fill="none" stroke-linecap="round"/><path d="M318.77245,225.19569l0.09795,-2.25274l1.71404,0.14692l0.04897,2.39966l4.97061,-0.04898l0.48973,-0.93048l0.34281,-0.04898l0.73459,-0.73459l14.88768,-0.19589l0.5387,-0.44075l23.83743,0.04897l0.19589,-0.48972l0.53869,-0.24487l0.48973,0.04898l0.3428,0.19589l5.43596,-0.09795l0.09794,0.29384l0.48973,-0.04897l0.04897,0.39178l8.71713,-0.04897l0.19589,-0.29384h1.27329l0.58767,0.34281l13.83477,-0.14692l0.19589,0.78356l1.51815,0.24486l-0.04897,1.46918l-1.12637,0.44075l7.59075,2.73023l2.35069,-1.12637l17.72809,0.5387l0.73459,0.3428l0.04897,10.48014l-0.63664,0.44075l-11.30044,-3.47705l-2.54658,-0.1959l-2.69349,-1.07739l-4.60343,-0.34281l-4.24838,-3.42808l-4.99521,-0.68562l-0.04897,-0.88151l-0.68562,-0.09795l-0.63665,0.83254l-18.0709,-0.09794l-0.09794,0.39178l-1.37124,-0.04897l-1.46918,-0.39178l-10.82295,-1.6161l-13.01448,-0.22038l-8.71713,-0.14692l-0.41626,-0.93048h-12.78186l-0.83254,-0.3428l-5.63185,0.09794l-0.19589,1.27329h-1.42021l-0.04897,-1.32226l-7.44384,0.04897l-0.04897,-1.32226z" fill="#545454" stroke-linecap="round"/><path d="M345.19319,224.46109h1.71404" fill="none" stroke-linecap="round"/><path d="M350.38969,224.41752h-1.71404" fill="none" stroke-linecap="round"/><path d="M353.62729,224.42293h-1.71404" fill="none" stroke-linecap="round"/><path d="M355.10188,224.42833h1.71404" fill="none" stroke-linecap="round"/><path d="M329.3764,224.60801c0,-0.14124 0.11449,-0.25574 0.25573,-0.25574c0.14124,0 0.25574,0.1145 0.25574,0.25574c0,0.14124 -0.1145,0.25574 -0.25574,0.25574c-0.14124,0 -0.25573,-0.1145 -0.25573,-0.25574z" fill="#ffffff" stroke-linecap="butt"/><path d="M330.94352,224.55904c0,-0.14124 0.1145,-0.25574 0.25574,-0.25574c0.14124,0 0.25574,0.1145 0.25574,0.25574c0,0.14124 -0.1145,0.25574 -0.25574,0.25574c-0.14124,0 -0.25574,-0.1145 -0.25574,-0.25574z" fill="#ffffff" stroke-linecap="butt"/><path d="M332.51064,224.55904c0,-0.14124 0.1145,-0.25574 0.25574,-0.25574c0.14124,0 0.25574,0.1145 0.25574,0.25574c0,0.14124 -0.1145,0.25574 -0.25574,0.25574c-0.14124,0 -0.25574,-0.1145 -0.25574,-0.25574z" fill="#ffffff" stroke-linecap="butt"/><path d="M333.88188,224.51006c0,-0.14124 0.1145,-0.25574 0.25574,-0.25574c0.14124,0 0.25573,0.1145 0.25573,0.25574c0,0.14124 -0.11449,0.25574 -0.25573,0.25574c-0.14124,0 -0.25574,-0.1145 -0.25574,-0.25574z" fill="#ffffff" stroke-linecap="butt"/><path d="M335.49797,224.51006c0,-0.14124 0.1145,-0.25574 0.25574,-0.25574c0.14124,0 0.25574,0.1145 0.25574,0.25574c0,0.14124 -0.1145,0.25574 -0.25574,0.25574c-0.14124,0 -0.25574,-0.1145 -0.25574,-0.25574z" fill="#ffffff" stroke-linecap="butt"/><path d="M336.82024,224.46109c0,-0.14124 0.11449,-0.25574 0.25574,-0.25574c0.14124,0 0.25574,0.1145 0.25574,0.25574c0,0.14124 -0.1145,0.25574 -0.25574,0.25574c-0.14124,0 -0.25574,-0.1145 -0.25574,-0.25574z" fill="#ffffff" stroke-linecap="butt"/><path d="M338.19147,224.46109c0,-0.14124 0.1145,-0.25574 0.25574,-0.25574c0.14124,0 0.25574,0.1145 0.25574,0.25574c0,0.14124 -0.1145,0.25574 -0.25574,0.25574c-0.14124,0 -0.25574,-0.1145 -0.25574,-0.25574z" fill="#ffffff" stroke-linecap="butt"/><path d="M385.26492,229.9625l0.06057,3.69488l-0.48457,3.4526l-7.57147,-1.27201l0.06057,-5.87546z" fill="#929292" stroke-linecap="round"/><path d="M393.74498,230.02307l0.66629,1.9383l0.78744,-0.18172l-0.54515,-1.75659h0.60572l0.60571,-0.84801l0.60572,0.12115l0.18172,1.15087l0.848,1.39315l-0.66629,1.5143l-3.57373,-0.18171l-1.0903,-0.48458l-0.54514,-2.60459z" fill="none" stroke-linecap="round"/></g></g><g data-paper-data="{&quot;index&quot;:null}" fill="#545454" stroke="#ffffff" stroke-width="0.75" stroke-linecap="round"><path d="M171.76225,231.01745l4.3994,-4.2192l0.20825,6.53579l11.78997,0.0525l0.24691,-0.46906l5.29015,-0.42829l0.25119,2.41951l-5.64697,-0.03186l-0.23115,-0.28505l-11.78772,-0.16025l-0.31434,1.63168l-3.51252,-0.05189l-1.02783,0.97075l-15.67853,-0.68996l-0.32676,-0.53798l-2.2423,-0.14346l-1.01314,1.11354l-0.64637,4.35636l-11.29761,-0.64061l-4.69392,8.56921l-4.99979,-2.20498l5.14898,-9.54956l-3.04414,-1.05351l-5.44547,-0.80797l-1.01567,1.2342l-3.17245,0.46482l-0.60591,1.2669l-3.09199,0.08022l-4.87452,3.35052l0.09066,-2.02612l-5.43008,3.36306l0.10631,-9.70327l24.22563,-1.6422l0.70397,-1.3373l4.82648,0.10092l-0.31161,-1.26194l0.42992,-0.93259l6.13368,-0.06489l1.70928,1.38775l5.8339,0.12801l0.18339,1.62142l1.97331,0.30682l0.91258,-0.92249z"/><path d="M175.07063,229.49145l-0.06982,3.3397l-2.06936,-0.00015z"/><path d="M144.38096,239.76321l-3.74143,-0.44468l-0.35667,-2.52949l0.55885,0.07635l0.94031,1.42079l1.60923,0.35699l-0.82357,-1.84946l1.11997,0.04498l1.09286,2.37244z"/><path d="M151.62901,241.13468l2.01708,8.68608l-6.80974,1.97009l-1.15057,-10.95289z"/><path d="M145.16658,228.14481l-6.18789,0.06463l-0.59474,-0.42199l-2.41276,-0.072l-0.58572,-0.85292l0.45571,-1.17605l3.86268,-0.19946l0.53649,-0.91568l0.88656,-0.13236l0.86403,0.94497l2.09407,-0.15023l0.83272,-0.65083l3.66967,-0.24661l-1.61179,3.88948z"/></g><g stroke="#ffffff" stroke-width="1"><path d="M202.51786,229.27315l-12.65352,0.40771" fill="none" stroke-linecap="round"/><path d="M193.05806,227.3984l0.00377,-2.25487l1.71868,0.0752l0.14916,2.39552l4.96423,-0.25654l0.45044,-0.95013l0.34046,-0.06325l0.70327,-0.76463l14.86651,-0.81753l0.51982,-0.46287l23.81867,-0.94668l0.17527,-0.49748l0.528,-0.26715l0.49135,0.02847l0.35069,0.1814l5.42713,-0.3249l0.11013,0.28949l0.48725,-0.06939l0.0653,0.38939l8.70748,-0.41301l0.18345,-0.30176l1.27218,-0.05318l0.60147,0.31796l13.81656,-0.72461l0.22844,0.77469l1.52705,0.18124l0.01244,1.46994l-1.10698,0.48741l7.69817,2.41081l2.3016,-1.22357l17.73512,-0.20221l0.74826,0.31182l0.48665,10.46895l-0.61767,0.46696l-11.43581,-3.00204l-2.55254,-0.08936l-2.73614,-0.96395l-4.61373,-0.15025l-4.38784,-3.24765l-5.01949,-0.47639l-0.08575,-0.87869l-0.68911,-0.06922l-0.60132,0.8584l-18.05922,0.6569l-0.08149,0.39553l-1.37208,0.00834l-1.48426,-0.33007l-10.88101,-1.16265l-13.01233,0.32338l-8.71566,0.2173l-0.45477,-0.91229l-12.7707,0.53385l-0.84612,-0.30773l-5.62285,0.33308l-0.14254,1.28036l-1.41896,0.05932l-0.10416,-1.31906l-7.4353,0.35984l-0.10416,-1.31906z" fill="#545454" stroke-linecap="round"/><path d="M219.42506,225.56094l1.71255,-0.07159" fill="none" stroke-linecap="round"/><path d="M222.90267,225.37196l1.71255,-0.07159" fill="none" stroke-linecap="round"/><path d="M227.85021,225.17055l-1.71255,0.07159" fill="none" stroke-linecap="round"/><path d="M229.32374,225.11435l1.71255,-0.07159" fill="none" stroke-linecap="round"/><path d="M203.62821,226.36834c-0.00589,-0.14112 0.10371,-0.26029 0.24483,-0.2662c0.14112,-0.00589 0.2603,0.10372 0.2662,0.24483c0.00589,0.14112 -0.10372,0.2603 -0.24483,0.2662c-0.14112,0.00589 -0.26029,-0.10372 -0.2662,-0.24483z" fill="#ffffff" stroke-linecap="butt"/><path d="M205.19191,226.25395c-0.00589,-0.14112 0.10372,-0.2603 0.24483,-0.2662c0.14112,-0.00589 0.2603,0.10372 0.2662,0.24483c0.00589,0.14112 -0.10372,0.2603 -0.24483,0.2662c-0.14112,0.00589 -0.2603,-0.10372 -0.2662,-0.24483z" fill="#ffffff" stroke-linecap="butt"/><path d="M206.75767,226.18851c-0.00589,-0.14112 0.10372,-0.2603 0.24483,-0.2662c0.14112,-0.00589 0.26029,0.10372 0.2662,0.24483c0.00589,0.14112 -0.10372,0.2603 -0.24483,0.2662c-0.14112,0.00589 -0.2603,-0.10372 -0.2662,-0.24483z" fill="#ffffff" stroke-linecap="butt"/><path d="M208.12567,226.0823c-0.00589,-0.14112 0.10372,-0.2603 0.24483,-0.2662c0.14112,-0.00589 0.26029,0.10372 0.2662,0.24483c0.00589,0.14112 -0.10372,0.2603 -0.24483,0.2662c-0.14112,0.00589 -0.2603,-0.10372 -0.2662,-0.24483z" fill="#ffffff" stroke-linecap="butt"/><path d="M209.74035,226.0148c-0.00589,-0.14112 0.10372,-0.2603 0.24483,-0.2662c0.14112,-0.00589 0.2603,0.10372 0.2662,0.24483c0.00589,0.14112 -0.10372,0.2603 -0.24483,0.2662c-0.14112,0.00589 -0.2603,-0.10372 -0.2662,-0.24483z" fill="#ffffff" stroke-linecap="butt"/><path d="M211.05942,225.91065c-0.00589,-0.14112 0.10372,-0.2603 0.24483,-0.2662c0.14112,-0.00589 0.2603,0.10372 0.2662,0.24483c0.00589,0.14112 -0.10372,0.2603 -0.24483,0.2662c-0.14112,0.00589 -0.26029,-0.10372 -0.2662,-0.24483z" fill="#ffffff" stroke-linecap="butt"/><path d="M212.42945,225.85338c-0.00589,-0.14112 0.10372,-0.2603 0.24483,-0.2662c0.14112,-0.00589 0.2603,0.10372 0.2662,0.24483c0.00589,0.14112 -0.10372,0.2603 -0.24483,0.2662c-0.14112,0.00589 -0.2603,-0.10372 -0.2662,-0.24483z" fill="#ffffff" stroke-linecap="butt"/><path d="M259.6916,229.38388l0.21484,3.68913l-0.33995,3.46982l-7.618,-0.95466l-0.18488,-5.87287z" fill="#929292" stroke-linecap="round"/><path d="M268.16679,229.09022l0.74666,1.90878l0.77916,-0.21445l-0.61804,-1.73228l0.6052,-0.0253l0.56976,-0.87256l0.61025,0.09574l0.22962,1.14227l0.90546,1.35651l-0.60246,1.5408l-3.57821,-0.03229l-1.10958,-0.43862l-0.65346,-2.57955z" fill="none" stroke-linecap="round"/></g></g></g></svg>