<svg version="1.1" xmlns="http://www.w3.org/2000/svg" xmlns:xlink="http://www.w3.org/1999/xlink" width="582" height="420" viewBox="0,0,582,420"><g transform="translate(51,30)"><g data-paper-data="{&quot;isPaintingLayer&quot;:true}" fill-rule="nonzero" stroke-linejoin="miter" stroke-miterlimit="10" stroke-dasharray="" stroke-dashoffset="0" style="mix-blend-mode: normal"><path d="M-51,390v-420h582v420z" fill="#e5eda3" stroke="none" stroke-width="NaN" stroke-linecap="butt"/><g data-paper-data="{&quot;index&quot;:null}" fill="#545454" stroke="#ffffff" stroke-width="0.75" stroke-linecap="round"><path d="M34.03801,202.91329l5.12199,3.30478l-6.31058,1.71361l2.67464,11.48271l0.51344,0.13179l1.63972,5.04781l-2.29589,0.80376l-1.27455,-5.50135l0.2239,-0.29079l-2.56931,-11.50543l-1.66015,0.0714l-0.76158,-3.42936l-1.18208,-0.77555l-2.95346,-15.41329l0.44786,-0.44228l-0.37883,-2.21473l-1.3176,-0.72825l-4.38778,0.37828l-1.98864,-11.13964l-9.42224,-2.58564l0.98934,-5.37411l10.48124,2.80172l0.32119,-3.20523l-0.47286,-5.48473l-1.43558,-0.70282l-1.18567,-2.97904l-1.37266,-0.2966l-0.79288,-2.98968l-4.3867,-3.96785l1.99219,-0.38022l-4.52733,-4.50546l9.46497,-2.13987l7.19845,23.18966l1.46382,0.37573l1.01765,4.71906l1.15572,-0.59492l1.00671,0.20268l1.48119,5.9525l-0.95499,1.98381l1.2242,5.70544l-1.5351,0.55327l0.1577,1.99079l1.10848,0.67458z"/><path d="M36.28747,205.77926l-3.26537,0.70418l-0.47826,-2.01334z"/><path d="M19.19882,178.29576l-0.43235,-3.74287l2.37851,-0.93181l0.05492,0.56137l-1.16492,1.24331l0.02473,1.64816l1.60896,-1.22884l0.21517,1.10002l-2.05551,1.61174z"/><path d="M19.54021,185.6645l-7.98444,3.97058l-3.49107,-6.16979l10.39016,-3.6516z"/><path d="M30.68409,176.37402l-1.49346,-6.00531l0.27306,-0.67618l-0.48776,-2.36403l0.6944,-0.76705l1.24955,0.17148l1.08707,3.71191l1.01491,0.31026l0.33373,0.83195l-0.71961,1.05909l0.63028,2.00261l0.82571,0.6597l1.08833,3.51323l-4.15673,-0.66891z"/></g><g fill="#e5eda3" stroke-width="1"><path d="M191.79782,299.79767v-50.19096h58.9198v50.19096z" stroke="none" stroke-linecap="butt"/><g stroke="#000000" stroke-linecap="round"><path d="M217.36042,273.31823l2.26208,2.71444"/><path d="M221.53938,276.08615v-2.71172"/><path d="M225.15502,273.67571l-1.20524,2.41044"/></g></g><g fill="#e5eda3" stroke-width="1"><path d="M196.79782,304.79767v-50.19096h58.9198v50.19096z" stroke="none" stroke-linecap="butt"/><g stroke="#000000" stroke-linecap="round"><path d="M224.6225,281.03267l-2.26208,-2.71444"/><path d="M226.53938,278.37443v2.71172"/><path d="M228.94978,281.08615l1.20524,-2.41044"/></g></g><g fill="#e5eda3" stroke-width="1"><path d="M69.66569,294.78265v-50.19096h58.9198v50.19096z" stroke="none" stroke-linecap="butt"/><g stroke="#000000" stroke-linecap="round"><path d="M95.22829,268.30321l2.26208,2.71444"/><path d="M99.40725,271.07113v-2.71172"/><path d="M103.02289,268.66069l-1.20524,2.41044"/></g></g><g fill="#e5eda3" stroke-width="1"><path d="M296.88791,290.77365v-50.19096h58.9198v50.19096z" stroke="none" stroke-linecap="butt"/><g stroke="#000000" stroke-linecap="round"><path d="M324.71259,267.00865l-2.26208,-2.71444"/><path d="M326.62947,264.35041v2.71172"/><path d="M330.24511,264.65169l-1.20524,2.41044"/></g></g><g fill="#e5eda3" stroke-width="1"><path d="M82.66869,153.131v-50.19096h58.9198v50.19096z" stroke="none" stroke-linecap="butt"/><g stroke="#000000" stroke-linecap="round"><path d="M110.49337,129.366l-2.26208,-2.71444"/><path d="M112.41025,126.70776v2.71172"/><path d="M116.02589,127.00904l-1.20524,2.41044"/></g></g><g fill="#e5eda3" stroke-width="1"><path d="M210.5401,205.09548v-50.19096h58.9198v50.19096z" stroke="none" stroke-linecap="butt"/><g stroke="#000000" stroke-linecap="round"><path d="M238.36478,181.33048l-2.26208,-2.71444"/><path d="M240.28166,178.67224v2.71172"/><path d="M243.8973,178.97352l-1.20524,2.41044"/></g></g><g fill="#e5eda3" stroke-width="1"><path d="M334.41043,73.04091v-50.19096h58.9198v50.19096z" stroke="none" stroke-linecap="butt"/><g stroke="#000000" stroke-linecap="round"><path d="M362.23511,49.27591l-2.26208,-2.71444"/><path d="M364.15199,49.32939v-2.71172"/><path d="M367.76763,46.91895l-1.20524,2.41044"/></g></g><g fill="#e5eda3" stroke-width="1"><path d="M259.83085,166.6295v-50.19096h58.9198v50.19096z" stroke="none" stroke-linecap="butt"/><g stroke="#000000" stroke-linecap="round"><path d="M285.39345,140.15006l2.26208,2.71444"/><path d="M289.57241,140.20626v2.71172"/><path d="M291.98281,142.91798l1.20524,-2.41044"/></g></g><g fill="#e5eda3" stroke-width="1"><path d="M174.74076,77.03491v-50.19096h58.9198v50.19096z" stroke="none" stroke-linecap="butt"/><g stroke="#000000" stroke-linecap="round"><path d="M202.56544,53.26991l-2.26208,-2.71444"/><path d="M204.48232,53.32339v-2.71172"/><path d="M208.09796,50.91295l-1.20524,2.41044"/></g></g><g><path d="M427.52764,78.91244c0,17.40393 -15.45236,31.51261 -34.5138,31.51261c-19.06145,0 -34.5138,-14.10868 -34.5138,-31.51261c0,-17.40393 15.45235,-31.51261 34.5138,-31.51261c19.06145,0 34.5138,14.10868 34.5138,31.51261z" fill="#fff8c9" stroke="#000000" stroke-width="1" stroke-linecap="butt"/><path d="M425.6651,88.68551c-0.34109,0.26927 -0.42056,1.85454 -0.53289,2.37374c-0.22519,1.04087 -1.40807,2.37084 -1.77114,3.13533c-0.89913,1.8932 -2.49658,2.678 -3.48052,4.40754c-1.58228,2.78126 -4.39281,4.48057 -4.39281,4.48057c0,0 -12.07956,7.34236 -22.47391,7.34236c-7.59104,0 -14.53638,-1.86016 -19.81812,-5.74036c-7.98094,-5.86317 -12.51347,-14.58839 -12.51347,-14.58839c0,0 77.1626,-11.02604 64.98286,-1.41078z" fill="#4d5d29" stroke="#000000" stroke-width="1" stroke-linecap="butt"/><path d="M360.34628,62.77214c0,0 5.3606,-9.79313 14.14652,-14.95918c6.61296,-3.88837 18.47277,-4.77581 23.12359,-4.79954c3.97469,-0.02028 12.37309,2.72801 17.16794,6.3459c6.87739,5.18924 9.68072,11.83354 9.68072,11.83354l-1.57928,1.57928c0,0 -23.19599,-2.12459 -34.10947,-2.35315c-8.68023,-0.18178 -28.43001,2.35315 -28.43001,2.35315z" fill="#4d5d29" stroke="#000000" stroke-width="1" stroke-linecap="round"/><path d="M385.88894,86.93948l3.26115,14.60997" fill="none" stroke="#000000" stroke-width="1" stroke-linecap="round"/><path d="M383.58448,93.20089c0,-0.55228 0.44772,-1 1,-1c0.55228,0 1,0.44772 1,1c0,0.55228 -0.44772,1 -1,1c-0.55228,0 -1,-0.44772 -1,-1z" fill="#93b04d" stroke="none" stroke-width="0.5" stroke-linecap="butt"/><path d="M384.62804,97.63606c0,-0.55228 0.44772,-1 1,-1c0.55228,0 1,0.44772 1,1c0,0.55228 -0.44772,1 -1,1c-0.55228,0 -1,-0.44772 -1,-1z" fill="#93b04d" stroke="none" stroke-width="0.5" stroke-linecap="butt"/><path d="M388.80232,93.72267c0,-0.55228 0.44772,-1 1,-1c0.55228,0 1,0.44772 1,1c0,0.55228 -0.44772,1 -1,1c-0.55228,0 -1,-0.44772 -1,-1z" fill="#93b04d" stroke="none" stroke-width="0.5" stroke-linecap="butt"/><path d="M390.36767,98.94052c0,-0.55228 0.44772,-1 1,-1c0.55228,0 1,0.44772 1,1c0,0.55228 -0.44772,1 -1,1c-0.55228,0 -1,-0.44772 -1,-1z" fill="#93b04d" stroke="none" stroke-width="0.5" stroke-linecap="butt"/><path d="M369.21475,73.02718c0,0 1.10122,-0.65223 1.6958,-0.65223c0.65963,0 2.08714,0.65223 2.08714,0.65223" fill="none" stroke="#000000" stroke-width="1" stroke-linecap="round"/><path d="M389.03198,71.13141c0,0 1.65182,-0.97834 2.5437,-0.97834c0.98945,0 3.13071,0.97834 3.13071,0.97834" fill="none" stroke="#000000" stroke-width="1" stroke-linecap="round"/><g fill="#545454" stroke="#ffffff" stroke-width="0.75" stroke-linecap="round"><path d="M392.56429,82.84031l1.22394,0.43101l1.64089,-1.13824l-0.54354,-1.53857l5.19155,-2.66431l0.93108,-1.99514l5.54549,-2.62178l0.79422,0.65098l0.27112,1.27126l4.29725,-2.19975l1.21755,0.89527l22.5081,-9.10843l4.33553,8.68147l-6.35376,-0.6523l0.96687,1.78284l-5.84858,-0.88378l-2.81624,1.27892l-1.09859,-0.8748l-3.05667,0.96814l-1.45287,-0.66634l-4.54505,3.10619l-2.27781,2.27777l8.80416,6.33977l-3.53374,4.16803l-7.96647,-5.6568l-9.88208,5.51279l-2.48495,-3.63604l-1.39787,-0.55891l-1.95423,1.10883l-0.05884,0.62668l-13.80108,7.47145l-1.34869,-0.42406l-3.13679,1.5815l-0.99571,-1.33031l-10.53283,5.29487l-0.08336,0.3574l-5.06544,2.49613l-0.83128,-2.28607l4.94554,-1.92633l0.42706,0.31402l10.58193,-5.19894l-2.66855,-5.96982l5.80079,1.87275z"/><path d="M378.05313,92.13983l-1.86129,0.90437l-1.52211,-2.9735z"/><path d="M406.16224,85.57788l-0.05365,-2.6115l0.98774,-0.52983l0.06735,2.02343l1.29149,-1.02427l0.22496,-1.68885l0.46932,-0.31287l0.78445,2.43108l-3.17104,2.03483z"/><path d="M406.05883,87.43676l3.75103,10.35468l-6.98609,1.20349l-1.98112,-8.69436z"/><path d="M399.38766,76.65591l-3.14931,-2.79423l3.40855,-1.38166l1.03341,0.22154l1.94921,-0.7799l0.36427,-1.22753l0.85528,-0.26834l0.88268,0.58922l3.56156,-1.50841l0.92379,0.85871l-0.15416,1.02313l-2.13877,1.11904l-0.35056,0.63945l-5.59414,2.64571z"/></g></g><g><path d="M423.52404,131.33141c0,17.40393 -15.45236,31.51261 -34.5138,31.51261c-19.06145,0 -34.5138,-14.10868 -34.5138,-31.51261c0,-17.40393 15.45235,-31.51261 34.5138,-31.51261c19.06145,0 34.5138,14.10868 34.5138,31.51261z" fill="#fff8c9" stroke="#000000" stroke-width="1" stroke-linecap="butt"/><path d="M421.6615,141.10448c-0.34109,0.26927 -0.42056,1.85454 -0.53289,2.37374c-0.22519,1.04087 -1.40807,2.37084 -1.77114,3.13533c-0.89913,1.8932 -2.49658,2.678 -3.48052,4.40754c-1.58228,2.78126 -4.39281,4.48057 -4.39281,4.48057c0,0 -12.07956,7.34236 -22.47391,7.34236c-7.59104,0 -14.53638,-1.86016 -19.81812,-5.74036c-7.98094,-5.86317 -12.51347,-14.58839 -12.51347,-14.58839c0,0 77.1626,-11.02604 64.98286,-1.41078z" fill="#4d5d29" stroke="#000000" stroke-width="1" stroke-linecap="butt"/><path d="M356.34268,115.19111c0,0 5.3606,-9.79313 14.14652,-14.95918c6.61296,-3.88837 18.47277,-4.77581 23.12359,-4.79954c3.97469,-0.02028 12.37309,2.72801 17.16794,6.3459c6.87739,5.18924 9.68072,11.83354 9.68072,11.83354l-1.57928,1.57928c0,0 -23.19599,-2.12459 -34.10947,-2.35315c-8.68023,-0.18178 -28.43001,2.35315 -28.43001,2.35315z" fill="#4d5d29" stroke="#000000" stroke-width="1" stroke-linecap="round"/><path d="M381.88534,139.35845l3.26115,14.60997" fill="none" stroke="#000000" stroke-width="1" stroke-linecap="round"/><path d="M379.58088,145.61986c0,-0.55228 0.44772,-1 1,-1c0.55228,0 1,0.44772 1,1c0,0.55228 -0.44772,1 -1,1c-0.55228,0 -1,-0.44772 -1,-1z" fill="#93b04d" stroke="none" stroke-width="0.5" stroke-linecap="butt"/><path d="M380.62444,150.05503c0,-0.55228 0.44772,-1 1,-1c0.55228,0 1,0.44772 1,1c0,0.55228 -0.44772,1 -1,1c-0.55228,0 -1,-0.44772 -1,-1z" fill="#93b04d" stroke="none" stroke-width="0.5" stroke-linecap="butt"/><path d="M384.79872,146.14164c0,-0.55228 0.44772,-1 1,-1c0.55228,0 1,0.44772 1,1c0,0.55228 -0.44772,1 -1,1c-0.55228,0 -1,-0.44772 -1,-1z" fill="#93b04d" stroke="none" stroke-width="0.5" stroke-linecap="butt"/><path d="M386.36407,151.35949c0,-0.55228 0.44772,-1 1,-1c0.55228,0 1,0.44772 1,1c0,0.55228 -0.44772,1 -1,1c-0.55228,0 -1,-0.44772 -1,-1z" fill="#93b04d" stroke="none" stroke-width="0.5" stroke-linecap="butt"/><path d="M365.21115,125.44615c0,0 1.10122,-0.65223 1.6958,-0.65223c0.65963,0 2.08714,0.65223 2.08714,0.65223" fill="none" stroke="#000000" stroke-width="1" stroke-linecap="round"/><path d="M385.02838,123.55038c0,0 1.65182,-0.97834 2.5437,-0.97834c0.98945,0 3.13071,0.97834 3.13071,0.97834" fill="none" stroke="#000000" stroke-width="1" stroke-linecap="round"/><g fill="#545454" stroke="#ffffff" stroke-width="0.75" stroke-linecap="round"><path d="M388.56069,135.25928l1.22394,0.43101l1.64089,-1.13824l-0.54354,-1.53857l5.19155,-2.66431l0.93108,-1.99514l5.54549,-2.62178l0.79421,0.65099l0.27113,1.27126l4.29724,-2.19974l1.21755,0.89527l22.5081,-9.10843l4.33554,8.68147l-6.35377,-0.6523l0.96687,1.78285l-5.84858,-0.88379l-2.81624,1.27891l-1.09859,-0.8748l-3.05667,0.96813l-1.45287,-0.66634l-4.54505,3.10619l-2.27781,2.27777l8.80416,6.33977l-3.53374,4.16804l-7.96647,-5.6568l-9.88208,5.51278l-2.48495,-3.63603l-1.39787,-0.55891l-1.95423,1.10882l-0.05884,0.62668l-13.80108,7.47145l-1.34869,-0.42406l-3.13678,1.58149l-0.99572,-1.3303l-10.53283,5.29486l-0.08336,0.35741l-5.06544,2.49613l-0.83128,-2.28607l4.94554,-1.92633l0.42706,0.31402l10.58193,-5.19895l-2.66855,-5.96982l5.80079,1.87274z"/><path d="M374.04953,144.5588l-1.86129,0.90436l-1.52211,-2.9735z"/><path d="M402.15863,137.99685l-0.05365,-2.6115l0.98774,-0.52984l0.06735,2.02343l1.29149,-1.02426l0.22496,-1.68885l0.46932,-0.31287l0.78446,2.43109l-3.17104,2.03482z"/><path d="M402.05523,139.85573l3.75103,10.35468l-6.98609,1.20349l-1.98112,-8.69436z"/><path d="M395.38405,129.07488l-3.14931,-2.79423l3.40856,-1.38166l1.0334,0.22154l1.94922,-0.77989l0.36427,-1.22753l0.85528,-0.26834l0.88268,0.58922l3.56156,-1.50841l0.92379,0.85871l-0.15416,1.02313l-2.13877,1.11903l-0.35056,0.63945l-5.59414,2.64571z"/></g></g><g><path d="M426.72332,184.95086c0,17.40393 -15.45236,31.51261 -34.5138,31.51261c-19.06145,0 -34.5138,-14.10868 -34.5138,-31.51261c0,-17.40393 15.45235,-31.51261 34.5138,-31.51261c19.06145,0 34.5138,14.10868 34.5138,31.51261z" fill="#fff8c9" stroke="#000000" stroke-width="1" stroke-linecap="butt"/><path d="M424.86078,194.72393c-0.34109,0.26927 -0.42056,1.85454 -0.53289,2.37374c-0.22519,1.04087 -1.40807,2.37084 -1.77114,3.13533c-0.89913,1.8932 -2.49658,2.678 -3.48052,4.40754c-1.58228,2.78126 -4.39281,4.48057 -4.39281,4.48057c0,0 -12.07956,7.34236 -22.47391,7.34236c-7.59104,0 -14.53638,-1.86016 -19.81812,-5.74036c-7.98094,-5.86317 -12.51347,-14.58839 -12.51347,-14.58839c0,0 77.1626,-11.02604 64.98286,-1.41078z" fill="#4d5d29" stroke="#000000" stroke-width="1" stroke-linecap="butt"/><path d="M359.54196,168.81056c0,0 5.3606,-9.79313 14.14652,-14.95918c6.61296,-3.88837 18.47277,-4.77581 23.12359,-4.79954c3.97469,-0.02028 12.37309,2.72801 17.16794,6.3459c6.87739,5.18924 9.68072,11.83354 9.68072,11.83354l-1.57928,1.57928c0,0 -23.19599,-2.12459 -34.10947,-2.35315c-8.68023,-0.18178 -28.43001,2.35315 -28.43001,2.35315z" fill="#4d5d29" stroke="#000000" stroke-width="1" stroke-linecap="round"/><path d="M385.08462,192.9779l3.26115,14.60997" fill="none" stroke="#000000" stroke-width="1" stroke-linecap="round"/><path d="M382.78016,199.23931c0,-0.55228 0.44772,-1 1,-1c0.55228,0 1,0.44772 1,1c0,0.55228 -0.44772,1 -1,1c-0.55228,0 -1,-0.44772 -1,-1z" fill="#93b04d" stroke="none" stroke-width="0.5" stroke-linecap="butt"/><path d="M383.82372,203.67448c0,-0.55228 0.44772,-1 1,-1c0.55228,0 1,0.44772 1,1c0,0.55228 -0.44772,1 -1,1c-0.55228,0 -1,-0.44772 -1,-1z" fill="#93b04d" stroke="none" stroke-width="0.5" stroke-linecap="butt"/><path d="M387.998,199.76109c0,-0.55228 0.44772,-1 1,-1c0.55228,0 1,0.44772 1,1c0,0.55228 -0.44772,1 -1,1c-0.55228,0 -1,-0.44772 -1,-1z" fill="#93b04d" stroke="none" stroke-width="0.5" stroke-linecap="butt"/><path d="M389.56335,204.97894c0,-0.55228 0.44772,-1 1,-1c0.55228,0 1,0.44772 1,1c0,0.55228 -0.44772,1 -1,1c-0.55228,0 -1,-0.44772 -1,-1z" fill="#93b04d" stroke="none" stroke-width="0.5" stroke-linecap="butt"/><path d="M368.41043,179.0656c0,0 1.10122,-0.65223 1.6958,-0.65223c0.65963,0 2.08714,0.65223 2.08714,0.65223" fill="none" stroke="#000000" stroke-width="1" stroke-linecap="round"/><path d="M388.22766,177.16983c0,0 1.65182,-0.97834 2.5437,-0.97834c0.98945,0 3.13071,0.97834 3.13071,0.97834" fill="none" stroke="#000000" stroke-width="1" stroke-linecap="round"/><g fill="#545454" stroke="#ffffff" stroke-width="0.75" stroke-linecap="round"><path d="M391.75997,188.87873l1.22394,0.43101l1.64089,-1.13824l-0.54354,-1.53857l5.19155,-2.66431l0.93108,-1.99514l5.54549,-2.62179l0.79421,0.65099l0.27113,1.27126l4.29724,-2.19974l1.21755,0.89527l22.5081,-9.10843l4.33554,8.68147l-6.35377,-0.6523l0.96687,1.78285l-5.84858,-0.88378l-2.81624,1.27891l-1.09859,-0.8748l-3.05667,0.96813l-1.45287,-0.66634l-4.54505,3.10619l-2.27781,2.27777l8.80416,6.33977l-3.53374,4.16804l-7.96647,-5.65681l-9.88208,5.51279l-2.48495,-3.63603l-1.39787,-0.55891l-1.95423,1.10883l-0.05884,0.62668l-13.80108,7.47145l-1.34869,-0.42406l-3.13678,1.5815l-0.99572,-1.33031l-10.53283,5.29487l-0.08336,0.3574l-5.06544,2.49614l-0.83128,-2.28607l4.94554,-1.92633l0.42706,0.31402l10.58193,-5.19894l-2.66855,-5.96982l5.80079,1.87275z"/><path d="M377.24881,198.17825l-1.86129,0.90436l-1.52211,-2.9735z"/><path d="M405.35791,191.6163l-0.05365,-2.6115l0.98774,-0.52984l0.06735,2.02343l1.29149,-1.02427l0.22496,-1.68885l0.46932,-0.31287l0.78446,2.43108l-3.17104,2.03483z"/><path d="M405.25451,193.47518l3.75103,10.35468l-6.98609,1.2035l-1.98112,-8.69436z"/><path d="M398.58333,182.69433l-3.14931,-2.79423l3.40856,-1.38166l1.0334,0.22154l1.94922,-0.7799l0.36427,-1.22753l0.85528,-0.26834l0.88268,0.58922l3.56156,-1.50841l0.92379,0.85871l-0.15416,1.02313l-2.13877,1.11903l-0.35056,0.63945l-5.59414,2.64571z"/></g></g><g><path d="M429.32236,230.16694c0,17.40393 -15.45236,31.51261 -34.5138,31.51261c-19.06145,0 -34.5138,-14.10868 -34.5138,-31.51261c0,-17.40393 15.45235,-31.51261 34.5138,-31.51261c19.06145,0 34.5138,14.10868 34.5138,31.51261z" fill="#fff8c9" stroke="#000000" stroke-width="1" stroke-linecap="butt"/><path d="M427.45982,239.94001c-0.34109,0.26927 -0.42056,1.85454 -0.53289,2.37374c-0.22519,1.04087 -1.40807,2.37084 -1.77114,3.13533c-0.89913,1.8932 -2.49658,2.678 -3.48052,4.40754c-1.58228,2.78126 -4.39281,4.48057 -4.39281,4.48057c0,0 -12.07956,7.34236 -22.47391,7.34236c-7.59104,0 -14.53638,-1.86016 -19.81812,-5.74036c-7.98094,-5.86317 -12.51347,-14.58839 -12.51347,-14.58839c0,0 77.1626,-11.02604 64.98286,-1.41078z" fill="#4d5d29" stroke="#000000" stroke-width="1" stroke-linecap="butt"/><path d="M362.141,214.02664c0,0 5.3606,-9.79313 14.14652,-14.95918c6.61296,-3.88837 18.47277,-4.77581 23.12359,-4.79954c3.97469,-0.02028 12.37309,2.72801 17.16794,6.3459c6.87739,5.18924 9.68072,11.83354 9.68072,11.83354l-1.57928,1.57928c0,0 -23.19599,-2.12459 -34.10947,-2.35315c-8.68023,-0.18178 -28.43001,2.35315 -28.43001,2.35315z" fill="#4d5d29" stroke="#000000" stroke-width="1" stroke-linecap="round"/><path d="M390.94481,252.80395l-3.26115,-14.60997" fill="none" stroke="#000000" stroke-width="1" stroke-linecap="round"/><path d="M385.3792,244.45539c0,-0.55228 0.44772,-1 1,-1c0.55228,0 1,0.44772 1,1c0,0.55228 -0.44772,1 -1,1c-0.55228,0 -1,-0.44772 -1,-1z" fill="#93b04d" stroke="none" stroke-width="0.5" stroke-linecap="butt"/><path d="M386.42276,248.89056c0,-0.55228 0.44772,-1 1,-1c0.55228,0 1,0.44772 1,1c0,0.55228 -0.44772,1 -1,1c-0.55228,0 -1,-0.44772 -1,-1z" fill="#93b04d" stroke="none" stroke-width="0.5" stroke-linecap="butt"/><path d="M390.59704,244.97717c0,-0.55228 0.44772,-1 1,-1c0.55228,0 1,0.44772 1,1c0,0.55228 -0.44772,1 -1,1c-0.55228,0 -1,-0.44772 -1,-1z" fill="#93b04d" stroke="none" stroke-width="0.5" stroke-linecap="butt"/><path d="M392.16239,250.19502c0,-0.55228 0.44772,-1 1,-1c0.55228,0 1,0.44772 1,1c0,0.55228 -0.44772,1 -1,1c-0.55228,0 -1,-0.44772 -1,-1z" fill="#93b04d" stroke="none" stroke-width="0.5" stroke-linecap="butt"/><path d="M371.00947,224.28168c0,0 1.10122,-0.65223 1.6958,-0.65223c0.65963,0 2.08714,0.65223 2.08714,0.65223" fill="none" stroke="#000000" stroke-width="1" stroke-linecap="round"/><path d="M390.8267,222.38591c0,0 1.65182,-0.97834 2.5437,-0.97834c0.98945,0 3.13071,0.97834 3.13071,0.97834" fill="none" stroke="#000000" stroke-width="1" stroke-linecap="round"/><g fill="#545454" stroke="#ffffff" stroke-width="0.75" stroke-linecap="round"><path d="M394.35901,234.09481l1.22394,0.43101l1.64089,-1.13824l-0.54354,-1.53857l5.19155,-2.66431l0.93108,-1.99514l5.54549,-2.62178l0.79421,0.65098l0.27113,1.27126l4.29724,-2.19974l1.21755,0.89527l22.5081,-9.10843l4.33554,8.68147l-6.35377,-0.6523l0.96687,1.78285l-5.84858,-0.88378l-2.81624,1.27891l-1.09859,-0.8748l-3.05667,0.96814l-1.45287,-0.66634l-4.54505,3.10619l-2.27781,2.27777l8.80416,6.33976l-3.53374,4.16804l-7.96647,-5.65681l-9.88208,5.51279l-2.48495,-3.63603l-1.39787,-0.55891l-1.95423,1.10883l-0.05884,0.62668l-13.80108,7.47145l-1.34869,-0.42406l-3.13678,1.5815l-0.99572,-1.33031l-10.53283,5.29487l-0.08336,0.35741l-5.06544,2.49613l-0.83128,-2.28607l4.94554,-1.92633l0.42706,0.31402l10.58193,-5.19895l-2.66855,-5.96982l5.80079,1.87275z"/><path d="M379.84785,243.39434l-1.86129,0.90436l-1.52211,-2.9735z"/><path d="M407.95695,236.83239l-0.05365,-2.6115l0.98774,-0.52983l0.06735,2.02343l1.29149,-1.02426l0.22496,-1.68886l0.46932,-0.31287l0.78446,2.43108l-3.17104,2.03483z"/><path d="M407.85355,238.69126l3.75103,10.35468l-6.98609,1.2035l-1.98112,-8.69436z"/><path d="M401.18237,227.91042l-3.14931,-2.79423l3.40856,-1.38166l1.0334,0.22153l1.94922,-0.77989l0.36427,-1.22753l0.85528,-0.26834l0.88268,0.58922l3.56156,-1.50841l0.92379,0.85871l-0.15416,1.02313l-2.13877,1.11903l-0.35056,0.63945l-5.59414,2.64571z"/></g></g><g><path d="M431.9214,268.78039c0,17.40393 -15.45236,31.51261 -34.5138,31.51261c-19.06145,0 -34.5138,-14.10868 -34.5138,-31.51261c0,-17.40393 15.45235,-31.51261 34.5138,-31.51261c19.06145,0 34.5138,14.10868 34.5138,31.51261z" fill="#fff8c9" stroke="#000000" stroke-width="1" stroke-linecap="butt"/><path d="M430.05886,278.55346c-0.34109,0.26927 -0.42056,1.85454 -0.53289,2.37374c-0.22519,1.04087 -1.40807,2.37084 -1.77114,3.13533c-0.89913,1.8932 -2.49658,2.678 -3.48052,4.40754c-1.58228,2.78126 -4.39281,4.48057 -4.39281,4.48057c0,0 -12.07956,7.34236 -22.47391,7.34236c-7.59104,0 -14.53638,-1.86016 -19.81812,-5.74036c-7.98094,-5.86317 -12.51347,-14.58839 -12.51347,-14.58839c0,0 77.1626,-11.02604 64.98286,-1.41078z" fill="#4d5d29" stroke="#000000" stroke-width="1" stroke-linecap="butt"/><path d="M364.74004,252.64009c0,0 5.3606,-9.79313 14.14652,-14.95918c6.61296,-3.88837 18.47277,-4.77581 23.12359,-4.79954c3.97469,-0.02028 12.37309,2.72801 17.16794,6.3459c6.87739,5.18924 9.68072,11.83354 9.68072,11.83354l-1.57928,1.57928c0,0 -23.19599,-2.12459 -34.10947,-2.35315c-8.68023,-0.18178 -28.43001,2.35315 -28.43001,2.35315z" fill="#4d5d29" stroke="#000000" stroke-width="1" stroke-linecap="round"/><path d="M390.2827,276.80743l3.26115,14.60997" fill="none" stroke="#000000" stroke-width="1" stroke-linecap="round"/><path d="M387.97824,283.06884c0,-0.55228 0.44772,-1 1,-1c0.55228,0 1,0.44772 1,1c0,0.55228 -0.44772,1 -1,1c-0.55228,0 -1,-0.44772 -1,-1z" fill="#93b04d" stroke="none" stroke-width="0.5" stroke-linecap="butt"/><path d="M389.0218,287.50401c0,-0.55228 0.44772,-1 1,-1c0.55228,0 1,0.44772 1,1c0,0.55228 -0.44772,1 -1,1c-0.55228,0 -1,-0.44772 -1,-1z" fill="#93b04d" stroke="none" stroke-width="0.5" stroke-linecap="butt"/><path d="M393.19608,283.59062c0,-0.55228 0.44772,-1 1,-1c0.55228,0 1,0.44772 1,1c0,0.55228 -0.44772,1 -1,1c-0.55228,0 -1,-0.44772 -1,-1z" fill="#93b04d" stroke="none" stroke-width="0.5" stroke-linecap="butt"/><path d="M394.76143,288.80847c0,-0.55228 0.44772,-1 1,-1c0.55228,0 1,0.44772 1,1c0,0.55228 -0.44772,1 -1,1c-0.55228,0 -1,-0.44772 -1,-1z" fill="#93b04d" stroke="none" stroke-width="0.5" stroke-linecap="butt"/><path d="M373.60851,262.89513c0,0 1.10122,-0.65223 1.6958,-0.65223c0.65963,0 2.08714,0.65223 2.08714,0.65223" fill="none" stroke="#000000" stroke-width="1" stroke-linecap="round"/><path d="M393.42574,260.99936c0,0 1.65182,-0.97834 2.5437,-0.97834c0.98945,0 3.13071,0.97834 3.13071,0.97834" fill="none" stroke="#000000" stroke-width="1" stroke-linecap="round"/><g fill="#545454" stroke="#ffffff" stroke-width="0.75" stroke-linecap="round"><path d="M396.95805,272.70826l1.22394,0.43101l1.64089,-1.13824l-0.54354,-1.53857l5.19155,-2.66431l0.93108,-1.99514l5.54549,-2.62178l0.79421,0.65098l0.27113,1.27126l4.29724,-2.19975l1.21755,0.89527l22.5081,-9.10843l4.33554,8.68147l-6.35377,-0.6523l0.96687,1.78285l-5.84858,-0.88379l-2.81624,1.27892l-1.09859,-0.8748l-3.05667,0.96813l-1.45287,-0.66634l-4.54505,3.10619l-2.27781,2.27777l8.80416,6.33977l-3.53374,4.16803l-7.96647,-5.65681l-9.88208,5.51279l-2.48495,-3.63603l-1.39787,-0.55891l-1.95423,1.10882l-0.05884,0.62668l-13.80108,7.47145l-1.34869,-0.42406l-3.13678,1.58149l-0.99572,-1.3303l-10.53283,5.29486l-0.08336,0.35741l-5.06544,2.49613l-0.83128,-2.28607l4.94554,-1.92633l0.42706,0.31402l10.58193,-5.19895l-2.66855,-5.96982l5.80079,1.87274z"/><path d="M382.44689,282.00778l-1.86129,0.90436l-1.52211,-2.97349z"/><path d="M410.55599,275.44583l-0.05365,-2.6115l0.98774,-0.52983l0.06735,2.02343l1.29149,-1.02427l0.22496,-1.68885l0.46932,-0.31287l0.78446,2.43108l-3.17104,2.03483z"/><path d="M410.45259,277.30471l3.75103,10.35468l-6.98609,1.20349l-1.98112,-8.69436z"/><path d="M403.78141,266.52386l-3.14931,-2.79423l3.40856,-1.38166l1.0334,0.22154l1.94922,-0.7799l0.36427,-1.22753l0.85528,-0.26834l0.88268,0.58922l3.56156,-1.50841l0.92379,0.85871l-0.15416,1.02313l-2.13877,1.11904l-0.35056,0.63945l-5.59414,2.64571z"/></g></g><g><path d="M432.11948,313.99647c0,17.40393 -15.45236,31.51261 -34.5138,31.51261c-19.06145,0 -34.5138,-14.10868 -34.5138,-31.51261c0,-17.40393 15.45235,-31.51261 34.5138,-31.51261c19.06145,0 34.5138,14.10868 34.5138,31.51261z" fill="#fff8c9" stroke="#000000" stroke-width="1" stroke-linecap="butt"/><path d="M430.25694,323.76954c-0.34109,0.26927 -0.42056,1.85454 -0.53289,2.37374c-0.22519,1.04087 -1.40807,2.37084 -1.77114,3.13533c-0.89913,1.8932 -2.49658,2.678 -3.48052,4.40754c-1.58228,2.78126 -4.39281,4.48057 -4.39281,4.48057c0,0 -12.07956,7.34236 -22.47391,7.34236c-7.59104,0 -14.53638,-1.86016 -19.81812,-5.74036c-7.98094,-5.86317 -12.51347,-14.58839 -12.51347,-14.58839c0,0 77.1626,-11.02604 64.98286,-1.41078z" fill="#4d5d29" stroke="#000000" stroke-width="1" stroke-linecap="butt"/><path d="M364.93812,297.85617c0,0 5.3606,-9.79313 14.14652,-14.95918c6.61296,-3.88837 18.47277,-4.77581 23.12359,-4.79954c3.97469,-0.02028 12.37309,2.72801 17.16794,6.3459c6.87739,5.18924 9.68072,11.83354 9.68072,11.83354l-1.57928,1.57928c0,0 -23.19599,-2.12459 -34.10947,-2.35315c-8.68023,-0.18178 -28.43001,2.35315 -28.43001,2.35315z" fill="#4d5d29" stroke="#000000" stroke-width="1" stroke-linecap="round"/><path d="M390.48078,322.02351l3.26115,14.60997" fill="none" stroke="#000000" stroke-width="1" stroke-linecap="round"/><path d="M388.17632,328.28492c0,-0.55228 0.44772,-1 1,-1c0.55228,0 1,0.44772 1,1c0,0.55228 -0.44772,1 -1,1c-0.55228,0 -1,-0.44772 -1,-1z" fill="#93b04d" stroke="none" stroke-width="0.5" stroke-linecap="butt"/><path d="M389.21988,332.72009c0,-0.55228 0.44772,-1 1,-1c0.55228,0 1,0.44772 1,1c0,0.55228 -0.44772,1 -1,1c-0.55228,0 -1,-0.44772 -1,-1z" fill="#93b04d" stroke="none" stroke-width="0.5" stroke-linecap="butt"/><path d="M393.39416,328.8067c0,-0.55228 0.44772,-1 1,-1c0.55228,0 1,0.44772 1,1c0,0.55228 -0.44772,1 -1,1c-0.55228,0 -1,-0.44772 -1,-1z" fill="#93b04d" stroke="none" stroke-width="0.5" stroke-linecap="butt"/><path d="M394.95951,334.02455c0,-0.55228 0.44772,-1 1,-1c0.55228,0 1,0.44772 1,1c0,0.55228 -0.44772,1 -1,1c-0.55228,0 -1,-0.44772 -1,-1z" fill="#93b04d" stroke="none" stroke-width="0.5" stroke-linecap="butt"/><path d="M373.80659,308.11121c0,0 1.10122,-0.65223 1.6958,-0.65223c0.65963,0 2.08714,0.65223 2.08714,0.65223" fill="none" stroke="#000000" stroke-width="1" stroke-linecap="round"/><path d="M393.62382,306.21544c0,0 1.65182,-0.97834 2.5437,-0.97834c0.98945,0 3.13071,0.97834 3.13071,0.97834" fill="none" stroke="#000000" stroke-width="1" stroke-linecap="round"/><g fill="#545454" stroke="#ffffff" stroke-width="0.75" stroke-linecap="round"><path d="M397.15613,317.92434l1.22394,0.43101l1.64089,-1.13824l-0.54354,-1.53857l5.19155,-2.66431l0.93108,-1.99514l5.54549,-2.62178l0.79421,0.65098l0.27113,1.27126l4.29724,-2.19975l1.21755,0.89527l22.5081,-9.10843l4.33554,8.68147l-6.35377,-0.6523l0.96687,1.78285l-5.84858,-0.88379l-2.81624,1.27892l-1.09859,-0.8748l-3.05667,0.96813l-1.45287,-0.66634l-4.54505,3.10619l-2.27781,2.27777l8.80416,6.33977l-3.53374,4.16804l-7.96647,-5.65681l-9.88208,5.51279l-2.48495,-3.63603l-1.39787,-0.55891l-1.95423,1.10883l-0.05884,0.62668l-13.80108,7.47145l-1.34869,-0.42406l-3.13678,1.5815l-0.99572,-1.3303l-10.53283,5.29486l-0.08336,0.3574l-5.06544,2.49614l-0.83128,-2.28607l4.94554,-1.92633l0.42706,0.31402l10.58193,-5.19894l-2.66855,-5.96982l5.80079,1.87275z"/><path d="M382.64497,327.22387l-1.86129,0.90436l-1.52211,-2.97349z"/><path d="M410.75407,320.66192l-0.05365,-2.6115l0.98774,-0.52984l0.06735,2.02343l1.29149,-1.02426l0.22496,-1.68886l0.46932,-0.31287l0.78446,2.43108l-3.17104,2.03483z"/><path d="M410.65067,322.52079l3.75103,10.35468l-6.98609,1.20349l-1.98112,-8.69436z"/><path d="M403.97949,311.73995l-3.14931,-2.79423l3.40856,-1.38166l1.0334,0.22153l1.94922,-0.77989l0.36427,-1.22753l0.85528,-0.26834l0.88268,0.58923l3.56156,-1.50841l0.92379,0.85871l-0.15416,1.02313l-2.13877,1.11903l-0.35056,0.63945l-5.59414,2.64571z"/></g></g><g><path d="M345.44055,77.90643c0,17.40393 -15.45236,31.51261 -34.5138,31.51261c-19.06145,0 -34.5138,-14.10868 -34.5138,-31.51261c0,-17.40393 15.45235,-31.51261 34.5138,-31.51261c19.06145,0 34.5138,14.10868 34.5138,31.51261z" fill="#fff8c9" stroke="#000000" stroke-width="1" stroke-linecap="butt"/><path d="M343.57801,87.6795c-0.34109,0.26927 -0.42056,1.85454 -0.53289,2.37374c-0.22519,1.04087 -1.40807,2.37084 -1.77114,3.13533c-0.89913,1.8932 -2.49658,2.678 -3.48052,4.40754c-1.58228,2.78126 -4.39281,4.48057 -4.39281,4.48057c0,0 -12.07956,7.34236 -22.47391,7.34236c-7.59104,0 -14.53638,-1.86016 -19.81812,-5.74036c-7.98094,-5.86317 -12.51347,-14.58839 -12.51347,-14.58839c0,0 77.1626,-11.02604 64.98286,-1.41078z" fill="#4d5d29" stroke="#000000" stroke-width="1" stroke-linecap="butt"/><path d="M278.25919,61.76613c0,0 5.3606,-9.79313 14.14652,-14.95918c6.61296,-3.88837 18.47277,-4.77581 23.12359,-4.79954c3.97469,-0.02028 12.37309,2.72801 17.16794,6.3459c6.87739,5.18924 9.68072,11.83354 9.68072,11.83354l-1.57928,1.57928c0,0 -23.19599,-2.12459 -34.10947,-2.35315c-8.68023,-0.18178 -28.43001,2.35315 -28.43001,2.35315z" fill="#4d5d29" stroke="#000000" stroke-width="1" stroke-linecap="round"/><path d="M303.80185,85.93347l3.26115,14.60997" fill="none" stroke="#000000" stroke-width="1" stroke-linecap="round"/><path d="M301.49739,92.19488c0,-0.55228 0.44772,-1 1,-1c0.55228,0 1,0.44772 1,1c0,0.55228 -0.44772,1 -1,1c-0.55228,0 -1,-0.44772 -1,-1z" fill="#93b04d" stroke="none" stroke-width="0.5" stroke-linecap="butt"/><path d="M302.54095,96.63005c0,-0.55228 0.44772,-1 1,-1c0.55228,0 1,0.44772 1,1c0,0.55228 -0.44772,1 -1,1c-0.55228,0 -1,-0.44772 -1,-1z" fill="#93b04d" stroke="none" stroke-width="0.5" stroke-linecap="butt"/><path d="M306.71523,92.71666c0,-0.55228 0.44772,-1 1,-1c0.55228,0 1,0.44772 1,1c0,0.55228 -0.44772,1 -1,1c-0.55228,0 -1,-0.44772 -1,-1z" fill="#93b04d" stroke="none" stroke-width="0.5" stroke-linecap="butt"/><path d="M308.28058,97.93451c0,-0.55228 0.44772,-1 1,-1c0.55228,0 1,0.44772 1,1c0,0.55228 -0.44772,1 -1,1c-0.55228,0 -1,-0.44772 -1,-1z" fill="#93b04d" stroke="none" stroke-width="0.5" stroke-linecap="butt"/><path d="M287.12766,72.02117c0,0 1.10122,-0.65223 1.6958,-0.65223c0.65963,0 2.08714,0.65223 2.08714,0.65223" fill="none" stroke="#000000" stroke-width="1" stroke-linecap="round"/><path d="M306.94489,70.1254c0,0 1.65182,-0.97834 2.5437,-0.97834c0.98945,0 3.13071,0.97834 3.13071,0.97834" fill="none" stroke="#000000" stroke-width="1" stroke-linecap="round"/><g fill="#545454" stroke="#ffffff" stroke-width="0.75" stroke-linecap="round"><path d="M310.4772,81.8343l1.22394,0.43101l1.64089,-1.13824l-0.54354,-1.53857l5.19155,-2.66431l0.93108,-1.99514l5.54549,-2.62178l0.79421,0.65098l0.27113,1.27126l4.29724,-2.19974l1.21755,0.89527l22.5081,-9.10843l4.33554,8.68146l-6.35377,-0.6523l0.96687,1.78285l-5.84858,-0.88379l-2.81624,1.27892l-1.09859,-0.8748l-3.05667,0.96813l-1.45287,-0.66634l-4.54505,3.10619l-2.27781,2.27777l8.80416,6.33977l-3.53374,4.16803l-7.96647,-5.6568l-9.88208,5.51279l-2.48495,-3.63603l-1.39787,-0.55891l-1.95423,1.10883l-0.05884,0.62668l-13.80108,7.47145l-1.34869,-0.42406l-3.13678,1.58149l-0.99572,-1.33031l-10.53283,5.29487l-0.08336,0.35741l-5.06544,2.49613l-0.83128,-2.28607l4.94554,-1.92633l0.42706,0.31402l10.58193,-5.19895l-2.66855,-5.96982l5.80079,1.87274z"/><path d="M295.96604,91.13383l-1.86129,0.90437l-1.52211,-2.9735z"/><path d="M324.07515,84.57188l-0.05365,-2.6115l0.98774,-0.52983l0.06735,2.02343l1.29149,-1.02426l0.22496,-1.68886l0.46932,-0.31287l0.78446,2.43109l-3.17104,2.03482z"/><path d="M323.97174,86.43075l3.75103,10.35468l-6.98609,1.2035l-1.98112,-8.69436z"/><path d="M317.30057,75.64991l-3.14931,-2.79423l3.40856,-1.38166l1.0334,0.22154l1.94922,-0.7799l0.36427,-1.22753l0.85528,-0.26834l0.88268,0.58922l3.56156,-1.50841l0.92379,0.85871l-0.15416,1.02313l-2.13877,1.11903l-0.35056,0.63945l-5.59414,2.64571z"/></g></g><g><path d="M341.43695,130.3254c0,17.40393 -15.45236,31.51261 -34.5138,31.51261c-19.06145,0 -34.5138,-14.10868 -34.5138,-31.51261c0,-17.40393 15.45235,-31.51261 34.5138,-31.51261c19.06145,0 34.5138,14.10868 34.5138,31.51261z" fill="#fff8c9" stroke="#000000" stroke-width="1" stroke-linecap="butt"/><path d="M339.57441,140.09847c-0.34109,0.26927 -0.42056,1.85454 -0.53289,2.37374c-0.22519,1.04087 -1.40807,2.37084 -1.77114,3.13533c-0.89913,1.8932 -2.49658,2.678 -3.48052,4.40754c-1.58228,2.78126 -4.39281,4.48057 -4.39281,4.48057c0,0 -12.07956,7.34236 -22.47391,7.34236c-7.59104,0 -14.53638,-1.86016 -19.81812,-5.74036c-7.98094,-5.86317 -12.51347,-14.58839 -12.51347,-14.58839c0,0 77.1626,-11.02604 64.98286,-1.41078z" fill="#4d5d29" stroke="#000000" stroke-width="1" stroke-linecap="butt"/><path d="M274.25559,114.1851c0,0 5.3606,-9.79313 14.14652,-14.95918c6.61296,-3.88837 18.47277,-4.77581 23.12359,-4.79954c3.97469,-0.02028 12.37309,2.72801 17.16794,6.3459c6.87739,5.18924 9.68072,11.83354 9.68072,11.83354l-1.57928,1.57928c0,0 -23.19599,-2.12459 -34.10947,-2.35315c-8.68023,-0.18178 -28.43001,2.35315 -28.43001,2.35315z" fill="#4d5d29" stroke="#000000" stroke-width="1" stroke-linecap="round"/><path d="M299.79825,138.35244l3.26115,14.60997" fill="none" stroke="#000000" stroke-width="1" stroke-linecap="round"/><path d="M297.49379,144.61385c0,-0.55228 0.44772,-1 1,-1c0.55228,0 1,0.44772 1,1c0,0.55228 -0.44772,1 -1,1c-0.55228,0 -1,-0.44772 -1,-1z" fill="#93b04d" stroke="none" stroke-width="0.5" stroke-linecap="butt"/><path d="M298.53735,149.04902c0,-0.55228 0.44772,-1 1,-1c0.55228,0 1,0.44772 1,1c0,0.55228 -0.44772,1 -1,1c-0.55228,0 -1,-0.44772 -1,-1z" fill="#93b04d" stroke="none" stroke-width="0.5" stroke-linecap="butt"/><path d="M302.71163,145.13563c0,-0.55228 0.44772,-1 1,-1c0.55228,0 1,0.44772 1,1c0,0.55228 -0.44772,1 -1,1c-0.55228,0 -1,-0.44772 -1,-1z" fill="#93b04d" stroke="none" stroke-width="0.5" stroke-linecap="butt"/><path d="M304.27698,150.35348c0,-0.55228 0.44772,-1 1,-1c0.55228,0 1,0.44772 1,1c0,0.55228 -0.44772,1 -1,1c-0.55228,0 -1,-0.44772 -1,-1z" fill="#93b04d" stroke="none" stroke-width="0.5" stroke-linecap="butt"/><path d="M283.12406,124.44014c0,0 1.10122,-0.65223 1.6958,-0.65223c0.65963,0 2.08714,0.65223 2.08714,0.65223" fill="none" stroke="#000000" stroke-width="1" stroke-linecap="round"/><path d="M302.94129,122.54437c0,0 1.65182,-0.97834 2.5437,-0.97834c0.98945,0 3.13071,0.97834 3.13071,0.97834" fill="none" stroke="#000000" stroke-width="1" stroke-linecap="round"/><g fill="#545454" stroke="#ffffff" stroke-width="0.75" stroke-linecap="round"><path d="M306.4736,134.25327l1.22394,0.43101l1.64089,-1.13824l-0.54354,-1.53857l5.19155,-2.66431l0.93108,-1.99514l5.54549,-2.62178l0.79422,0.65098l0.27112,1.27126l4.29724,-2.19975l1.21755,0.89527l22.5081,-9.10843l4.33553,8.68147l-6.35377,-0.6523l0.96687,1.78285l-5.84858,-0.88378l-2.81624,1.27891l-1.09859,-0.8748l-3.05667,0.96814l-1.45287,-0.66634l-4.54505,3.10619l-2.27781,2.27777l8.80417,6.33977l-3.53374,4.16804l-7.96647,-5.6568l-9.88208,5.51279l-2.48495,-3.63604l-1.39787,-0.55891l-1.95423,1.10882l-0.05884,0.62668l-13.80108,7.47145l-1.34869,-0.42406l-3.13678,1.5815l-0.99572,-1.33031l-10.53283,5.29486l-0.08336,0.35741l-5.06544,2.49614l-0.83128,-2.28607l4.94554,-1.92633l0.42707,0.31402l10.58193,-5.19894l-2.66855,-5.96982l5.80079,1.87274z"/><path d="M291.96244,143.5528l-1.86129,0.90436l-1.52211,-2.97349z"/><path d="M320.07155,136.99085l-0.05365,-2.6115l0.98774,-0.52983l0.06735,2.02343l1.29149,-1.02427l0.22496,-1.68885l0.46932,-0.31287l0.78446,2.43108l-3.17104,2.03483z"/><path d="M319.96814,138.84972l3.75103,10.35468l-6.98609,1.2035l-1.98112,-8.69436z"/><path d="M313.29697,128.06888l-3.14931,-2.79423l3.40856,-1.38166l1.03341,0.22153l1.94921,-0.77989l0.36427,-1.22753l0.85528,-0.26834l0.88268,0.58923l3.56157,-1.50841l0.92378,0.85871l-0.15416,1.02313l-2.13877,1.11903l-0.35056,0.63945l-5.59414,2.64572z"/></g></g><g><path d="M341.2057,182.22958c0,17.40393 -15.45236,31.51261 -34.5138,31.51261c-19.06145,0 -34.5138,-14.10868 -34.5138,-31.51261c0,-17.40393 15.45235,-31.51261 34.5138,-31.51261c19.06145,0 34.5138,14.10868 34.5138,31.51261z" fill="#fff8c9" stroke="#000000" stroke-width="1" stroke-linecap="butt"/><path d="M339.34316,192.00265c-0.34109,0.26927 -0.42056,1.85454 -0.53289,2.37374c-0.22519,1.04087 -1.40807,2.37084 -1.77114,3.13533c-0.89913,1.8932 -2.49658,2.678 -3.48052,4.40754c-1.58228,2.78126 -4.39281,4.48057 -4.39281,4.48057c0,0 -12.07956,7.34236 -22.47391,7.34236c-7.59104,0 -14.53638,-1.86016 -19.81812,-5.74036c-7.98094,-5.86317 -12.51347,-14.58839 -12.51347,-14.58839c0,0 77.1626,-11.02604 64.98286,-1.41078z" fill="#4d5d29" stroke="#000000" stroke-width="1" stroke-linecap="butt"/><path d="M274.02434,166.08928c0,0 5.3606,-9.79313 14.14652,-14.95918c6.61296,-3.88837 18.47277,-4.77581 23.12359,-4.79954c3.97469,-0.02028 12.37309,2.72801 17.16794,6.3459c6.87739,5.18924 9.68072,11.83354 9.68072,11.83354l-1.57928,1.57928c0,0 -23.19599,-2.12459 -34.10947,-2.35315c-8.68023,-0.18178 -28.43001,2.35315 -28.43001,2.35315z" fill="#4d5d29" stroke="#000000" stroke-width="1" stroke-linecap="round"/><path d="M299.567,190.25662l3.26115,14.60997" fill="none" stroke="#000000" stroke-width="1" stroke-linecap="round"/><path d="M297.26254,196.51803c0,-0.55228 0.44772,-1 1,-1c0.55228,0 1,0.44772 1,1c0,0.55228 -0.44772,1 -1,1c-0.55228,0 -1,-0.44772 -1,-1z" fill="#93b04d" stroke="none" stroke-width="0.5" stroke-linecap="butt"/><path d="M298.3061,200.9532c0,-0.55228 0.44772,-1 1,-1c0.55228,0 1,0.44772 1,1c0,0.55228 -0.44772,1 -1,1c-0.55228,0 -1,-0.44772 -1,-1z" fill="#93b04d" stroke="none" stroke-width="0.5" stroke-linecap="butt"/><path d="M302.48038,197.03981c0,-0.55228 0.44772,-1 1,-1c0.55228,0 1,0.44772 1,1c0,0.55228 -0.44772,1 -1,1c-0.55228,0 -1,-0.44772 -1,-1z" fill="#93b04d" stroke="none" stroke-width="0.5" stroke-linecap="butt"/><path d="M304.04573,202.25766c0,-0.55228 0.44772,-1 1,-1c0.55228,0 1,0.44772 1,1c0,0.55228 -0.44772,1 -1,1c-0.55228,0 -1,-0.44772 -1,-1z" fill="#93b04d" stroke="none" stroke-width="0.5" stroke-linecap="butt"/><path d="M282.89281,176.34432c0,0 1.10122,-0.65223 1.6958,-0.65223c0.65963,0 2.08714,0.65223 2.08714,0.65223" fill="none" stroke="#000000" stroke-width="1" stroke-linecap="round"/><path d="M302.71004,174.44855c0,0 1.65182,-0.97834 2.5437,-0.97834c0.98945,0 3.13071,0.97834 3.13071,0.97834" fill="none" stroke="#000000" stroke-width="1" stroke-linecap="round"/><g fill="#545454" stroke="#ffffff" stroke-width="0.75" stroke-linecap="round"><path d="M306.24235,186.15745l1.22395,0.43101l1.64089,-1.13823l-0.54354,-1.53857l5.19155,-2.66431l0.93108,-1.99513l5.54549,-2.62179l0.79422,0.65099l0.27112,1.27126l4.29724,-2.19975l1.21755,0.89527l22.5081,-9.10843l4.33553,8.68147l-6.35377,-0.6523l0.96687,1.78285l-5.84858,-0.88379l-2.81624,1.27892l-1.09859,-0.8748l-3.05667,0.96813l-1.45287,-0.66634l-4.54505,3.10619l-2.27781,2.27777l8.80417,6.33977l-3.53374,4.16804l-7.96646,-5.65681l-9.88208,5.51279l-2.48495,-3.63603l-1.39787,-0.55891l-1.95423,1.10882l-0.05883,0.62668l-13.80108,7.47145l-1.34869,-0.42406l-3.13678,1.58149l-0.99572,-1.3303l-10.53283,5.29486l-0.08336,0.35741l-5.06544,2.49614l-0.83128,-2.28607l4.94554,-1.92633l0.42707,0.31402l10.58193,-5.19895l-2.66855,-5.96982l5.80079,1.87275z"/><path d="M291.73119,195.45697l-1.86129,0.90437l-1.52211,-2.9735z"/><path d="M319.8403,188.89502l-0.05365,-2.6115l0.98774,-0.52983l0.06736,2.02343l1.29148,-1.02426l0.22496,-1.68885l0.46932,-0.31287l0.78445,2.43108l-3.17104,2.03482z"/><path d="M319.73689,190.7539l3.75103,10.35468l-6.98609,1.2035l-1.98111,-8.69436z"/><path d="M313.06572,179.97305l-3.14931,-2.79423l3.40855,-1.38166l1.03341,0.22153l1.94921,-0.7799l0.36427,-1.22753l0.85528,-0.26834l0.88268,0.58922l3.56157,-1.50841l0.92379,0.85871l-0.15417,1.02313l-2.13877,1.11903l-0.35056,0.63945l-5.59414,2.64571z"/></g></g><g><path d="M347.23527,229.16093c0,17.40393 -15.45236,31.51261 -34.5138,31.51261c-19.06145,0 -34.5138,-14.10868 -34.5138,-31.51261c0,-17.40393 15.45235,-31.51261 34.5138,-31.51261c19.06145,0 34.5138,14.10868 34.5138,31.51261z" fill="#fff8c9" stroke="#000000" stroke-width="1" stroke-linecap="butt"/><path d="M345.37273,238.934c-0.34109,0.26927 -0.42056,1.85454 -0.53289,2.37374c-0.22519,1.04087 -1.40807,2.37084 -1.77114,3.13533c-0.89913,1.8932 -2.49658,2.678 -3.48052,4.40754c-1.58228,2.78126 -4.39281,4.48057 -4.39281,4.48057c0,0 -12.07956,7.34236 -22.47391,7.34236c-7.59104,0 -14.53638,-1.86016 -19.81812,-5.74036c-7.98094,-5.86317 -12.51347,-14.58839 -12.51347,-14.58839c0,0 77.1626,-11.02604 64.98286,-1.41078z" fill="#4d5d29" stroke="#000000" stroke-width="1" stroke-linecap="butt"/><path d="M280.05391,213.02063c0,0 5.3606,-9.79313 14.14652,-14.95918c6.61296,-3.88837 18.47277,-4.77581 23.12359,-4.79954c3.97469,-0.02028 12.37309,2.72801 17.16794,6.3459c6.87739,5.18924 9.68072,11.83354 9.68072,11.83354l-1.57928,1.57928c0,0 -23.19599,-2.12459 -34.10947,-2.35315c-8.68023,-0.18178 -28.43001,2.35315 -28.43001,2.35315z" fill="#4d5d29" stroke="#000000" stroke-width="1" stroke-linecap="round"/><path d="M305.59657,237.18797l3.26115,14.60997" fill="none" stroke="#000000" stroke-width="1" stroke-linecap="round"/><path d="M303.29211,243.44938c0,-0.55228 0.44772,-1 1,-1c0.55228,0 1,0.44772 1,1c0,0.55228 -0.44772,1 -1,1c-0.55228,0 -1,-0.44772 -1,-1z" fill="#93b04d" stroke="none" stroke-width="0.5" stroke-linecap="butt"/><path d="M304.33567,247.88455c0,-0.55228 0.44772,-1 1,-1c0.55228,0 1,0.44772 1,1c0,0.55228 -0.44772,1 -1,1c-0.55228,0 -1,-0.44772 -1,-1z" fill="#93b04d" stroke="none" stroke-width="0.5" stroke-linecap="butt"/><path d="M308.50995,243.97116c0,-0.55228 0.44772,-1 1,-1c0.55228,0 1,0.44772 1,1c0,0.55228 -0.44772,1 -1,1c-0.55228,0 -1,-0.44772 -1,-1z" fill="#93b04d" stroke="none" stroke-width="0.5" stroke-linecap="butt"/><path d="M310.0753,249.18901c0,-0.55228 0.44772,-1 1,-1c0.55228,0 1,0.44772 1,1c0,0.55228 -0.44772,1 -1,1c-0.55228,0 -1,-0.44772 -1,-1z" fill="#93b04d" stroke="none" stroke-width="0.5" stroke-linecap="butt"/><path d="M288.92238,223.27567c0,0 1.10122,-0.65223 1.6958,-0.65223c0.65963,0 2.08714,0.65223 2.08714,0.65223" fill="none" stroke="#000000" stroke-width="1" stroke-linecap="round"/><path d="M308.73961,221.3799c0,0 1.65182,-0.97834 2.5437,-0.97834c0.98945,0 3.13071,0.97834 3.13071,0.97834" fill="none" stroke="#000000" stroke-width="1" stroke-linecap="round"/><g fill="#545454" stroke="#ffffff" stroke-width="0.75" stroke-linecap="round"><path d="M312.27192,233.0888l1.22395,0.43101l1.64089,-1.13824l-0.54354,-1.53857l5.19155,-2.66431l0.93108,-1.99514l5.54549,-2.62179l0.79422,0.65099l0.27112,1.27126l4.29724,-2.19975l1.21755,0.89527l22.5081,-9.10843l4.33553,8.68147l-6.35377,-0.6523l0.96687,1.78285l-5.84858,-0.88378l-2.81624,1.27891l-1.09859,-0.8748l-3.05667,0.96813l-1.45287,-0.66634l-4.54505,3.10619l-2.27781,2.27777l8.80417,6.33977l-3.53374,4.16804l-7.96646,-5.6568l-9.88208,5.51278l-2.48495,-3.63603l-1.39787,-0.55891l-1.95423,1.10882l-0.05883,0.62668l-13.80108,7.47145l-1.34869,-0.42406l-3.13678,1.58149l-0.99572,-1.3303l-10.53283,5.29486l-0.08336,0.35741l-5.06544,2.49614l-0.83128,-2.28607l4.94554,-1.92633l0.42707,0.31402l10.58193,-5.19895l-2.66855,-5.96982l5.80079,1.87275z"/><path d="M297.76076,242.38833l-1.86129,0.90436l-1.52211,-2.97349z"/><path d="M325.86987,235.82638l-0.05365,-2.6115l0.98774,-0.52984l0.06736,2.02343l1.29148,-1.02427l0.22496,-1.68885l0.46932,-0.31287l0.78446,2.43108l-3.17104,2.03483z"/><path d="M325.76646,237.68525l3.75103,10.35468l-6.98609,1.2035l-1.98111,-8.69436z"/><path d="M319.09529,226.90441l-3.14931,-2.79423l3.40855,-1.38166l1.03341,0.22153l1.94921,-0.77989l0.36427,-1.22753l0.85528,-0.26834l0.88268,0.58922l3.56157,-1.50841l0.92379,0.85871l-0.15417,1.02313l-2.13877,1.11903l-0.35056,0.63945l-5.59414,2.64571z"/></g></g><g><path d="M349.83431,267.77438c0,17.40393 -15.45236,31.51261 -34.5138,31.51261c-19.06145,0 -34.5138,-14.10868 -34.5138,-31.51261c0,-17.40393 15.45235,-31.51261 34.5138,-31.51261c19.06145,0 34.5138,14.10868 34.5138,31.51261z" fill="#fff8c9" stroke="#000000" stroke-width="1" stroke-linecap="butt"/><path d="M347.97177,277.54745c-0.34109,0.26927 -0.42056,1.85454 -0.53289,2.37374c-0.22519,1.04087 -1.40807,2.37084 -1.77114,3.13533c-0.89913,1.8932 -2.49658,2.678 -3.48052,4.40754c-1.58228,2.78126 -4.39281,4.48057 -4.39281,4.48057c0,0 -12.07956,7.34236 -22.47391,7.34236c-7.59104,0 -14.53638,-1.86016 -19.81812,-5.74036c-7.98094,-5.86317 -12.51347,-14.58839 -12.51347,-14.58839c0,0 77.1626,-11.02604 64.98286,-1.41078z" fill="#4d5d29" stroke="#000000" stroke-width="1" stroke-linecap="butt"/><path d="M282.65295,251.63408c0,0 5.3606,-9.79313 14.14652,-14.95918c6.61296,-3.88837 18.47277,-4.77581 23.12359,-4.79954c3.97469,-0.02028 12.37309,2.72801 17.16794,6.3459c6.87739,5.18924 9.68072,11.83354 9.68072,11.83354l-1.57928,1.57928c0,0 -23.19599,-2.12459 -34.10947,-2.35315c-8.68023,-0.18178 -28.43001,2.35315 -28.43001,2.35315z" fill="#4d5d29" stroke="#000000" stroke-width="1" stroke-linecap="round"/><path d="M308.19561,275.80142l3.26115,14.60997" fill="none" stroke="#000000" stroke-width="1" stroke-linecap="round"/><path d="M305.89115,282.06283c0,-0.55228 0.44772,-1 1,-1c0.55228,0 1,0.44772 1,1c0,0.55228 -0.44772,1 -1,1c-0.55228,0 -1,-0.44772 -1,-1z" fill="#93b04d" stroke="none" stroke-width="0.5" stroke-linecap="butt"/><path d="M306.93471,286.498c0,-0.55228 0.44772,-1 1,-1c0.55228,0 1,0.44772 1,1c0,0.55228 -0.44772,1 -1,1c-0.55228,0 -1,-0.44772 -1,-1z" fill="#93b04d" stroke="none" stroke-width="0.5" stroke-linecap="butt"/><path d="M311.10899,282.58461c0,-0.55228 0.44772,-1 1,-1c0.55228,0 1,0.44772 1,1c0,0.55228 -0.44772,1 -1,1c-0.55228,0 -1,-0.44772 -1,-1z" fill="#93b04d" stroke="none" stroke-width="0.5" stroke-linecap="butt"/><path d="M312.67434,287.80246c0,-0.55228 0.44772,-1 1,-1c0.55228,0 1,0.44772 1,1c0,0.55228 -0.44772,1 -1,1c-0.55228,0 -1,-0.44772 -1,-1z" fill="#93b04d" stroke="none" stroke-width="0.5" stroke-linecap="butt"/><path d="M291.52142,261.88912c0,0 1.10122,-0.65223 1.6958,-0.65223c0.65963,0 2.08714,0.65223 2.08714,0.65223" fill="none" stroke="#000000" stroke-width="1" stroke-linecap="round"/><path d="M311.33865,259.99335c0,0 1.65182,-0.97834 2.5437,-0.97834c0.98945,0 3.13071,0.97834 3.13071,0.97834" fill="none" stroke="#000000" stroke-width="1" stroke-linecap="round"/><g fill="#545454" stroke="#ffffff" stroke-width="0.75" stroke-linecap="round"><path d="M314.87096,271.70225l1.22394,0.43101l1.64089,-1.13824l-0.54354,-1.53857l5.19155,-2.66431l0.93108,-1.99514l5.54549,-2.62178l0.79422,0.65098l0.27112,1.27126l4.29724,-2.19975l1.21755,0.89527l22.5081,-9.10843l4.33553,8.68147l-6.35377,-0.6523l0.96687,1.78285l-5.84858,-0.88378l-2.81624,1.27891l-1.09859,-0.8748l-3.05667,0.96813l-1.45287,-0.66634l-4.54505,3.10619l-2.27781,2.27777l8.80417,6.33977l-3.53374,4.16804l-7.96646,-5.65681l-9.88208,5.51279l-2.48495,-3.63603l-1.39787,-0.55891l-1.95423,1.10883l-0.05883,0.62668l-13.80108,7.47145l-1.34869,-0.42406l-3.13678,1.5815l-0.99572,-1.33031l-10.53283,5.29487l-0.08336,0.3574l-5.06544,2.49614l-0.83128,-2.28607l4.94554,-1.92633l0.42707,0.31402l10.58193,-5.19894l-2.66855,-5.96982l5.80079,1.87275z"/><path d="M300.3598,281.00177l-1.86129,0.90436l-1.52211,-2.9735z"/><path d="M328.46891,274.43982l-0.05365,-2.6115l0.98774,-0.52984l0.06735,2.02343l1.29149,-1.02427l0.22496,-1.68885l0.46932,-0.31287l0.78446,2.43108l-3.17104,2.03483z"/><path d="M328.3655,276.2987l3.75103,10.35468l-6.98609,1.2035l-1.98111,-8.69436z"/><path d="M321.69433,265.51785l-3.14931,-2.79423l3.40855,-1.38166l1.03341,0.22154l1.94921,-0.7799l0.36427,-1.22753l0.85528,-0.26834l0.88268,0.58922l3.56157,-1.50841l0.92379,0.85871l-0.15417,1.02313l-2.13877,1.11903l-0.35056,0.63945l-5.59414,2.64571z"/></g></g><g><path d="M350.03239,312.99047c0,17.40393 -15.45236,31.51261 -34.5138,31.51261c-19.06145,0 -34.5138,-14.10868 -34.5138,-31.51261c0,-17.40393 15.45235,-31.51261 34.5138,-31.51261c19.06145,0 34.5138,14.10868 34.5138,31.51261z" fill="#fff8c9" stroke="#000000" stroke-width="1" stroke-linecap="butt"/><path d="M348.16985,322.76354c-0.34109,0.26927 -0.42056,1.85454 -0.53289,2.37374c-0.22519,1.04087 -1.40807,2.37084 -1.77114,3.13533c-0.89913,1.8932 -2.49658,2.678 -3.48052,4.40754c-1.58228,2.78126 -4.39281,4.48057 -4.39281,4.48057c0,0 -12.07956,7.34236 -22.47391,7.34236c-7.59104,0 -14.53638,-1.86016 -19.81812,-5.74036c-7.98094,-5.86317 -12.51347,-14.58839 -12.51347,-14.58839c0,0 77.1626,-11.02604 64.98286,-1.41078z" fill="#4d5d29" stroke="#000000" stroke-width="1" stroke-linecap="butt"/><path d="M282.85103,296.85017c0,0 5.3606,-9.79313 14.14652,-14.95918c6.61296,-3.88837 18.47277,-4.77581 23.12359,-4.79954c3.97469,-0.02028 12.37309,2.72801 17.16794,6.3459c6.87739,5.18924 9.68072,11.83354 9.68072,11.83354l-1.57928,1.57928c0,0 -23.19599,-2.12459 -34.10947,-2.35315c-8.68023,-0.18178 -28.43001,2.35315 -28.43001,2.35315z" fill="#4d5d29" stroke="#000000" stroke-width="1" stroke-linecap="round"/><path d="M308.39369,321.01751l3.26115,14.60997" fill="none" stroke="#000000" stroke-width="1" stroke-linecap="round"/><path d="M306.08923,327.27892c0,-0.55228 0.44772,-1 1,-1c0.55228,0 1,0.44772 1,1c0,0.55228 -0.44772,1 -1,1c-0.55228,0 -1,-0.44772 -1,-1z" fill="#93b04d" stroke="none" stroke-width="0.5" stroke-linecap="butt"/><path d="M307.13279,331.71409c0,-0.55228 0.44772,-1 1,-1c0.55228,0 1,0.44772 1,1c0,0.55228 -0.44772,1 -1,1c-0.55228,0 -1,-0.44772 -1,-1z" fill="#93b04d" stroke="none" stroke-width="0.5" stroke-linecap="butt"/><path d="M311.30707,327.8007c0,-0.55228 0.44772,-1 1,-1c0.55228,0 1,0.44772 1,1c0,0.55228 -0.44772,1 -1,1c-0.55228,0 -1,-0.44772 -1,-1z" fill="#93b04d" stroke="none" stroke-width="0.5" stroke-linecap="butt"/><path d="M312.87242,333.01855c0,-0.55228 0.44772,-1 1,-1c0.55228,0 1,0.44772 1,1c0,0.55228 -0.44772,1 -1,1c-0.55228,0 -1,-0.44772 -1,-1z" fill="#93b04d" stroke="none" stroke-width="0.5" stroke-linecap="butt"/><path d="M291.7195,307.10521c0,0 1.10122,-0.65223 1.6958,-0.65223c0.65963,0 2.08714,0.65223 2.08714,0.65223" fill="none" stroke="#000000" stroke-width="1" stroke-linecap="round"/><path d="M311.53673,305.20944c0,0 1.65182,-0.97834 2.5437,-0.97834c0.98945,0 3.13071,0.97834 3.13071,0.97834" fill="none" stroke="#000000" stroke-width="1" stroke-linecap="round"/><g fill="#545454" stroke="#ffffff" stroke-width="0.75" stroke-linecap="round"><path d="M315.06904,316.91834l1.22395,0.43101l1.64089,-1.13823l-0.54354,-1.53857l5.19155,-2.66431l0.93108,-1.99513l5.54549,-2.62179l0.79421,0.65099l0.27113,1.27126l4.29724,-2.19975l1.21755,0.89527l22.5081,-9.10843l4.33553,8.68147l-6.35376,-0.6523l0.96687,1.78285l-5.84858,-0.88379l-2.81624,1.27892l-1.09859,-0.8748l-3.05667,0.96813l-1.45287,-0.66634l-4.54505,3.10619l-2.27781,2.27777l8.80416,6.33977l-3.53374,4.16804l-7.96647,-5.65681l-9.88208,5.51279l-2.48495,-3.63603l-1.39787,-0.55891l-1.95423,1.10883l-0.05883,0.62668l-13.80108,7.47145l-1.34869,-0.42406l-3.13678,1.5815l-0.99572,-1.33031l-10.53283,5.29487l-0.08336,0.3574l-5.06544,2.49614l-0.83128,-2.28607l4.94554,-1.92633l0.42706,0.31402l10.58193,-5.19894l-2.66855,-5.96982l5.80079,1.87275z"/><path d="M300.55788,326.21786l-1.86129,0.90437l-1.52211,-2.9735z"/><path d="M328.66698,319.65591l-0.05365,-2.6115l0.98774,-0.52983l0.06735,2.02343l1.29149,-1.02427l0.22496,-1.68885l0.46932,-0.31287l0.78445,2.43108l-3.17104,2.03482z"/><path d="M328.56358,321.51479l3.75103,10.35468l-6.98609,1.2035l-1.98112,-8.69436z"/><path d="M321.8924,310.73394l-3.14931,-2.79423l3.40856,-1.38166l1.0334,0.22154l1.94922,-0.7799l0.36427,-1.22753l0.85528,-0.26834l0.88268,0.58922l3.56156,-1.50841l0.92379,0.85871l-0.15416,1.02313l-2.13877,1.11903l-0.35056,0.63945l-5.59414,2.64571z"/></g></g><g data-paper-data="{&quot;index&quot;:null}"><path d="M39.52316,158.9979c19.06145,0 34.5138,14.10868 34.5138,31.51261c0,17.40393 -15.45235,31.51261 -34.5138,31.51261c-19.06144,0 -34.5138,-14.10868 -34.5138,-31.51261c0,-17.40393 15.45235,-31.51261 34.5138,-31.51261z" fill="#fff8c9" stroke="#000000" stroke-width="1" stroke-linecap="butt"/><path d="M6.8719,200.28359c-12.17974,-9.61526 64.98286,1.41078 64.98286,1.41078c0,0 -4.53253,8.72522 -12.51347,14.58839c-5.28174,3.8802 -12.22708,5.74036 -19.81812,5.74036c-10.39435,0 -22.47391,-7.34236 -22.47391,-7.34236c0,0 -2.81053,-1.69931 -4.39281,-4.48057c-0.98394,-1.72954 -2.58139,-2.51434 -3.48052,-4.40754c-0.36307,-0.76449 -1.54595,-2.09446 -1.77114,-3.13533c-0.11233,-0.5192 -0.1918,-2.10447 -0.53289,-2.37374z" fill="#4d5d29" stroke="#000000" stroke-width="1" stroke-linecap="butt"/><path d="M10.32252,169.86909c0,0 5.3606,-9.79313 14.14652,-14.95918c6.61296,-3.88837 18.47277,-4.77581 23.12359,-4.79954c3.97469,-0.02028 14.16719,11.22212 14.16719,11.22212l16.05731,6.20713l-7.95587,1.95437c0,0 -20.19523,-1.74949 -31.10871,-1.97805c-8.68023,-0.18178 -28.43001,2.35315 -28.43001,2.35315z" data-paper-data="{&quot;index&quot;:null}" fill="#4d5d29" stroke="#000000" stroke-width="1" stroke-linecap="round"/><path d="M46.64806,198.53755l-3.26115,14.60997" fill="none" stroke="#000000" stroke-width="1" stroke-linecap="round"/><path d="M47.95252,205.79896c-0.55228,0 -1,-0.44772 -1,-1c0,-0.55228 0.44772,-1 1,-1c0.55228,0 1,0.44772 1,1c0,0.55228 -0.44772,1 -1,1z" fill="#93b04d" stroke="none" stroke-width="0.5" stroke-linecap="butt"/><path d="M46.90896,210.23413c-0.55228,0 -1,-0.44772 -1,-1c0,-0.55228 0.44772,-1 1,-1c0.55228,0 1,0.44772 1,1c0,0.55228 -0.44772,1 -1,1z" fill="#93b04d" stroke="none" stroke-width="0.5" stroke-linecap="butt"/><path d="M42.73468,206.32074c-0.55228,0 -1,-0.44772 -1,-1c0,-0.55228 0.44772,-1 1,-1c0.55228,0 1,0.44772 1,1c0,0.55228 -0.44772,1 -1,1z" fill="#93b04d" stroke="none" stroke-width="0.5" stroke-linecap="butt"/><path d="M41.16933,211.53859c-0.55228,0 -1,-0.44772 -1,-1c0,-0.55228 0.44772,-1 1,-1c0.55228,0 1,0.44772 1,1c0,0.55228 -0.44772,1 -1,1z" fill="#93b04d" stroke="none" stroke-width="0.5" stroke-linecap="butt"/><path d="M59.53931,184.62525c0,0 1.42751,-0.65223 2.08714,-0.65223c0.59458,0 1.6958,0.65223 1.6958,0.65223" fill="none" stroke="#000000" stroke-width="1" stroke-linecap="round"/><path d="M37.83061,182.72948c0,0 2.14126,-0.97834 3.13071,-0.97834c0.89188,0 2.5437,0.97834 2.5437,0.97834" fill="none" stroke="#000000" stroke-width="1" stroke-linecap="round"/></g></g></g></svg>