<svg version="1.1" xmlns="http://www.w3.org/2000/svg" xmlns:xlink="http://www.w3.org/1999/xlink" width="419.60579" height="120.84817" viewBox="0,0,419.60579,120.84817"><g transform="translate(-30.31527,-119.84684)"><g data-paper-data="{&quot;isPaintingLayer&quot;:true}" fill-rule="nonzero" stroke-linejoin="miter" stroke-miterlimit="10" stroke-dasharray="" stroke-dashoffset="0" style="mix-blend-mode: normal"><g><path d="M156.4612,169.14204l0.27805,-13.72626l-66.39566,-0.7743l-0.19357,-12.19512h-57.68486l-0.58072,-10.84011l3.91986,-0.6775l-0.58072,-3.6779l4.06504,-2.12931l8.13008,0.19357l3.67789,2.9036l1.93574,3.48432l154.18118,-2.2261l1.54859,-4.45219h4.06504l3.09717,-3.67789h2.71003l3.29075,4.06504l4.06504,0.38714l1.54859,4.83933l85.99497,-1.16144v4.25862l5.42006,6.00078l-1.54859,4.45218l112.51452,29.22958l15.09872,-25.16454l3.09717,2.12931l-12.00155,33.10104l-2.51645,17.61517l-3.87147,0.77429l-5.7588,-19.74448l-107.82036,-27.87457l-1.93574,1.16144l-15.67944,-4.45219l-0.77429,4.83933l-1.16144,7.74294l3.48432,6.77507l5.8072,18.1959l-2.9036,6.38792l-14.13085,3.29075l-4.06504,-3.09717l-1.74216,-11.6144l-4.25862,-12.96942l-3.48432,-0.77429l-0.19358,-3.29075l2.9036,-6.58149l0.58072,-3.87147l-2.12931,-3.6779l-90.59234,0.19358v11.80797l1.54859,3.6779l-0.77429,6.19434l-3.48432,2.71003l-6.19435,-0.38715l-2.9036,-3.67789l-16.26016,-0.7743z" fill="#545454" stroke="#ffffff" stroke-width="3" stroke-linecap="round"/><path d="M175.30352,176.1137l-2.8427,18.31965l-3.79028,13.26595l-9.15982,19.58307l-6.31712,11.37081l-16.42451,-9.15983l10.10739,-21.47821l5.68541,-14.84523l1.89514,-12.31839l-0.31586,-2.52685l2.46123,-6.89676l20.51058,2.29108z" fill="#929292" stroke="#ffffff" stroke-width="3" stroke-linecap="round"/><path d="M261.00803,152.66624l-0.23079,9.69305l3.69259,-0.34618l0.80775,-9.80845l11.30856,-0.23079l2.07708,4.96192l-3.34641,9.57766l-27.34826,-0.46157l-4.50035,-3.11562l0.92315,-10.73159z" fill="none" stroke="#ffffff" stroke-width="3" stroke-linecap="round"/><path d="M47.94591,137.03906c0,1.51291 -1.19726,2.73937 -2.67415,2.73937c-1.47689,0 -2.67415,-1.22646 -2.67415,-2.73937c0,-1.51291 1.19726,-2.73937 2.67415,-2.73937c1.47689,0 2.67415,1.22646 2.67415,2.73937z" fill="#ffffff" stroke="none" stroke-width="0" stroke-linecap="butt"/><path d="M59.99,137.21254c0,1.51291 -1.19726,2.73936 -2.67415,2.73936c-1.47689,0 -2.67415,-1.22645 -2.67415,-2.73936c0,-1.51291 1.19726,-2.73937 2.67415,-2.73937c1.47689,0 2.67415,1.22646 2.67415,2.73937z" fill="#ffffff" stroke="none" stroke-width="0" stroke-linecap="butt"/><path d="M72.16454,136.86424c0,1.51291 -1.19726,2.73936 -2.67415,2.73936c-1.47689,0 -2.67415,-1.22645 -2.67415,-2.73936c0,-1.51291 1.19726,-2.73937 2.67415,-2.73937c1.47689,0 2.67415,1.22646 2.67415,2.73937z" fill="#ffffff" stroke="none" stroke-width="0" stroke-linecap="butt"/><path d="M84.33907,136.77684c0,1.51291 -1.19726,2.73936 -2.67415,2.73936c-1.47689,0 -2.67415,-1.22645 -2.67415,-2.73936c0,-1.51291 1.19726,-2.73937 2.67415,-2.73937c1.47689,0 2.67415,1.22646 2.67415,2.73937z" fill="#ffffff" stroke="none" stroke-width="0" stroke-linecap="butt"/><path d="M109.16689,136.42858c0,1.51291 -1.19726,2.73936 -2.67415,2.73936c-1.47689,0 -2.67415,-1.22645 -2.67415,-2.73936c0,-1.51291 1.19726,-2.73937 2.67415,-2.73937c1.47689,0 2.67415,1.22646 2.67415,2.73937z" fill="#ffffff" stroke="none" stroke-width="0" stroke-linecap="butt"/><path d="M121.86321,136.7325c0,1.51291 -1.19726,2.73936 -2.67415,2.73936c-1.47689,0 -2.67414,-1.22645 -2.67414,-2.73936c0,-1.51291 1.19725,-2.73937 2.67414,-2.73937c1.47689,0 2.67415,1.22646 2.67415,2.73937z" fill="#ffffff" stroke="none" stroke-width="0" stroke-linecap="butt"/></g></g></g></svg>