<svg version="1.1" xmlns="http://www.w3.org/2000/svg" xmlns:xlink="http://www.w3.org/1999/xlink" width="451.21022" height="86.74006" viewBox="0,0,451.21022,86.74006"><g transform="translate(-15.95501,-138.66444)"><g data-paper-data="{&quot;isPaintingLayer&quot;:true}" fill-rule="nonzero" stroke="#ffffff" stroke-width="3" stroke-linecap="round" stroke-linejoin="miter" stroke-miterlimit="10" stroke-dasharray="" stroke-dashoffset="0" style="mix-blend-mode: normal"><path d="M21.91669,150.94634l-0.14286,-10l8,0.14285l0.14286,9.71429l182.10714,-3.39286v-3.71428h2.71428v-3.42857l4.28572,0.28572l0.28571,3.57143l84.85714,-0.57143l17.57142,13.85714l16.67858,1.82143l17.42857,7.42857l14.42857,-5l95.32143,5.53572l-2.71428,56.14285l-90.35715,-30.92857l-8.78572,2.14286l-9.71428,-0.57143l-19.14285,-14.57143l-13.07143,-1l0.14286,3.71429l-4.85715,-3l-0.57143,-2l-32.85714,-0.28572l0.07142,-3.14285l-71.67857,-0.57143l-132.85714,-7.82143h-9l-0.57143,-8.28572h-51.82143l-0.28571,-5z" fill="#545454"/><path d="M281.52381,173.62491l-3.42857,19.57143l-38.46428,-5.42857l1.85714,-15.28572z" fill="#929292"/><path d="M321.63096,178.33919l3.85714,0.85715l-0.57142,6.85715l-6.71429,5.71428l-11.42857,-0.28572l-6.28572,-4l-1.28571,-9.57143l15,0.14286l-1.57143,10l2.28571,0.28571l3,-9.71428z" fill="none"/><path d="M239.07071,161.76504l50.0625,0.5" fill="none"/><path d="M40.60196,161.89004l29.25,0.125" fill="none"/></g></g></svg>