<svg version="1.1" xmlns="http://www.w3.org/2000/svg" xmlns:xlink="http://www.w3.org/1999/xlink" width="340.75515" height="222.30392" viewBox="0,0,340.75515,222.30392"><g transform="translate(-67.16165,-43.70756)"><g data-paper-data="{&quot;isPaintingLayer&quot;:true}" fill="#545454" fill-rule="nonzero" stroke="#ffffff" stroke-width="3" stroke-linecap="round" stroke-linejoin="miter" stroke-miterlimit="10" stroke-dasharray="" stroke-dashoffset="0" style="mix-blend-mode: normal"><g><path d="M164.70866,85.40824l-8.57265,-25.71796l-14.35919,25.28933l-46.50664,-24.21775v-2.35748l-19.93142,-12.64467l-6.00086,9.00129l22.2889,11.57309l1.50021,-0.64295l46.72096,23.78911l-2.14317,7.07244l13.93057,7.07244l2.03383,5.94955l63.1301,29.76477l2.40039,-1.44023l9.12146,4.08065l1.68026,6.48104l-6.48103,18.48296l45.78732,20.88334l0.72012,43.44695l24.24388,1.68027l-0.48007,-48.24772l14.16226,2.16035l23.1037,8.10129l1.44023,6.96112l11.52185,8.40134l-0.24004,6.24099l12.00192,6.72108l12.24196,23.28373l3.84062,-8.16131l14.40231,24.48392l19.68315,-38.40614l-91.93471,-56.64907v-6.72108l-19.20307,-9.60153l3.84061,-4.32069l0.24004,-4.56073l-24.00384,-12.96207l-9.60154,1.92031l-23.22371,-11.58185l-4.08065,6.00096l-8.40134,-2.88046l-1.68027,-5.52088z"/><path d="M154.85011,72.54926l-6.64381,13.28762l8.14402,4.28632z"/><path d="M253.91734,173.54943l9.21561,-7.07244l4.50064,2.14317l-7.07243,5.57223l7.07243,1.92884l6.64381,-3.64338l2.35747,0.85727l-6.6438,9.2156l-15.64509,-6.00086z"/><path d="M222.98119,166.93184l-25.93228,30.00428l22.71753,21.86027l27.21818,-40.7201z"/><path d="M275.32312,129.19969l24.21774,13.0733l3.21474,-0.42864l9.64424,4.71496l4.07201,-2.14317l0.64295,-5.57223l-14.78782,-8.78697l-0.21431,-4.71496l-3.21474,-2.35748l-5.35791,1.92884l-7.92971,-4.92928l-1.92884,-4.28632l-13.93057,-8.57265l-1.71453,18.64552z"/></g></g></g></svg>