<svg version="1.1" xmlns="http://www.w3.org/2000/svg" xmlns:xlink="http://www.w3.org/1999/xlink" width="451.87419" height="69.58145" viewBox="0,0,451.87419,69.58145"><g transform="translate(-14.03746,-145.26683)"><g data-paper-data="{&quot;isPaintingLayer&quot;:true}" fill-rule="nonzero" stroke-linejoin="miter" stroke-miterlimit="10" stroke-dasharray="" stroke-dashoffset="0" style="mix-blend-mode: normal"><g><path d="M75.22346,166.5841l-49.50174,-0.4737" fill="none" stroke="#d0d0d0" stroke-width="0.5" stroke-linecap="round"/><path d="M38.57182,157.71481l0.38299,-8.80876l6.70232,0.57449l0.1915,9.38324l19.4363,-0.1915l1.91495,-3.63841l1.34047,-0.19149l2.87242,-2.87242l58.21442,-0.76598l2.10645,-1.72345l93.2101,0.19149l0.76597,-1.91495l2.10644,-0.95748l1.91495,0.1915l1.34046,0.76598l21.25592,-0.38299l0.38299,1.14897l1.91494,-0.1915l0.1915,1.53196l34.08608,-0.1915l0.76598,-1.14897h4.97886l2.29794,1.34046l54.09728,-0.57448l0.76598,3.06391l5.93634,0.95748l-0.19149,5.74484l-4.40438,1.72345l29.68169,10.67584l9.19175,-4.40438l69.32111,2.10645l2.87243,1.34046l0.19149,40.97988l-2.48943,1.72346l-44.18743,-13.59613l-9.95773,-0.76598l-10.53221,-4.21289l-18.00051,-1.34046l-16.61217,-13.40463l-19.53247,-2.68093l-0.19149,-3.4469l-2.68093,-0.38299l-2.48944,3.25541l-70.66158,-0.38299l-0.38299,1.53196l-5.36186,-0.1915l-5.74484,-1.53196l-42.32035,-6.31932l-50.88975,-0.86173l-34.08608,-0.57448l-1.6277,-3.63841h-49.98014l-3.25541,-1.34046l-22.0219,0.38298l-0.76598,4.97887h-5.55335l-0.19149,-5.17036l-29.10721,0.1915l-0.19149,-5.17036z" fill="#545454" stroke="#ffffff" stroke-width="3" stroke-linecap="round"/><path d="M141.88328,154.84237h6.70231" fill="none" stroke="#ffffff" stroke-width="3" stroke-linecap="round"/><path d="M155.50055,154.67201h6.70231" fill="none" stroke="#ffffff" stroke-width="3" stroke-linecap="round"/><path d="M174.86265,154.69315h-6.70231" fill="none" stroke="#ffffff" stroke-width="3" stroke-linecap="round"/><path d="M180.62864,154.71428h6.70231" fill="none" stroke="#ffffff" stroke-width="3" stroke-linecap="round"/><path d="M80.03581,155.41685c0,-0.55229 0.44772,-1 1,-1c0.55228,0 1,0.44771 1,1c0,0.55229 -0.44772,1 -1,1c-0.55228,0 -1,-0.44771 -1,-1z" fill="#ffffff" stroke="none" stroke-width="0.5" stroke-linecap="butt"/><path d="M86.16364,155.22536c0,-0.55229 0.44772,-1 1,-1c0.55228,0 1,0.44771 1,1c0,0.55229 -0.44772,1 -1,1c-0.55228,0 -1,-0.44771 -1,-1z" fill="#ffffff" stroke="none" stroke-width="0.5" stroke-linecap="butt"/><path d="M92.29147,155.22536c0,-0.55229 0.44772,-1 1,-1c0.55228,0 1,0.44771 1,1c0,0.55229 -0.44772,1 -1,1c-0.55228,0 -1,-0.44771 -1,-1z" fill="#ffffff" stroke="none" stroke-width="0.5" stroke-linecap="butt"/><path d="M97.65333,155.03386c0,-0.55229 0.44772,-1 1,-1c0.55228,0 1,0.44771 1,1c0,0.55229 -0.44772,1 -1,1c-0.55228,0 -1,-0.44771 -1,-1z" fill="#ffffff" stroke="none" stroke-width="0.5" stroke-linecap="butt"/><path d="M103.97266,155.03386c0,-0.55229 0.44772,-1 1,-1c0.55228,0 1,0.44771 1,1c0,0.55229 -0.44772,1 -1,1c-0.55228,0 -1,-0.44771 -1,-1z" fill="#ffffff" stroke="none" stroke-width="0.5" stroke-linecap="butt"/><path d="M109.14302,154.84237c0,-0.55229 0.44772,-1 1,-1c0.55228,0 1,0.44771 1,1c0,0.55229 -0.44772,1 -1,1c-0.55228,0 -1,-0.44771 -1,-1z" fill="#ffffff" stroke="none" stroke-width="0.5" stroke-linecap="butt"/><path d="M114.50487,154.84237c0,-0.55228 0.44772,-1 1,-1c0.55228,0 1,0.44772 1,1c0,0.55228 -0.44772,1 -1,1c-0.55228,0 -1,-0.44772 -1,-1z" fill="#ffffff" stroke="none" stroke-width="0.5" stroke-linecap="butt"/><path d="M298.5734,176.35419l0.23685,14.44788l-1.8948,13.50047l-29.6063,-4.97386l0.23685,-22.97449z" fill="#929292" stroke="#ffffff" stroke-width="3" stroke-linecap="round"/><path d="M331.73248,176.59104l2.60535,7.57921l3.07906,-0.71055l-2.13165,-6.86866h2.3685l2.3685,-3.31591l2.3685,0.4737l0.71055,4.50016l3.31591,5.44756l-2.60535,5.92126l-13.97418,-0.71055l-4.26331,-1.8948l-2.13165,-10.18457z" fill="none" stroke="#ffffff" stroke-width="3" stroke-linecap="round"/></g></g></g></svg>