<svg version="1.1" xmlns="http://www.w3.org/2000/svg" xmlns:xlink="http://www.w3.org/1999/xlink" width="442.46755" height="159.56615" viewBox="0,0,442.46755,159.56615"><g transform="translate(-18.72759,-100.11304)"><g data-paper-data="{&quot;isPaintingLayer&quot;:true}" fill-rule="nonzero" stroke="#ffffff" stroke-width="3" stroke-linejoin="miter" stroke-miterlimit="10" stroke-dasharray="" stroke-dashoffset="0" style="mix-blend-mode: normal"><g><path d="M108.63898,120.00373l0.24004,-2.64042l1.44023,-3.36054l0.24004,-5.04081l3.84061,0.48008l0.24004,5.28084l166.40662,-3.06049l0.24004,-9.84157l3.60057,0.48007v3.1205l4.32069,0.48008l0.48008,25.44407l34.62554,14.82237l24.00384,-6.48103l103.93663,14.40231l4.08065,3.60057l3.36054,6.00096v5.52088l-10.08161,32.16515l-0.72012,18.48295l-3.36053,6.241l-8.40134,3.1205l-103.27653,-48.36774h-23.52377l-11.76188,-15.84253l-14.64234,-7.68123l-0.24003,-3.84061l-34.68555,0.48008l-0.48008,6.24099l-16.32261,-0.24004l-62.16995,-26.88431l-11.94191,0.24004l0.48008,28.32453h-26.16419l-0.48007,-25.68411h-21.84349l-1.68027,-5.04081l-87.61402,0.24004l-0.48008,-9.3615z" fill="#545454" stroke-linecap="round"/><path d="M250.77191,154.44014l15.15151,-0.15002l1.9502,13.80138l1.35014,-0.15001l1.65017,-0.15002l0.15001,-13.50135h7.0507l0.30003,14.10141l-4.05041,3.60037l-20.40204,-0.15002l-4.35044,-3.30033l-0.30003,-8.55086z" fill="none" stroke-linecap="round"/><path d="M153.58512,160.7646v97.41459h-17.08218l-0.46168,-97.41459z" fill="#929292" stroke-linecap="round"/><path d="M437.07244,197.61629c0,5.77301 -4.80995,10.45296 -10.74332,10.45296c-5.93337,0 -10.74332,-4.67995 -10.74332,-10.45296c0,-5.77301 4.80995,-10.45296 10.74332,-10.45296c5.93337,0 10.74332,4.67995 10.74332,10.45296z" fill="#545454" stroke-linecap="butt"/></g></g></g></svg>